/* XPM */
static char *_8de8165e12944dee5ec7cc4513c24a3nKCFTtv3rk8q6AR5[] = {
/* columns rows colors chars-per-pixel */
"50 50 241 2 ",
"   c #877AC3",
".  c #8679C2",
"X  c #8578C1",
"o  c #8579C1",
"O  c #867AC2",
"+  c #8478C0",
"@  c #8377C0",
"#  c #8477C0",
"$  c #8478C1",
"%  c #8A7DC6",
"&  c #8B7EC7",
"*  c #887BC4",
"=  c #877BC3",
"-  c #8A7EC6",
";  c #897DC5",
":  c #887CC4",
">  c #897CC5",
",  c #8F83CB",
"<  c #9285CE",
"1  c #9185CE",
"2  c #8F82CB",
"3  c #9084CC",
"4  c #9184CD",
"5  c #8D80C9",
"6  c #8C80C8",
"7  c #8E82CA",
"8  c #8D81C9",
"9  c #9083CC",
"0  c #9286CE",
"q  c #9185CD",
"w  c #9386CF",
"e  c #8B7FC7",
"r  c #8E81CA",
"t  c #8C7FC8",
"y  c #9083CB",
"u  c #9386CE",
"i  c #8C7FC7",
"p  c #9184CC",
"a  c #8579C2",
"s  c #877AC4",
"d  c #8679C3",
"f  c #8578C2",
"g  c #8B7EC6",
"h  c #9185CB",
"j  c #8C80C7",
"k  c #887BC6",
"l  c #9183CF",
"z  c #8E81CC",
"x  c #8E82CF",
"c  c #9083CF",
"v  c #8A7CC6",
"b  c #8B7FC6",
"n  c #9386CD",
"m  c #8E81C9",
"M  c #887CC5",
"N  c #9185CC",
"B  c #9084C7",
"V  c #857AB8",
"C  c #867AB8",
"Z  c #9084CA",
"A  c #9083D0",
"S  c #9184D0",
"D  c #8A7DC5",
"F  c #8F82CA",
"G  c #8B7EC8",
"H  c #887BC3",
"J  c #8F83C4",
"K  c #9389C0",
"L  c #A59CC7",
"P  c #A49BC6",
"I  c #9387C8",
"U  c #8D81CA",
"Y  c #8D80CB",
"T  c #897CC4",
"R  c #8679C1",
"E  c #877AC1",
"W  c #8578C3",
"Q  c #8679C0",
"!  c #877BB8",
"~  c #9A91BE",
"^  c #ECE5F7",
"/  c #EBE5F8",
"(  c #9A8ECC",
")  c #8579C0",
"_  c #8579BF",
"`  c #8579BE",
"'  c #8679C5",
"]  c #857AB9",
"[  c #9C93BF",
"{  c #F4EDFB",
"}  c #F3EDFB",
"|  c #9A8FCB",
" . c #8678C0",
".. c #857ABF",
"X. c #887CC0",
"o. c #8B7FC0",
"O. c #897CC3",
"+. c #8578C5",
"@. c #877AC6",
"#. c #8A7EC2",
"$. c #988DC3",
"%. c #C8C0E2",
"&. c #C7C0E0",
"*. c #968BCA",
"=. c #8B7DC3",
"-. c #8A7EC3",
";. c #877BC0",
":. c #8C80C2",
">. c #9388C6",
",. c #8D81C6",
"<. c #887BCA",
"1. c #9285D1",
"2. c #897FB7",
"3. c #897FB3",
"4. c #9185C8",
"5. c #9184CE",
"6. c #9283CA",
"7. c #9285CA",
"8. c #897EC3",
"9. c #8C80C3",
"0. c #9387C6",
"q. c #8D81C5",
"w. c #8679C4",
"e. c #887BCB",
"r. c #9284D4",
"t. c #8F82CE",
"y. c #877BC1",
"u. c #877ABE",
"i. c #9084CB",
"p. c #877AC2",
"a. c #9183CA",
"s. c #9184CB",
"d. c #897EC4",
"f. c #887CC1",
"g. c #897DC2",
"h. c #8779C6",
"j. c #8B7ECC",
"k. c #8A7CCB",
"l. c #8678C7",
"z. c #8678C5",
"x. c #8B7EC5",
"c. c #8578C6",
"v. c #8578C7",
"b. c #8678C1",
"n. c #8678C2",
"m. c #8479C3",
"M. c #8578C4",
"N. c #8679BF",
"B. c #8579BC",
"V. c #867ABE",
"C. c #8779C3",
"Z. c #8779C4",
"A. c #897CC6",
"S. c #8F82CD",
"D. c #8478BF",
"F. c #8E82C8",
"G. c #8A7BC4",
"H. c #9281CA",
"J. c #8C7DC6",
"K. c #8577C0",
"L. c #867AC3",
"P. c #8D82CB",
"I. c #8B80CA",
"U. c #8579C3",
"Y. c #8E80C8",
"T. c #9380C8",
"R. c #9D85CD",
"E. c #9285CD",
"W. c #8D7DC6",
"Q. c #9784CD",
"!. c #9080C8",
"~. c #877CC5",
"^. c #9086CF",
"/. c #8E84CE",
"(. c #857AC5",
"). c #867AC4",
"_. c #9382C9",
"`. c #9C84CA",
"'. c #AB8BD0",
"]. c #8D7EC6",
"[. c #9383CB",
"{. c #887DC5",
"}. c #8F85CD",
"|. c #8D83CB",
" X c #897AC4",
".X c #9983C8",
"XX c #A185C9",
"oX c #AD8ACE",
"OX c #8D7FC8",
"+X c #887AC3",
"@X c #8E83CB",
"#X c #8C83C9",
"$X c #867CC3",
"%X c #897DC4",
"&X c #8F81C9",
"*X c #9584CB",
"=X c #A78BCF",
"-X c #AF8CCF",
";X c #B48ED1",
":X c #897EC5",
">X c #9086CD",
",X c #8E84CA",
"<X c #8479BF",
"1X c #887BC1",
"2X c #9A85CB",
"3X c #AF8DD0",
"4X c #B58ECF",
"5X c #B78ED0",
"6X c #867BC4",
"7X c #897FC6",
"8X c #8D82C7",
"9X c #897BC0",
"0X c #8D7CC2",
"qX c #9A85CA",
"wX c #A187CC",
"eX c #B28CCE",
"rX c #B78DCE",
"tX c #B28ACB",
"yX c #8A7FC8",
"uX c #8F86CE",
"iX c #8B82C9",
"pX c #857BC0",
"aX c #8A7DC2",
"sX c #9383C7",
"dX c #9B85C9",
"fX c #A98ED3",
"gX c #AE90D3",
"hX c #B48ECF",
"jX c #B48DCE",
"kX c #A17CBF",
"lX c #9187D0",
"zX c #8C82CA",
"xX c #8A7BC0",
"cX c #9782C7",
"vX c #9F85C9",
"bX c #AD8DD1",
"nX c #B28FD2",
"mX c #B38FD0",
"MX c #B28FD1",
"NX c #9B7CC0",
"BX c white",
/* pixels */
"    . X X X .     o o o o     X X X X .   O o o o .   O X X X X .   . o o o O   . X X X X     o o o ",
". X . . . . . X o o o o o o X . . . . o X o o o o o o X . . . . X X o o o o o X X . . . . X o o o o ",
"o + + + @ + + # o o o o o X # X # @ + + + o o o o o X # X # # X + X o o o o o X + X @ # X # X o o o ",
"o X X X + X X X o o o o o o X X X + X X X o o o o o X X o X $ o X X o o o o o X X o + X X X X o o o ",
"o X X o o o X X o o o o o o X X o o o X X o o o o o o X o o o o X o o o o o o X X o o o o X o o o o ",
"% & * X X X = - ; o o o O % %   X X X : & : o o o   & ; . X X . > & = o o o * & > o X X O % - O o o ",
", < & . X o & 1 2 O o o   3 4 > X X . 5 < 6 o o o > < 2 * X X   7 < % o o o & < 8 O X X : 9 4 = o o ",
"9 0 & X o X - < 2 O o o   4 q > X o o 5 w 6 o o o > < 9   X X O 2 w % o o o e w r . o X * 4 < = o o ",
"- t : . O . : t % o o o O & e = . O . ; t > o o o   t & O . . O - t = o o o : t % O O . = & e O o o ",
"o o o o o o o o o o o o o o o o o o o o o o o o o o o o o o o o o o o o o o o o o o o o o o o o o o ",
"o o o o o o o o o o o o o o o o o o o o o o o o o o o o o o o o o o o o o o o o o o o o o o o o o o ",
"o o o o o o o o o o o o o o o o o o o o o o o o o o o o o o o o o o o o o o o o o o o o o o o o o o ",
"o o o o o o o o o o o o o o o o o o o o o o o o o o o o o o o o o o o o o o o o o o o o o o o o o o ",
"O   O o o o O   O o o o o O   . o o o O   O o o o o   O o o o o O   . o o o O   O o o o . O   o o o ",
"r 9 - . O . % 9 5 . o o O 2 y : . O . t 4 & o o o : 9 r   . .   8 9 > o o o % 4 6 . . . * 2 y = o o ",
"9 u & X X X & 0 , O o o = 4 q > X X o 5 w 5 o o o > w 9   X X O 2 w % o o o e w r . X X * 4 < * o o ",
"8 2 % . . . % 2 5 o o o O 7 7 > o . . & 9 & o o o : , 8 = o o   5 , > o o o % 9 t O . o * r 2 = o o ",
"    . X X X .     o o o o     o X X X .   O o o o .     X X X X O   . o o o O   . X X X o     o o o ",
"o X o . o . o X o o o o o X X . . o . X X o o o o o X X . . o . X X o o o o o X X . o o . X X o o o ",
"> ;   X   ; * X   % ; O O ; > O X * %   X * % : .   % : . o : ; . o > % * . * % * o . > > . . ; % = ",
"9 < & X i w 5 o > < ,     p 4 > X r < & X e w 8 . > < ,   O 9 4 > X r < & X & u 8 . : < 9   O 9 4 % ",
"9 < & X t w 5 . > 0 2   O 4 4 > o 7 < & X e w 8 . : < , = O 4 4 > o r 0 e X & w r . : < 9 * O 3 4 % ",
"& t : X > 6 % .   t & O . e e = X % t : X > 6 % .   t & O . e t = X % 6 > X : 6 % .   t & O . & t * ",
". . X X o . o X X . o X X . . X X . . X X o . o X X . o X X . . X X . . X X o . o X X . o X X . . X ",
". o o . o o o . o . X . o . X . o . o o . o o o . o . X . o . X . o . o o . o o o . o . X . o . X . ",
"t 8 > X ; r % . * 8 t O . 6 5 * o & 8 > X > r - . = 8 t O . 6 5 * o & 8 > X > r - . = 8 t   . 6 5 * ",
"9 w & X t w 8 o > w 9   O 4 < > X 7 w & X e w r o : w 9   . 4 < > X r w & X & w r o : 0 9   . 4 < % ",
"2 4 & . & q 5 . > 4 7 =   9 9 > . 8 4 & . & q 5 O : 4 2 *   , 9 > . 8 4 & . & q 5 O : 4 2 * O , 9 % ",
"* >   X   > = X . > * o X > > . X * >   X   > = X . > * . X : > . X * >   X   > = X . > * . X : > O ",
"X X X . X X X . o X X . . X X o . X X X . X X X . o X X . . X X o . X X X . X X X . o X X . . X X X ",
"    . X .   O o .   O . X     . X     . X . = O a a s d f X     . X     . X .   O o .   O . X s s . ",
"7 4 % X & 4 6 . : 4 r     , 9 : o 5 4 - X g h j . k l z s d 2 9 > o 5 4 & X & 4 5 . * 3 2   d x c v ",
"9 0 & X t w 8 . > w 9   O 4 q > X 7 w & X b n m . M N B V C Z < > X r w e X & w r . : 0 9   d A S % ",
"5 7 % . % 2 & . * 7 6   O 8 r * . t 7 % . D F G d H J K L P I U : . t 7 % . % 2 e . * 7 5   d Y r T ",
".   . X .   . X o   . X X O O o X .   . X R E d W Q ! ~ ^ / ( f o X .   . X .   . X X   . X X O E ) ",
"X X o . o X X . o X X . . X X . . X X o . _ ` f ' . ] [ { } | # . . X X o . o X X . o X X . R  .` ..",
"D - = X * & : o   - > . . % %   X > - * X X.o.O.+.@.#.$.%.&.*.>   X > - * X * & : o O - ; . R =.-.;.",
"9 < & X t w 5 o > < ,   O 4 4 > X r 0 & X :.>.,.+.<.1.B 2.3.4.5.> X r w & X & w r . : < 9   . 6.7.8.",
"9 < & o e 0 5 . > < 2 =   3 4 > o 7 < & o 9.0.q.w.e.r.t.y.u.i.4 > o r < e o & 0 r . : < , * p.a.s.d.",
"% & * X * e > o   e % . . & &   X ; e * X f.9.g.a h.j.k.l.z.& &   X ; e * X * e > .   & % . . x.g = ",
"X o X X X o X X X o X X X o X X X X o X X a o ) ) ) o W c.v.W X X X X o X X X o X X X o X X b.n.f m.",
". . o X o . o o X . o o X . o o X . . o o M.z.f N.B.V.) M.+.d o o X . . o o b.. R o X . a a f C.n.Z.",
"6 7 : # > 2 % #   7 t X X 5 r   # & 2 > # A.S.& D.E F.j f f 5 r   # & 2 > # G.H.J.K.L.P.I.m.U.Y.T.R.",
"9 < & + t w 5 X > < , O O 4 4 : X 7 u & + e w 8 X T < 9 O O 4 E.: X r u & + W.Q.!.X ~.^./.(.)._.`.'.",
"2 3 & O t 4 5   ; 4 r * = 9 , ; O r 3 & O e 4 5   > 4 7 : = y , % O r 3 e O ].[.Y.= {.}.|.~. X.XXXoX",
"; * t 9 t = & , r * % 7 , > : 8 9 - * t 9 6 = & , r * ; 7 , > : 8 9 - * t 9 OX+Xg @X#X$X%X&X*X=X-X;X",
"* X 5 w t + % < 2 X * 4 4   . 2 u ; + 6 w 6 + % < 2 X = 4 E.  . 2 w % + t w 5 + :X>X,X<X1X_.2X3X4X5X",
"% H t 9 t = & y 8 * > 2 2 > * m 9 - = t 9 t = - y r * > 2 2 > * 8 9 - = t 9 6 6X7X,X8X9X0XqXwXeXrXtX",
"2 4 & . t q 5 . ; 4 2   = 9 9 > . r 4 & . e q 5 . > 4 2   = , 3 > . m 4 & . yXuXiXpXaXsXdXfXgXhXjXkX",
"9 < - + t w 5 X : 0 , O . 4 4 : X 7 0 & + e w 8 X : < y O . 4 4 : + r u & + yXlXzX<XxXcXvXbXnXmXMXNX"
};
