/* XPM */
static char *_2__1_1675773214[] = {
/* columns rows colors chars-per-pixel */
"50 50 90 1 ",
"  c #231C17",
". c #251E19",
"X c #27201A",
"o c #2A231D",
"O c #2E2721",
"+ c #2F2822",
"@ c #332B25",
"# c #362F28",
"$ c #373029",
"% c #3B332D",
"& c #3F3730",
"* c #3F3831",
"= c #403730",
"- c #433B34",
"; c #483F37",
": c #473F38",
"> c #483F38",
", c #474039",
"< c #4B433B",
"1 c #50473F",
"2 c #52483F",
"3 c #4D4741",
"4 c #504740",
"5 c #544B43",
"6 c #584F46",
"7 c #544E49",
"8 c #5A5047",
"9 c #5C534A",
"0 c #61564D",
"q c #62584F",
"w c #655B52",
"e c #695E55",
"r c #635E59",
"t c #6B6156",
"y c #6D6359",
"u c #71665C",
"i c #73695E",
"p c #6B6662",
"a c #6F6964",
"s c #766C61",
"d c #796E63",
"f c #726D68",
"g c #7C7166",
"h c #76716D",
"j c #7C736B",
"k c #7A7571",
"l c #7F7A76",
"z c #817B76",
"x c #837E7A",
"c c #85817D",
"v c #898481",
"b c #8E8A86",
"n c #8F8B88",
"m c #908A85",
"M c #918D8A",
"N c #96928E",
"B c #979491",
"V c #9B9693",
"C c #9D9996",
"Z c #9F9B99",
"A c #A29F9C",
"S c #A4A09D",
"D c #A6A3A1",
"F c #AAA6A3",
"G c #ACA8A6",
"H c #AEABA9",
"J c #B1AEAB",
"K c #B3B0AE",
"L c #B9B7B5",
"P c #BBB9B7",
"I c #BDBAB9",
"U c #C1BFBE",
"Y c #C2C0BE",
"T c #C6C3C2",
"R c #CAC8C7",
"E c #CDCBCA",
"W c #D1CFCF",
"Q c #D5D3D2",
"! c #D8D7D6",
"~ c #D9D8D7",
"^ c #DEDDDC",
"/ c #E0DFDE",
"( c #E5E4E4",
") c #E8E7E7",
"_ c #ECEBEB",
"` c #F0EFEF",
"' c #F0EFF0",
"] c #F4F3F3",
"[ c #F8F7F7",
"{ c #FCFCFC",
/* pixels */
"{[_(]^GGHHJE^UHDH^_JDJHDUYEUKPRPI)E!KAHGAAHJDSQ{')",
"__[Nj70w99e9pyeewjVtuetw9#;wy5;<qr%90wter9:<,<tn({",
")_]kt-9y<qw9yyyw995sw<9et-5ije582@2w9eyq59e5,90:D{",
"[]_x<*9suu6w959<,<w0<>,wsw;qsyw&<tu63eyuy9555&--T]",
"{{)M@$9yyt6;,;;;&59<<,2igu;,0q,-0ueewttygs09e-@-G)",
"]]_l=%,595,#-=%=%,qww00sgu5$-%@,9w0ee05<9tew<O@%Z]",
")_]jt--;;:>#$6tut59yyuewww9o-;@-6w04<295,34:$<twH{",
"_]`jy5&-;;;@6usgu0;9w64<;,$#uu%+$-9<,qw5::-O%<9uS{",
"{[)ze99%;-##wusgue-%;;;$#O.@wi55;@%-,q5,&-<6*::5B_",
"{[_m9ud9@%5>wyuwq0,@@$@;t;,58iytq<@$%--$owws7#:-G_",
"_]]l,0yy55y95e9,;-#,wwwiw<59eye6-%8y5$60,t9e3X#-!{",
")_[h-,5595ie%,<,;#-wiuuw5t9;wy9%@1uiw2ee-8q5&4q5!{",
"]]]n&,::,%55$.$*-o$,505=8zt%<5-@;,<<%$22-@--%509J]",
"{[)v-&,,-o;,%%%%%@o--;$%0iy<%=$5u-#<9;;,%#@@&<95n_",
"[[)y:+-&@@+$-ettu<%5==O=,55<$$-%,-9ggt&=8ut0<-53H]",
")_[k@+$*2<+<ysiu9-wgw90==,>,%O-;*1st95-9wtggg9;b]{",
")_]L=2eeu2=qit02$$<<<<-%#%==-0==--01;;-1,,20ey9B]{",
"[]_c2zz908=22;#=92#o<9q5,,2<ti002,9,;;%%%%$$%;%s)_",
"[[~zzzt<;0##@O2is5;,9jgtetu2<qee<<u8,,#%5w;$$$2g^)",
"``/zet8;;8;@=%ezt=625sgsgzz0=<2-#wguw9,tsg525wsuE[",
"(_[N<9<,;88=2=2q=%59=0yyezze@==-=qiyq-<szt2tizus){",
"`]`N=;<;;08=q8%O=%2w-;5<<228O#0e,<2<$.;w0-;eyq2A[]",
"{[/g==;;;;@=tz;;u=<0<#;;-;;,#8ze---+o;-;=$%<2<=g__",
"{[(ge2=;=#;tze2es-#,;#@-;;,;;ee8%@#,<0$,0y2$-=<2J_",
")`{m58#o#,8wt2zze;X@%=oX#%#@@22<;#2q59;yzg5o;9uwD{",
")_{L,=@@%;,<<2t9<%#%<ew%;===@=-<%2sw=-8uut2wggt9!{",
"[]`^9@,<;#%;#=2,%=,8tzu6208202%=$wjy=$252;5gs0-=J'",
"{{)m,8yt8<=#%##o%8,8tzze9zz90e=85,ud6@;;;$0u5$1eC)",
"]])yqggitt82ze9=;q<2udie6ti2<22t,<ugs6--%$<;$2uiS]",
")_[c9ggw0w<0zte8;8<2eyyy=28<,=22%:6wuiq-22%o%50wG{",
"_'[E,9t1<@@2;=qt<=,<<228O@,-@O2-O&;;<658utq=o-;5G{",
"{[_C*-,-#.@==;222O@%===%,=#oO#%O+$&;;;%6<,;;29,2Y)",
"{[_l,5<8e-2;===@@%<<@%-;;::@60>546%$$$@%=;9igu0f)_",
"_'{I:9izz2,e8<=#;4u0%,5690<%qsiy5e6156-#;6996<-s_{",
")_{G$;0ue-2zdt0=5esu-2usgde;<wyw9sytsi>&%=-%%&-x_{",
"]])ro%,3#@2w022=8iuy5,yusue;;><;tduidu-89,%+%,59T]",
"{{)a@-;-<<=,-=@@9ye592=%;5<o%-$=iu9eu0$<0u545;$@H_",
"[]]b-y5%ui=%-<=@49<,,2;0-@,2%%%%64>85+.@=->ujs2OF]",
")_{T<9y9wi==qee2&>>,;-wi4%tueww-;>>-=295-%=wuy9w){",
"__{I,-9w88-euzdy2->%%0ge5--6tyi9%-%<ydgste;><<$z][",
"{[/i6%802w20yizi0++ &69,6,,-5igg-..-0tiuuy0#%$-m])",
"{[/w=%8<,02@<0ee<-52&;;;6;,<-9iy-#1%-10q600%-4qz^_",
"``[V@@=%=;=,==<<=qyu,$-=92,6*,5*$0i5@-;;><%-eti0T{",
"(_[F#2ww88=2<==#%w9t505=<05,##@%=2ye-%=;>&%wzzi-Z{",
"]])y,wi928<=8t2O-0509se9%,,-<,5e-<052w1$O=wizz2@M[",
"{{^w,8euzz6@0zuw<95955,5;%#;r9sy=;;#;200-O8eqt%=C_",
"{[)h=<20tt2@<0w8-33-%,;:;#@-80u0&>=@;;-<2=-222%8^_",
")_{/i=,<2=#=#=2,p3-,y-;;%2-%,,<<$&55-;;--==;-;=i]{",
")_{{~r*-<l5<pr-r^N7h(x*<35**,*-*yxLTk7,3pZf,--*p'{",
"{[__{QcxH'GZ((VY'[(^'_ZIEZKFGAvvE'{[(WWQ('_TBvVT]_"
};
