/* XPM */
static char *_15eeff25cd5499dd8521e45ee933257eLdrFxRcwZNE1s95[] = {
/* columns rows colors chars-per-pixel */
"50 50 175 2 ",
"   c None",
".  c #5B1D0C",
"X  c #65160B",
"o  c #641B0E",
"O  c #6D1B0C",
"+  c #661407",
"@  c #721C0F",
"#  c #751B12",
"$  c #5D220D",
"%  c #57210D",
"&  c #5E2311",
"*  c #62250E",
"=  c #632712",
"-  c #6A2011",
";  c #652B14",
":  c #6A2B13",
">  c #6C2F18",
",  c #762110",
"<  c #7B2215",
"1  c #722E14",
"2  c #7D2C1B",
"3  c #6C3017",
"4  c #6E331A",
"5  c #773014",
"6  c #74371D",
"7  c #7F331D",
"8  c #70391F",
"9  c #7D391C",
"0  c #7D4628",
"q  c #734025",
"w  c #7D4C31",
"e  c #830B13",
"r  c #8F1119",
"t  c #9A131E",
"y  c #842E1C",
"u  c #89291C",
"i  c #83351B",
"p  c #8A321F",
"a  c #833A1B",
"s  c #91331E",
"d  c #9F0F20",
"f  c #AB0F21",
"g  c #BA0E25",
"h  c #BF122A",
"j  c #B81D37",
"k  c #8E2B23",
"l  c #8D2522",
"z  c #932B27",
"x  c #9F2F2F",
"c  c #932E2E",
"v  c #8D3320",
"b  c #823A25",
"n  c #853320",
"m  c #943621",
"M  c #973822",
"N  c #9C3B24",
"B  c #A33E26",
"V  c #AD3637",
"C  c #B83B3F",
"Z  c #B53A3D",
"A  c #CD0F2C",
"S  c #C50D28",
"D  c #C6102A",
"F  c #CB102B",
"G  c #D51A3C",
"H  c #8F401D",
"J  c #95421F",
"K  c #84452A",
"L  c #89452C",
"P  c #8A4B2D",
"I  c #8C4526",
"U  c #934321",
"Y  c #944C2A",
"T  c #984625",
"R  c #844E31",
"E  c #945837",
"W  c #A64027",
"Q  c #A94127",
"!  c #A94228",
"~  c #AF482A",
"^  c #A04B25",
"/  c #B0472A",
"(  c #B24C2D",
")  c #BC5532",
"_  c #BC3D42",
"`  c #D71B40",
"'  c #D6254A",
"]  c #DE254D",
"[  c #D02246",
"{  c #CA3047",
"}  c #C73149",
"|  c #CB3149",
" . c #C03D44",
".. c #D1374D",
"X. c #D2394E",
"o. c #D73C51",
"O. c #D83E52",
"+. c #E0254E",
"@. c #E22B56",
"#. c #E22C58",
"$. c #E43761",
"%. c #9C6543",
"&. c #946848",
"*. c #9E6D4A",
"=. c #976746",
"-. c #A06340",
";. c #AB6F47",
":. c #A96F48",
">. c #AB734A",
",. c #AE784D",
"<. c #B0794E",
"1. c #CF454D",
"2. c #DD4155",
"3. c #D74953",
"4. c #DB4B56",
"5. c #DF4659",
"6. c #E24659",
"7. c #E54B5C",
"8. c #EB4E5F",
"9. c #E04456",
"0. c #EC515F",
"q. c #E6515D",
"w. c #E0466F",
"e. c #ED5261",
"r. c #F15463",
"t. c #E74770",
"y. c #E75379",
"u. c #AE825C",
"i. c #B88257",
"p. c #B78153",
"a. c #B68D64",
"s. c #B5936B",
"d. c #B8926A",
"f. c #BE9A71",
"g. c #C38E5C",
"h. c #C98A57",
"j. c #CD925E",
"k. c #C49365",
"l. c #C49F76",
"z. c #D8A569",
"x. c #DCA96C",
"c. c #D7A26A",
"v. c #C5A47A",
"b. c #D9B17C",
"n. c #E2AD6F",
"m. c #E6B272",
"M. c #EEB975",
"N. c #E2B77F",
"B. c #EDBB7A",
"V. c #E9B573",
"C. c #F0BB77",
"Z. c #F0BD7A",
"A. c #EE678A",
"S. c #F17698",
"D. c #CFB083",
"F. c #DDBC8A",
"G. c #D3B687",
"H. c #E5BA80",
"J. c #F380A1",
"K. c #F1C483",
"L. c #F4CB8C",
"P. c #F4C987",
"I. c #EACE9A",
"U. c #E5C997",
"Y. c #F4CD90",
"T. c #ECD19C",
"R. c #F7D293",
"E. c #FBD99C",
"W. c #F8D599",
"Q. c #F1D7A1",
"!. c #F6DBA3",
"~. c #FBDDA4",
"^. c #FADFA8",
"/. c #FDE1A7",
"(. c #FEE3AB",
/* pixels */
"                                                                                                    ",
"                                                                                                    ",
"                                                                                                    ",
"                                                                                                    ",
"                                                                                                    ",
"                                                                                                    ",
"                                                                                                    ",
"                                                                                                    ",
"                                                                                                    ",
"                                                                                                    ",
"                                                                                                    ",
"                                                                                                    ",
"                                                                                                    ",
"                                          d e f                                                     ",
"                                      ' ' ' [ G A     = 9 T                                         ",
"                                      $.$.@.@.@.` F     $ J U                                       ",
"                                    t.S.A.#.@.#.+.F     % a ^                                       ",
"                                    y.J.A.#.@.#.+.A t % $ : 1 &                                     ",
"                                      y.w.@.#.#.G S # ; $ $ $ * a &                                 ",
"                                      j +.@.] ` A t o 3 = $ $ a a                                   ",
"                                  : % X t D D g r o 6 6 3 ; * J P                                   ",
"                                7 > = % . o O - $ 6 : * $ $ * J E T.(.                              ",
"                              U P v.K : &.s.; ; $ $ $ $ $ $ 1 J %.!.(.(.                            ",
"                              Y v.(.f.d.Q.T.q % $ $ 1 R w $ 9 u.U.(.(.(.(.                          ",
"                            x.b.E././././.I.0 $ 3 a I b.T.&.8 I.(.(.(.(.^.                          ",
"                            M.C.B.K.K.K.K.z.H E >.a *./.(.s.4 F.(.(.(.^.^.                          ",
"                              M.B.V.B.B.C.h.5 a.!.G.T.(.(.v.* i.(.^.W.L.~.(.                        ",
"                              B.M.M.M.P.E.k.6 D.(.(.(.(.(.U.8 Y H.K.P.~.(.(.                        ",
"                              n.B.M.M.R.(.T.G./.(.(./.E.W.L.=.a j.R./.(.(.(.                        ",
"                            n j.B.M.B.Z.P.L.R.Y.P.K.Z.C.M.B.K.i.F./.(./.E.                          ",
"                          M v E x.C.C.C.M.M.M.M.M.M.M.M.M.B.K.P.L./.E.H.*.                          ",
"                        N / B p I -.>.<.n.B.M.M.M.M.B.C.M.z.>.>.g.k.,.0 2                           ",
"                        B ) ) Q s y y 2 L p.c.m.V.V.x.g.%.b n y n 2 2 n N                           ",
"                          ~ ) ) ~ B s s k i b K P K b i y v v v v v m B N                           ",
"                            W ~ ( ( Q B N N m v v v k v v v v v p M B k                             ",
"                              y N Q Q Q W Q Q Q W B W N N N v v p y , +                             ",
"                              + X < y s M N N N N M m v p i y < @ < x                               ",
"                              c Z u + @ k , # u , O k c O @ _ C l 3.r.                              ",
"                                r.e.1.3.e.1. .5.V z 4.q.C  .r.r.0.r.0.                              ",
"                                e.r.r.8.r.e.r.r.r.e.e.r.r.r.r.r.r.0.                                ",
"                                  e.e.9.e.e.e.e.r.r.r.e.e.8.e.e.0.6.                                ",
"                                  7.e.o.e.e.6.r.8.8.r.e.e.6.7.7.2.                                  ",
"                                  X.O.| O.O.o.r.7.9.r.6.O.X.....|                                   ",
"                                    | | | | | X...| X...| | | |                                     ",
"                                      } { | | | | | | { | | }                                       ",
"                                                                                                    ",
"                                                                                                    ",
"                                                                                                    ",
"                                                                                                    ",
"                                                                                                    "
};
