/* XPM */
static char *a63f3cd950934ead897b9f3b1f2a650fz4LxI8IjAAEK6ny2[] = {
/* columns rows colors chars-per-pixel */
"50 50 211 2 ",
"   c None",
".  c #1A171B",
"X  c #060809",
"o  c #201117",
"O  c #261D26",
"+  c #3B1927",
"@  c #351E35",
"#  c #2A1B32",
"$  c #2A2A2B",
"%  c #282128",
"&  c #35292B",
"*  c #2D2932",
"=  c #352B3A",
"-  c #352939",
";  c #3B333D",
":  c #373638",
">  c #5C2A1E",
",  c #47192B",
"<  c #4C1D30",
"1  c #571D34",
"2  c #462B29",
"3  c #592F23",
"4  c #46312C",
"5  c #452938",
"6  c #582338",
"7  c #443638",
"8  c #593B2E",
"9  c #66223D",
"0  c #713828",
"q  c #45403A",
"w  c #724936",
"e  c #3A2943",
"r  c #3C3242",
"t  c #3B3D40",
"y  c #462645",
"u  c #5A2542",
"i  c #44354C",
"p  c #473845",
"a  c #583545",
"s  c #462E51",
"d  c #463251",
"f  c #4B3555",
"g  c #493953",
"h  c #4C3759",
"j  c #51365D",
"k  c #6A2A44",
"l  c #6C2D4B",
"z  c #672641",
"x  c #772C4B",
"c  c #65354A",
"v  c #783854",
"b  c #5C3C6A",
"n  c #573A64",
"m  c #5E3E70",
"M  c #613E71",
"N  c #3E4244",
"B  c #46494C",
"V  c #464749",
"C  c #554B46",
"Z  c #5D5346",
"A  c #4D4557",
"S  c #574854",
"D  c #54545B",
"F  c #59585A",
"G  c #4F5152",
"H  c #69564A",
"J  c #785751",
"K  c #6A4B4F",
"L  c #736656",
"P  c #5A5863",
"I  c #655968",
"U  c #634373",
"Y  c #6A457D",
"T  c #674679",
"R  c #6E537D",
"E  c #604065",
"W  c #5C6164",
"Q  c #6A696B",
"!  c #696875",
"~  c #6F7276",
"^  c #76757B",
"/  c #716E76",
"(  c #934D33",
")  c #8F4B32",
"_  c #A25938",
"`  c #AB5238",
"'  c #B96A3E",
"]  c #C3623F",
"[  c #822C4E",
"{  c #863858",
"}  c #99345B",
"|  c #832E50",
" . c #983A63",
".. c #B23C6B",
"X. c #B83F6E",
"o. c #A93A66",
"O. c #946B52",
"+. c #B74676",
"@. c #A94673",
"#. c #8D7A65",
"$. c #907E71",
"%. c #A67F67",
"&. c #D46D45",
"*. c #CE7144",
"=. c #CD467A",
"-. c #C44375",
";. c #D5497F",
":. c #D1477D",
">. c #95826B",
",. c #87827F",
"<. c #B89778",
"1. c #AC9175",
"2. c #F19852",
"3. c #EB8D4E",
"4. c #C89471",
"5. c #D19A77",
"6. c #6F4B82",
"7. c #724A86",
"8. c #754C8A",
"9. c #784D8F",
"0. c #794F91",
"q. c #7D5293",
"w. c #765688",
"e. c #797E84",
"r. c #7A7B84",
"t. c #756F82",
"y. c #83559B",
"u. c #85599C",
"i. c #805297",
"p. c #827380",
"a. c #8B5AA4",
"s. c #8E5BA8",
"d. c #935FAD",
"f. c #9362AD",
"g. c #976BAD",
"h. c #9662B0",
"j. c #9C6BB5",
"k. c #9966B4",
"l. c #9F73B6",
"z. c #9572A8",
"x. c #A374BC",
"c. c #A879BF",
"v. c #B7588D",
"b. c #D64A81",
"n. c #D94B83",
"m. c #D8528A",
"M. c #DD5894",
"N. c #E15B97",
"B. c #E769A9",
"V. c #ED6FB1",
"C. c #A97CC2",
"Z. c #A678C0",
"A. c #7F848A",
"S. c #84898D",
"D. c #848485",
"F. c #898C93",
"G. c #8E939B",
"H. c #899094",
"J. c #979B9D",
"K. c #988F82",
"L. c #969DA3",
"P. c #9CA3A9",
"I. c #A2A5A8",
"U. c #A7AEB2",
"Y. c #ACB4B9",
"T. c #B6B8BA",
"R. c #CAA884",
"E. c #D5B895",
"W. c #CFB492",
"Q. c #E4BA92",
"!. c #DCC19A",
"~. c #EDC39A",
"^. c #F1C79D",
"/. c #D6C4B8",
"(. c #E8CAA2",
"). c #F2CCA3",
"_. c #F9D6AC",
"`. c #FAD9AD",
"'. c #F3D1A8",
"]. c #EFD1A7",
"[. c #AD82C5",
"{. c #B085C7",
"}. c #B187C9",
"|. c #B289C9",
" X c #BB97CF",
".X c #B5BDC3",
"XX c #C29FD4",
"oX c #C7ACD7",
"OX c #BAC4CB",
"+X c #BDC9CE",
"@X c #BFCBD2",
"#X c #C2CACF",
"$X c #C4CDD4",
"%X c #CBD6DC",
"&X c #CCD2D4",
"*X c #D4D8DB",
"=X c #CED9E1",
"-X c #D2DEE6",
";X c #D4DFE8",
":X c #DEE3E6",
">X c #DBE4EB",
",X c #D8E3EB",
"<X c #E4EAED",
"1X c #E7EAEC",
"2X c #E6ECF1",
"3X c #EDF2F4",
"4X c #EFF5F8",
"5X c #F1F4F6",
"6X c #F6F9FA",
"7X c #FCFDFD",
"8X c #F3F7FA",
/* pixels */
"                                                                                                    ",
"                                                      ; = r r                                       ",
"                                              ; i b 6.y.u.u.q.7.E r ;                               ",
"                                            r Y f.x.C.[.}.[.[.[.x.f.Y i                             ",
"                                        & e y.Z.}.}.|.|.|.|.|.|.{.Z.f.7.- *                         ",
"                                    - x 6 M Z.}.|.|.}.}.|.|.}.c.f.6.n P r.P.L.G                     ",
"                                  7 } M.k 6.k.j.l.x.[.c.x.c.f.Y h ~ Y.:X8X7X4XY.B                   ",
"                                  6 M.V.x M d.d.d.f.f.k.f.8.h ~ .X3X6X7X6X7X<X.XV *                 ",
"                                O u N.V.} j d.d.d.h.h.a.n P U.>X4X4X2X<X%XL.L 0 ( _ ) 2             ",
"                              r j z m.B.+.y a.d.h.d.0.g e.%X4X2X,X;X@XG.Z w ( &.2.2.3._ 7           ",
"                              n 0.u =.m.m.u Y d.d.Y g P.,X2X,X-X=XP.G 3 *.' 0 &.*.*.2.&.4           ",
"                            r q.s.y ..b.b.o.y q.m P .X-X-X;X=XOX~ w 4 > ) 8 3 ` 0 _ 3.( 7           ",
"                            d a.d.b x n.b.b.[ @ P $X;X-X;X;XP.F O.5.w & L H w O.q ) w 2             ",
"                            s d.d.8.y X.n.b.b.z D F.G.r.L.e.Z 4.~.~.L .X*X,.1.4.w &                 ",
"                            ; T 9.Y M 9 b.n.-.l s 7.8.u.7.n J <.E.H Q 6XT.I.#.~.5.C                 ",
"                              ; - j s.s x X.l M d.x.C.{.c.j.y.c <.#.,.7XD.& Z ].E.Z                 ",
"                                  f d.7.* + m d.j.{.|.|.|.{.l.y.K 5.K.2XJ.X L `.E.V                 ",
"                                  = M d A.A 7.h.Z.|.|.{.|.|.C.f.T >.W././.#.W._.(.L                 ",
"                                  t P P H.W U Y w.z.[.}.|.|.c.f.9.J ^.^.).'.'._._.!.Z               ",
"                                D Y.<X:XJ.H.T..XP.! R [.[.C.k.f.9.J ^.`.`.].(._._.!.Z               ",
"                                e.<X7X7X4X5X7X7X7X:X^ 7.f.y.a.a.b %.)._.`.W.#.].`.1.q               ",
"                                Q OX3X6X7X7X7X7X7X7X$XA I t.! n Z ~.`._.`.].1.>.<.C                 ",
"                                  A.=X,X4X6X6X3X8X7X3XI.&X3X>XL.H 4.R.].`.`.!.L $                   ",
"                                  D A..X+XOXU.%X>X8X6X6X6X5X6X:X~ e.Q >.<.#.Z q                     ",
"                                      : a { v t.OX-X,X>X,X=X%X>X=X3X<XI.P :                         ",
"                                        a { { 2 - F ! $.p.P S L.+X#X*X5X.XV                         ",
"                                              ; 6 , } ..} < } v K p Q S.Q                           ",
"                                              5 1 } n.n.9 } n.;.=.k                                 ",
"                                              , 9 :.N.@.1 :.n.;.;.k                                 ",
"                                            5 , } n.B.{ [ ;.n.;.;.z                                 ",
"                                            1 1 -.N.V.x [ =.;.n.;.k                                 ",
"                                          7 x 1 -.N.B.l 7 c o.N.B.c                                 ",
"                                          & } 1 ..X.v I &XOXS v.B.c                                 ",
"                                        B Q a % S I J.:X7X3XF 5 @.5                                 ",
"                                        W =XL.W #X-X1X;X,XH.h 7.+ . %                               ",
"                                        B H.U.P OX;X-X#X^ g u.u.i V e r                             ",
"                                            D * B S.r.A M a.j.C.R * b r                             ",
"                                                O . j y.d.d.f.f.m # =                               ",
"                                                7 , @ 9.d.d.8.e @ *                                 ",
"                                                7 , 9 u f s - O r                                   ",
"                                                O + o.M.@.&                                         ",
"                                              t $ * k @. .&                                         ",
"                                              N / #XU.H.^ B                                         ",
"                                            : . e.*X,X2X4XS.. . O                                   ",
"                                            # # i P A.G.S.g h T U h =                               ",
"                                            O s s.q.T U T y.C.}. XoXw.=                             ",
"                                            . j h.h.h.h.f.x.|.|.|. XC.n                             ",
"                                            $ = U 7.0.y.y.a.g.l.l.z.u.j                             ",
"                                                  = ; p i i g g g g r                               ",
"                                                                                                    "
};
