/* XPM */
static char *_05d589b419d4ba4fddff64b47496933CCjS4UKRjiIF5oTX[] = {
/* columns rows colors chars-per-pixel */
"50 50 211 2 ",
"   c None",
".  c #170B13",
"X  c #191519",
"o  c #100A0F",
"O  c #29111D",
"+  c #2C111C",
"@  c #1D1221",
"#  c #2A1629",
"$  c #391927",
"%  c #2B1B31",
"&  c #2A2A2D",
"*  c #282426",
"=  c #332A2E",
"-  c #2E2534",
";  c #2E2D33",
":  c #332D34",
">  c #3C2B34",
",  c #34243C",
"<  c #362B3C",
"1  c #3B2737",
"2  c #353138",
"3  c #3A323E",
"4  c #383838",
"5  c #4C1A2F",
"6  c #471A2E",
"7  c #461E33",
"8  c #541D33",
"9  c #432B35",
"0  c #4C2C3A",
"q  c #492534",
"w  c #58263A",
"e  c #46333A",
"r  c #40232F",
"t  c #67233E",
"y  c #3B2C43",
"u  c #3E2747",
"i  c #3D3343",
"p  c #3D3F40",
"a  c #3F3149",
"s  c #412B4C",
"d  c #432647",
"f  c #423A44",
"g  c #42324C",
"h  c #493A47",
"j  c #583844",
"k  c #472D52",
"l  c #453450",
"z  c #4D355A",
"x  c #493754",
"c  c #52395F",
"v  c #55375A",
"b  c #6D2D46",
"n  c #682842",
"m  c #7E2B4B",
"M  c #752846",
"N  c #723A52",
"B  c #7C3B55",
"V  c #793555",
"C  c #693349",
"Z  c #543B62",
"A  c #5B3D6B",
"S  c #563965",
"D  c #613F73",
"F  c #3F4344",
"G  c #434347",
"H  c #4D4D53",
"J  c #4B4754",
"K  c #554659",
"L  c #55595B",
"P  c #505157",
"I  c #6B4658",
"U  c #77435A",
"Y  c #554463",
"T  c #5C426A",
"R  c #5B4B67",
"E  c #5B5E63",
"W  c #5C5367",
"Q  c #60436E",
"!  c #6A5969",
"~  c #634374",
"^  c #674379",
"/  c #69457C",
"(  c #6B4A7C",
")  c #674B77",
"_  c #735F69",
"`  c #5E6366",
"'  c #63656C",
"]  c #666B6E",
"[  c #6A656C",
"{  c #6A6A74",
"}  c #766B76",
"|  c #6E7479",
" . c #74787C",
".. c #71646F",
"X. c #832C4F",
"o. c #8C3255",
"O. c #863859",
"+. c #96355B",
"@. c #9B355E",
"#. c #95355B",
"$. c #892E52",
"%. c #9A3962",
"&. c #A13761",
"*. c #AB3A66",
"=. c #AB3A67",
"-. c #B53D6C",
";. c #B83E6E",
":. c #BC3F70",
">. c #9C426C",
",. c #824160",
"<. c #BC4071",
"1. c #B4487A",
"2. c #AA416F",
"3. c #80727D",
"4. c #C44375",
"5. c #CC457A",
"6. c #C7487C",
"7. c #D1477D",
"8. c #D5497F",
"9. c #6C4681",
"0. c #6F4A83",
"q. c #714B84",
"w. c #764C8B",
"e. c #7A4F8F",
"r. c #7A548D",
"t. c #7D5194",
"y. c #7D5891",
"u. c #7B4F92",
"i. c #7B7C85",
"p. c #777A81",
"a. c #83549B",
"s. c #845C98",
"d. c #877290",
"f. c #8B5AA4",
"g. c #8E5DAA",
"h. c #8657A0",
"j. c #935FAD",
"k. c #8E67A3",
"l. c #9361AE",
"z. c #966AAE",
"x. c #9166A7",
"c. c #9661B1",
"v. c #9867B2",
"b. c #9B6BB4",
"n. c #9F71B8",
"m. c #A374BB",
"M. c #A67ABE",
"N. c #A578BB",
"B. c #D64A81",
"V. c #D94A82",
"C. c #DC528D",
"Z. c #D95994",
"A. c #C6538A",
"S. c #E25C99",
"D. c #E05995",
"F. c #D9629E",
"G. c #E463A2",
"H. c #E86BAC",
"J. c #E468A8",
"K. c #EE73B7",
"L. c #EE6EB1",
"P. c #AA7DC2",
"I. c #A77BC0",
"U. c #7D8286",
"Y. c #82858B",
"T. c #84898F",
"R. c #8C8D95",
"E. c #8D9499",
"W. c #899197",
"Q. c #93979C",
"!. c #979EA4",
"~. c #9BA1A7",
"^. c #9CA5AB",
"/. c #A1A6AC",
"(. c #A3A9AE",
"). c #A5ADB3",
"_. c #A8AFB5",
"`. c #ABB3BA",
"'. c #AEB8BD",
"]. c #A9B1B6",
"[. c #B4BCBF",
"{. c #AE83C5",
"}. c #B084C7",
"|. c #B186C8",
" X c #B289C9",
".X c #B288C7",
"XX c #B5BCC1",
"oX c #AFBBC0",
"OX c #BAC1C5",
"+X c #BEC5CB",
"@X c #BAC5CB",
"#X c #BDCAD0",
"$X c #C3C9CB",
"%X c #C4CED4",
"&X c #C9D3D9",
"*X c #D5DBDD",
"=X c #CEDAE2",
"-X c #D4DDE3",
";X c #DADDE0",
":X c #DBE5EB",
">X c #D9E2E6",
",X c #DEE9F0",
"<X c #E1E9ED",
"1X c #E5E7E8",
"2X c #E5ECF2",
"3X c #EAEEF1",
"4X c #EDF2F5",
"5X c #F3F6F8",
"6X c #F5F9FB",
"7X c #FCFDFD",
"8X c #F1F4F6",
/* pixels */
"                                                                                                    ",
"                                                                                                    ",
"                                                                                                    ",
"                                                                                                    ",
"                                                                                                    ",
"                                                                                                    ",
"                                  i g c T ) ) ^ ~ c x g i                                           ",
"                            3 l ~ s.z.M.P.{.P.{.{.M.m.x.r.T g 3                                     ",
"                        * < / z.P. X X X X X X X X X X X XP.z.( < *                                 ",
"                      X , a.b.|. X X X X X X X X X X X X X X|.{.g.s . :                             ",
"                    $ % t.c.c.n.P.}. X X X X X X X X X X X{.{. X}.v.k O e                           ",
"                  0 6 A j.j.j.j.l.v.N.}. X X X X X X X X XP.v.M.|.}.x.d $ e                         ",
"                  w 7 t.l.j.j.j.j.j.j.m..X X X X X X X|. Xn.j.l.M..XM.q.$ 9                         ",
"                9 M d g.l.l.j.j.j.j.j.v.}.|. X X X X X|.M.g.t.j.v.}.}.x., 5                         ",
"                0 M k j.j.j.j.j.j.j.j.l.M. X X|. X|.{.m.g.A w.j.j.m.}.v.d 8 e                       ",
"                e n d j.j.j.l.f.w.f.l.l.v.m.M.I.m.n.v.a.z D j.j.j.j.c.j.u 8 e                       ",
"                1 O % f.l.l.l.j.w.S / a.g.j.j.c.j.a.A k 9.j.j.j.l.j.j.t.@ O =                       ",
"                ~ a o 9.j.j.j.j.l.h.D z S D 9.D S k D h.j.j.j.j.j.j.j.Z @ s T                       ",
"              Q l.A & a a.j.l.j.j.j.c.g.D s - - k D f.j.j.j.c.c.l.j.~ J G ^ x.T                     ",
"              0.P.s.f  .x w.f.9.~ ^ w.D { /.XX+X`.Y.Y e.u.9./ q.t.Z W W.i k.I.9.                    ",
"            x r.{.M.c | ~.J a | ~./.i.p.;X7X7X7X7X6X`.P } E.!.p.J P OXE D P.P.q.f                   ",
"              Y b.M.T 2  .' Y.4X7X7X6X3X7X7X7X7X7X7X5X;X5X7X7X5X%X] E z b.P.z.Z                     ",
"              f ) ~ ] +X*X$X1X7X7X7X7X8X5X7X7X7X7X6X4X3X7X7X7X7X2XE.; ~ x.l.~ G                     ",
"                i i ].6X7X6X8X6X7X6X2XXX'.-X2X2X<X-X^.T.-X2X2X:X>X+X$Xi.g S f                       ",
"                  L *X2X<X'.Y.).oX].U.N V ..R.Q.T._ V b ..Q.R.[ (.8X6X(.&                           ",
"                  G U.).R.K 5 $ 9 n o.4.7.;.@.+.%.:.7.4.#.t 5 $ w 3.3.p 4                           ",
"                  4 q O.+.4.5.t 5 o.X.m X.o.@.&.@.o.X.M X.+.&.5 &.<.<.2.b e                         ",
"                9 %.Z.C.8.4.M + o.V.7.4.-.=.&.@.&.=.:.5.8.8.8.t 8 <.8.8.V.>.9                       ",
"              0 1.H.C.B.7.t o O =.V.B.B.B.B.B.V.V.V.B.B.8.V.S.%.= 0 <.8.V.J.>.>                     ",
"              b S.G.V.B.8.&.. $ 4.B.B.B.B.B.B.B.B.B.B.B.C.J.L.A.0  .t 8.B.Z.J.C                     ",
"              0 #.6.7.7.5.X.* 8 B.V.B.B.B.B.B.B.B.B.Z.G.K.K.K.Z.w Q.j :.B.D.L.#.*                   ",
"                = $ n N I [ H 8 =.<.5.B.8.8.B.B.C.G.H.H.H.F.A.2.q G : C #.O.B I L G                 ",
"                    p L ] H E E.} ! I N B B V V O.U ,.U U I ..U.(.` ] `.).(.XX*X3XT.p               ",
"                          ; ] %X=X=X%X#X@XoXoX`.'.OX$X&X-X1X8X6X1X| | >X,X,X2X5X5XE.;               ",
"                          2 y R ' p.W.~./.].].`.`.`.].).^.Q.Y.{ W a P Y.!./.).(.T.x z g             ",
"                          z f.s.w.~ A A Q ) R < f   & q #.@.M # k z k s y - - < - y c g :           ",
"                        < t.l.l.c.c.c.v.M.{.m.s       9 -.B.B.w 2                                   ",
"                        3 c Z Z S A A T T T Y 3       = +.B.D.V                                     ",
"                                                      9 ;.C.G.V                                     ",
"                                                    4 j V B B >                                     ",
"                                                  F ).&X$XXX$X~.4                                   ",
"                                                  4 ^.#X&X-X-XXX; :                                 ",
"                                                3 z T Y R ! W K ( y.a                               ",
"                                                y f.j.g.g.h.f.v.|. Xy.:                             ",
"                                                , 0.t.e.t.t.t.s.k.k.0.2                             ",
"                                                    i 3 i < < 3 i f                                 ",
"                                                                                                    ",
"                                                                                                    ",
"                                                                                                    ",
"                                                                                                    "
};
