/* XPM */
static char *_018edab8ccc4c0fdff204792bc9ff2faFlwFER3tr4o6iTG[] = {
/* columns rows colors chars-per-pixel */
"50 50 208 2 ",
"   c None",
".  c #2E1E18",
"X  c #2B1B27",
"o  c #381E2B",
"O  c #29262C",
"+  c #3E252F",
"@  c #2D2532",
"#  c #34253C",
"$  c #3A2D3B",
"%  c #3A323E",
"&  c #343238",
"*  c #37302D",
"=  c #0C0C0C",
"-  c #48261C",
";  c #481E31",
":  c #422C26",
">  c #4D3329",
",  c #452A38",
"<  c #522B3B",
"1  c #443436",
"2  c #653526",
"3  c #69243F",
"4  c #6A3C2F",
"5  c #48433E",
"6  c #7A4737",
"7  c #78513C",
"8  c #684E3E",
"9  c #3B2D43",
"0  c #3D3344",
"q  c #3F3048",
"w  c #572847",
"e  c #43344C",
"r  c #4B3C44",
"t  c #593448",
"y  c #4A3355",
"u  c #4B3656",
"i  c #51385E",
"p  c #452C4F",
"a  c #6B2B48",
"s  c #692A44",
"d  c #772B4A",
"f  c #6B334B",
"g  c #6C3D53",
"h  c #7A3956",
"j  c #7E2F52",
"k  c #5B3D6C",
"l  c #553964",
"z  c #623F73",
"x  c #65396A",
"c  c #3F4142",
"v  c #494B4C",
"b  c #444648",
"n  c #57474A",
"m  c #534458",
"M  c #56575A",
"N  c #4C4E52",
"B  c #665C4B",
"V  c #72594A",
"C  c #674757",
"Z  c #675859",
"A  c #75555D",
"S  c #72475A",
"D  c #7D705D",
"F  c #6F6357",
"G  c #5E426D",
"H  c #564562",
"J  c #5C5567",
"K  c #5F4070",
"L  c #65456C",
"P  c #624173",
"I  c #68457A",
"U  c #695B78",
"Y  c #6C5C6B",
"T  c #65676A",
"R  c #72666C",
"E  c #6B6B75",
"W  c #6C7173",
"Q  c #71747A",
"!  c #73797D",
"~  c #7C7B79",
"^  c #756C74",
"/  c #844831",
"(  c #914B31",
")  c #A24D34",
"_  c #BA5B3C",
"`  c #842F51",
"'  c #892F53",
"]  c #843455",
"[  c #95345A",
"{  c #97355C",
"}  c #9B3760",
"|  c #A53762",
" . c #B53D6B",
".. c #B93E6D",
"X. c #805E48",
"o. c #856858",
"O. c #86745F",
"+. c #986D54",
"@. c #A67A5D",
"#. c #9D4470",
"$. c #BD4475",
"%. c #A64573",
"&. c #8D7A66",
"*. c #957163",
"=. c #CA6A42",
"-. c #CA7844",
";. c #D97848",
":. c #C84478",
">. c #D4497F",
",. c #93836C",
"<. c #A5856C",
"1. c #A29075",
"2. c #BA9373",
"3. c #E8894E",
"4. c #ED9250",
"5. c #C99773",
"6. c #CFA07D",
"7. c #6F4B82",
"8. c #6C4580",
"9. c #754C8A",
"0. c #784E8E",
"q. c #79528D",
"w. c #7D5194",
"e. c #794F91",
"r. c #777C81",
"t. c #83549B",
"y. c #835C98",
"u. c #BB5387",
"i. c #8A689C",
"p. c #89768E",
"a. c #8B5CA3",
"s. c #8C5AA6",
"d. c #935EAD",
"f. c #9462AD",
"g. c #9568AD",
"h. c #9062A7",
"j. c #9661B1",
"k. c #9C6BB5",
"l. c #9865B2",
"z. c #9E75B4",
"x. c #9873AD",
"c. c #A273BC",
"v. c #A57ABC",
"b. c #D64981",
"n. c #D94B83",
"m. c #D94F88",
"M. c #DD538E",
"N. c #D85B96",
"B. c #CF5087",
"V. c #E15A96",
"C. c #DB619E",
"Z. c #E3609E",
"A. c #E76AAB",
"S. c #EE73B7",
"D. c #EB6FB2",
"F. c #A97AC2",
"G. c #7C8185",
"H. c #7E858B",
"J. c #8A8789",
"K. c #888C93",
"L. c #8D9196",
"P. c #94969A",
"I. c #B89F81",
"U. c #BAA584",
"Y. c #979CA3",
"T. c #9BA2A9",
"R. c #9DA1A6",
"E. c #ACB3B8",
"W. c #B5B6B7",
"Q. c #AAADB1",
"!. c #D0B18E",
"~. c #E7BE99",
"^. c #E7B189",
"/. c #C3B2AD",
"(. c #F0CA9E",
"). c #D6C1B1",
"_. c #ECC9A2",
"`. c #F1CBA2",
"'. c #F4D3A9",
"]. c #F7D5AA",
"[. c #AE83C5",
"{. c #B186C8",
"}. c #B289C9",
"|. c #B187C7",
" X c #BB9ACD",
".X c #B6BEC4",
"XX c #CBAFD9",
"oX c #BBC5CB",
"OX c #BAC4CA",
"+X c #C1C8CC",
"@X c #C7CACB",
"#X c #C4CED4",
"$X c #CAD3D8",
"%X c #D1D5D8",
"&X c #D2DDE4",
"*X c #D5DFE7",
"=X c #D5E0E7",
"-X c #D6E1E9",
";X c #DDE5EB",
":X c #DDE4E9",
">X c #E7EBEC",
",X c #E7EDF1",
"<X c #E9EFF3",
"1X c #ECF1F4",
"2X c #F1F3F4",
"3X c #F5F9FA",
"4X c #FDFEFE",
"5X c #F1F6F9",
/* pixels */
"                                                                                                    ",
"                                                                                                    ",
"                                                                                                    ",
"                                                  0 u u u e %                                       ",
"                                            O u 7.a.g.k.x.a.q.l 0                                   ",
"                                      1 d a p f.[.|.}.|.}.}.[.z.q.y                                 ",
"                                    % { N.j I c.[.|.|.}.}.}.}.}.{.h.i                               ",
"                                  O : V.A.s w.j.l.z.[.[.[.{.[.F.k.s.9.#                             ",
"                                e y d V.C.w t.d.j.d.l.k.k.l.q.K H J E Q T b                         ",
"                              % P P ' V.N.w t.d.d.j.f.w.P H E T.+X:X2X3X<Xr.                        ",
"                              i d.z ` n.m.a 0.j.d.w.k J L.#X,X5X3X3X3X4X3XE.b                       ",
"                            0 9.j.I ` n.b.` z t.k J Y.$X1X,X;X;X-X%X.XR.J.Z 1                       ",
"                            0 q.d.8.a b.b. .p m L.oX-X*X-X&X$X.X~ Z 7 / ) -.-.6 1                   ",
"                              y l 9.w $.b.b.3 Q #X$X&X*X$XY.R B > ) =./ =.3.4.3.6                   ",
"                                @ 9.l [ b.} y u 7.r.L.P.F o.5.@.. - > 2 _ ( ;.4.6                   ",
"                              T ! G l ; d x t.d.j.d.9.r @.~.~.D J.P.* 6 7 2 =.) >                   ",
"                            ! &X5X+Xb r # t.k.F.}.}.v.t.S !.B ~ 2XW.B +.X.- 4 1                     ",
"                        v T K.<X4X3X+XoXY.J i.}.}.}.}.c.0.*.,.W.%XQ M <.2.5                         ",
"                  & e 9 ! OXH.*X3X4X4X4X4X+XJ v.}.}.}.F.t.A I.@XW.= B ].1.                          ",
"                e k z l v E M G.P.Q.%X2X4X3XK.i.}.}.{.k.s.A !.)./.v !.'.D                           ",
"                P j.8.@ r.oXT.< [ ' h R Q.2XP.L w.g.k.d.t.o.(.`._._.`.'.D                           ",
"                k k p 9 OX-X#Xg n.M.b...` R L.R.T.Y 0.d.L <.].].'.`.'.].U.5                         ",
"                X l s.l T.*X;XR %.D.A.V.>.| C @X4XOXi L *.`.]._.,.,.'.'.,.                          ",
"                # t.j.0.J #X5X@Xn d h #.B.n. .C %X:Xv 8 6.].].U.  T &.O.5                           ",
"                0 q.f.d.K Q >X>XW   , 3 3 | >.{ R %XOXL.o.^.'.1.    M                               ",
"                  u f.F.f.G M Q v , { >. .3 ` [ r OX,X1XJ.V O.B                                     ",
"                  % I i.k H @     ' >.>.>.:.[ d j S p.%X=XM                                         ",
"                                a :.n.>.>.>.n.n.b.:.3 T r.N                                         ",
"                              < :.>.>.>.b.b.b.n.n.:.<                                               ",
"                            M t :.>.n.>.>.>.>.>.n.{                                                 ",
"                          M OXK.s $.n.m.n.m.M.V.N.f                                                 ",
"                          N Q.&XT.C { N.D.D.S.S.u.1                                                 ",
"                            N T.&X+XJ.S #.N.A.D.]                                                   ",
"                              b ! OX;X#XK.Z S ] ,                                                   ",
"                                  & ^ OX,X<X%XK.&         9 y y %                                   ",
"                                    X t Y P.Q.R X c     m i. Xz.7.%                                 ",
"                                      s | [ h o n OXr.9 y.i.p.x.q.$                                 ",
"                                        ` >.A.] 1 L.r.# i L G y #                                   ",
"                                        , { :.C P.L.O i z.XX Xf.e                                   ",
"                                          , m E.1X.Xe k.}.}.}.y.e                                   ",
"                                          b .X;XoXJ 7.c.[.[.i.e                                     ",
"                                            r.L.J I d.j.g.P 0                                       ",
"                                            @ l w.j.d.9.u                                           ",
"                                              P d.t.k 0                                             ",
"                                              0 i q                                                 ",
"                                                                                                    ",
"                                                                                                    ",
"                                                                                                    ",
"                                                                                                    ",
"                                                                                                    "
};
