/* XPM */
static char *_a770ad547a841ad98bea110f3350fa1HjITDIRe5neQLOxD[] = {
/* columns rows colors chars-per-pixel */
"50 50 203 2 ",
"   c None",
".  c #1A151D",
"X  c #1E0D18",
"o  c #27131E",
"O  c #32121F",
"+  c #261C28",
"@  c #381928",
"#  c #2A2429",
"$  c #37252C",
"%  c #2C2432",
"&  c #342B35",
"*  c #33243B",
"=  c #352D3A",
"-  c #392F3C",
";  c #3D2833",
":  c #353436",
">  c #343439",
",  c #39383C",
"<  c #431C2B",
"1  c #431628",
"2  c #551D35",
"3  c #5A1E36",
"4  c #431B30",
"5  c #432531",
"6  c #4A2333",
"7  c #422B33",
"8  c #4C2D3A",
"9  c #592439",
"0  c #46373D",
"q  c #65233C",
"w  c #3A2942",
"e  c #3E3244",
"r  c #3C3C42",
"t  c #452647",
"y  c #403347",
"u  c #43344B",
"i  c #443A4C",
"p  c #5E3A4C",
"a  c #4A2E55",
"s  c #493353",
"d  c #4B3B56",
"f  c #4C325B",
"g  c #4E3A5A",
"h  c #523C5E",
"j  c #50365E",
"k  c #5F2B40",
"l  c #682A43",
"z  c #722744",
"x  c #752A47",
"c  c #7B3955",
"v  c #713951",
"b  c #553B63",
"n  c #5A3A6A",
"m  c #553762",
"M  c #5F3E71",
"N  c #613E73",
"B  c #434447",
"V  c #4A4D51",
"C  c #4B4255",
"Z  c #4D5052",
"A  c #56575B",
"S  c #534D5D",
"D  c #654B5A",
"F  c #7A425A",
"G  c #75485D",
"H  c #5D426C",
"J  c #584765",
"K  c #5A5864",
"L  c #5F4170",
"P  c #65586B",
"I  c #735968",
"U  c #644575",
"Y  c #69447C",
"T  c #684879",
"R  c #655C72",
"E  c #6B5179",
"W  c #6B4B69",
"Q  c #5E6264",
"!  c #63656A",
"~  c #6B666D",
"^  c #6C6A79",
"/  c #6B6877",
"(  c #776B75",
")  c #6E7376",
"_  c #73757B",
"`  c #73797C",
"'  c #882E52",
"]  c #843354",
"[  c #8F3055",
"{  c #8C3659",
"}  c #8B395A",
"|  c #833B5A",
" . c #933559",
".. c #93385C",
"X. c #97345B",
"o. c #832D4E",
"O. c #9F3760",
"+. c #9B3960",
"@. c #913D62",
"#. c #883B62",
"$. c #A83A65",
"%. c #B43D6C",
"&. c #BA3E6E",
"*. c #894364",
"=. c #98426A",
"-. c #BF4172",
";. c #B84C7F",
":. c #AC4676",
">. c #CB457A",
",. c #C44375",
"<. c #D4487F",
"1. c #6D4681",
"2. c #6E4D81",
"3. c #724B86",
"4. c #754C8A",
"5. c #784F8E",
"6. c #7A538E",
"7. c #755187",
"8. c #7B4F92",
"9. c #7D5194",
"0. c #7F5891",
"q. c #787B82",
"w. c #805396",
"e. c #83549B",
"r. c #865C9C",
"t. c #BB4E81",
"y. c #89649D",
"u. c #8B5BA5",
"i. c #8F5CA9",
"p. c #8858A1",
"a. c #935FAD",
"s. c #8D66A1",
"d. c #9461AE",
"f. c #9369A8",
"g. c #9561B0",
"h. c #9B6AB4",
"j. c #9865B3",
"k. c #9F72B6",
"l. c #A275BB",
"z. c #A679BE",
"x. c #A87BBF",
"c. c #D64981",
"v. c #D94B82",
"b. c #DC528B",
"n. c #D95B96",
"m. c #CA578F",
"M. c #E05C98",
"N. c #E1528E",
"B. c #E4609E",
"V. c #DC63A2",
"C. c #EA6CAE",
"Z. c #E666A5",
"A. c #ED72B5",
"S. c #AA7DC2",
"D. c #A779C0",
"F. c #7A8287",
"G. c #82848B",
"H. c #8A8A8E",
"J. c #8A8C91",
"K. c #93969C",
"L. c #97979B",
"P. c #908E93",
"I. c #949AA1",
"U. c #9EA3A6",
"Y. c #9EA5AA",
"T. c #97A1A5",
"R. c #A4A9AE",
"E. c #A3A5AA",
"W. c #A2AAB1",
"Q. c #A8AEB3",
"!. c #ADB1B5",
"~. c #ACB4BA",
"^. c #ABB4BB",
"/. c #B3BABE",
"(. c #AE83C5",
"). c #B086C7",
"_. c #B186C8",
"`. c #B289C9",
"'. c #B488CB",
"]. c #B9BFC3",
"[. c #B1BAC2",
"{. c #AFB9C0",
"}. c #B8C3C9",
"|. c #C1C8CB",
" X c #C4CDD3",
".X c #C9CFD2",
"XX c #CCD6DB",
"oX c #C4D0D8",
"OX c #D5DBDE",
"+X c #D1D7DA",
"@X c #D4DDE3",
"#X c #D9DFE3",
"$X c #DAE4EB",
"%X c #DAE1E5",
"&X c #DEE8F0",
"*X c #E2E8EB",
"=X c #E2E7E9",
"-X c #E8EFF2",
";X c #ECF1F4",
":X c #F1F5F6",
">X c #F3F6F8",
",X c #F5F8FA",
"<X c #FDFEFE",
/* pixels */
"                                                                                                    ",
"                                                                                                    ",
"                                                                                                    ",
"                                                                                                    ",
"                                                y i g h b d u e                                     ",
"                                          e h T y.f.k.z.l.k.f.r.2.b e                               ",
"                                      # s 9.k.(.`.`.`.`.`.'.'.`.).z.u.H &                           ",
"                                    . f s.S.`.`.`.`.`.`.`.`.`.`.`.`.).D.5.+ +                       ",
"                                  @ w p.g.k.S.(.`.`.`.`.`.`.`.`.`.).).`.(.0.+ $                     ",
"                                8 4 1.g.a.g.g.h.D.`.`.`.`.`.`.`.`.(.h.z.`.D.Y @ 7                   ",
"                                9 t p.a.a.g.a.i.g.S.`.`.`.`.`.`.`.z.g.g.S.`.h.t <                   ",
"                              0 q a a.a.a.a.a.a.a.l.`.`.`.`.`.`.(.j.9.i.h.`.D.n < 0                 ",
"                              ; q j a.a.i.g.i.g.g.j.(._.`.`.(.S.j.1.1.a.a.l.S.Y 9 8                 ",
"                              $ 3 f a.a.a.i.4.p.g.g.h.l.l.l.h.i.M n p.a.g.g.j.N @ 6                 ",
"                              - o * a.a.g.a.9.n N 9.i.g.g.u.1.f M i.a.a.a.a.a.w X ;                 ",
"                              U a X 8.a.a.g.g.u.1.j m n m f m 9.a.g.a.a.a.a.4.% w Y                 ",
"                            J d.Y , d e.g.a.a.a.g.a.e.3.4.e.a.a.a.a.a.a.a.8.C Q b j.U               ",
"                            U l.f.C q.d 8.a.a.a.a.a.a.u.u.u.a.a.a.g.a.a.3.C K.S 0.(.2.              ",
"                            J k.(.L q.Y.K N 8.u.a.8.U R R K U 9.a.u.3.b ^ |.J.g z.z.U               ",
"                            u 0.l.f.d I.^.B i P H R ].%X*X%X!.J f u > Z Q.U.s u.D.r.g               ",
"                              d 9.p.Y w V L.OXOX!..X<X<X<X<X<X/.J.|.OX].q.e 9.a.e.h                 ",
"                                e C _ _ H.>X<X<X<X<X<X<X<X<X<X,X,X<X<X<X@XR Y U d                   ",
"                                B Y.,X<X>X<X<X<X:X@X-X:X:X:X-XoX@X,X,X>X#XI.! ,                     ",
"                                A oX:X-X XOX$X%X~.~ J.}. X}.K.D ( }. X^. X-X=X!                     ",
"                                Z }.XXR.B B P I c %.X.F G F  .-.+.v p 7 _ /.U.Z                     ",
"                                  V Q V   @ 1 2 ' $.%.%.&.&.$.X.' x @ 4 0                           ",
"                                        7 ] z x %.O.[ ' o.] [ $.%.,.q [ ] 5 % w & u T u             ",
"                                      7  .>.3 %.c.c.c.c.<.<.<.v.c.v. .z <.X.@ = u 1.h.d             ",
"                                    7 $.v.%.3 >.c.c.c.c.<.v.<.v.c.c.-.3 -.b.t.p ) S 3.4.=           ",
"                                  7 =.n.v.[ z v.c.c.c.c.<.v.<.v.c.c.<.q X.v.M.m.p F.d Y -           ",
"                                  | C.b.c.x [ v.c.c.c.c.c.c.c.c.v.c.b.[ 3 >.v.Z.=.A r *             ",
"                              Z ; ;.Z.v.-.1 %.c.c.c.c.c.c.c.c.c.v.n.C.;.o l %.v...# >               ",
"                            ~ .XR.W ] $.3 O ,.v.c.c.c.c.v.<.v.b.Z.A.A.n.9   8 l ;                   ",
"                          > U.<X,X@XQ.G., O %.>.c.c.v.c.v.b.B.C.C.C.V.t.6                           ",
"                            V Q.@X@X&XXXA _ I G c | } } } @.=.*.*.c I ( P.Z                         ",
"                          > m w K q.I.G.V }.XXoX}.^.^.W.E.R.~./.}.+X=X;X%XA                         ",
"                          = Y f 3.w w f a r ` G.I.W.!.~.[.[./.~.!.E.P.q.!                           ",
"                            f 3.h.r.N f %     5 } } v & B   , 8 } ..c #                             ",
"                              J E U b d       x v.N.t.;       l v.b.m.8                             ",
"                                            : k +.:.#.$       6 $.$.=.;                             ",
"                                            q.Q.L.L.H.Z       ! P.L.E.Q.A                           ",
"                                          % T.@X$X$X-X)     , R.#X$X$X@X! #                         ",
"                                        h Y J R / ^ / i :   * J ^ ^ / K H E u                       ",
"                                      u p.g.i.e.w.w.f.k.s # 1.p.w.e.e.i.D.'.6.>                     ",
"                                      s 5.9.9.w.e.r.s.y.u + M 9.8.9.w.w.s.s.7.-                     ",
"                                          - e i u y e         = t u i i e -                         ",
"                                                                                                    ",
"                                                                                                    ",
"                                                                                                    ",
"                                                                                                    "
};
