/* XPM */
static char *f3cd3e26b32a4977c4d27f363024e164py6m8ClTnl3KiwDT[] = {
/* columns rows colors chars-per-pixel */
"50 50 217 2 ",
"   c None",
".  c #120D13",
"X  c #2C1C28",
"o  c #371524",
"O  c #3A1D32",
"+  c #2B262A",
"@  c #312626",
"#  c #2E2732",
"$  c #312C35",
"%  c #362D3A",
"&  c #352738",
"*  c #333334",
"=  c #36313B",
"-  c #3A333D",
";  c #3B3B3C",
":  c #240F18",
">  c #581E36",
",  c #4C1C30",
"<  c #473128",
"1  c #49253A",
"2  c #59253B",
"3  c #453835",
"4  c #542F2B",
"5  c #653326",
"6  c #61213B",
"7  c #743827",
"8  c #55473C",
"9  c #784C36",
"0  c #3B2D43",
"q  c #3D3243",
"w  c #3C3C41",
"e  c #442947",
"r  c #43324C",
"t  c #4C3943",
"y  c #492D53",
"u  c #4A3454",
"i  c #4B3857",
"p  c #50385C",
"a  c #593144",
"s  c #6B2945",
"d  c #772A49",
"f  c #6C3851",
"g  c #793552",
"h  c #72314D",
"j  c #553A64",
"k  c #5C3B66",
"l  c #5C3D6C",
"z  c #573766",
"x  c #613E72",
"c  c #643C6E",
"v  c #3F4041",
"b  c #474749",
"n  c #4B4753",
"m  c #51485D",
"M  c #535459",
"N  c #57585A",
"B  c #53474F",
"V  c #6B5B4C",
"C  c #674556",
"Z  c #655D5A",
"A  c #755551",
"S  c #754E4C",
"D  c #6A6157",
"F  c #766956",
"G  c #6D604E",
"H  c #5B4469",
"J  c #5B5D63",
"K  c #5D5869",
"L  c #665D67",
"P  c #715665",
"I  c #634275",
"U  c #69447C",
"Y  c #6C4A7B",
"T  c #654477",
"R  c #695B76",
"E  c #6E4A65",
"W  c #5D6163",
"Q  c #666569",
"!  c #786967",
"~  c #6B6A74",
"^  c #6E7377",
"/  c #77777A",
"(  c #796B70",
")  c #905236",
"_  c #AB5839",
"`  c #BE663D",
"'  c #822B4D",
"]  c #8A2F52",
"[  c #893557",
"{  c #98335B",
"}  c #A1375F",
"|  c #993B64",
" . c #A53964",
".. c #B33D6B",
"X. c #86665B",
"o. c #926B54",
"O. c #B9406F",
"+. c #B94778",
"@. c #A94878",
"#. c #857470",
"$. c #9B4570",
"%. c #CB6641",
"&. c #DD7348",
"*. c #C44275",
"=. c #CC467A",
"-. c #C7467A",
";. c #D4487E",
":. c #D0477D",
">. c #98856B",
",. c #9A8271",
"<. c #AB9174",
"1. c #B08A6B",
"2. c #EE9451",
"3. c #EA8D4F",
"4. c #CAA17E",
"5. c #C99672",
"6. c #6E4783",
"7. c #754C8B",
"8. c #794D8F",
"9. c #714B83",
"0. c #765489",
"q. c #7E5295",
"w. c #7F5398",
"e. c #7C4F96",
"r. c #7A7B84",
"t. c #726580",
"y. c #805397",
"u. c #84559C",
"i. c #845B9A",
"p. c #BF5388",
"a. c #BC5C92",
"s. c #867092",
"d. c #8B5BA4",
"f. c #8D5BA7",
"g. c #925EAD",
"h. c #9461AE",
"j. c #9668AE",
"k. c #9561B0",
"l. c #9B6BB5",
"z. c #9A68B4",
"x. c #976FAD",
"c. c #A374BB",
"v. c #A67ABE",
"b. c #A87BBF",
"n. c #A06FB9",
"m. c #D64981",
"M. c #D94B83",
"N. c #DC4F89",
"B. c #DA528B",
"V. c #D65E9A",
"C. c #C8568D",
"Z. c #E35A98",
"A. c #D6609D",
"S. c #DA63A1",
"D. c #E666A6",
"F. c #ED6EB2",
"G. c #E971B4",
"H. c #AA7DC2",
"J. c #A779C0",
"K. c #7C8287",
"L. c #84898D",
"P. c #8A8D93",
"I. c #8D949A",
"U. c #949599",
"Y. c #BAA183",
"T. c #979CA2",
"R. c #9E80AD",
"E. c #9DA4A9",
"W. c #A4A7A9",
"Q. c #A4ADB3",
"!. c #A9B1B7",
"~. c #B3B8BB",
"^. c #A29992",
"/. c #DABA96",
"(. c #CFAA85",
"). c #E3AF88",
"_. c #DCC09B",
"`. c #EAC59D",
"'. c #E9CAA4",
"]. c #F5D4AA",
"[. c #F8D6AB",
"{. c #FBD9AE",
"}. c #F4CCA2",
"|. c #AE83C5",
" X c #B187C8",
".X c #B289C9",
"XX c #B087C7",
"oX c #BD99D0",
"OX c #BD98CF",
"+X c #B3BDC3",
"@X c #B8BEC2",
"#X c #AFB9C0",
"$X c #CDB2DB",
"%X c #BAC3C9",
"&X c #BFCAD2",
"*X c #C3C9CD",
"=X c #C3CDD3",
"-X c #CBCED1",
";X c #CAD4DB",
":X c #C7D2DB",
">X c #D5D8DA",
",X c #D1CDC9",
"<X c #CEDAE2",
"1X c #D2DDE4",
"2X c #D4DFE8",
"3X c #D5E0E9",
"4X c #DCE5EB",
"5X c #DBE2E7",
"6X c #E3E9ED",
"7X c #E4E7E9",
"8X c #E7EEF2",
"9X c #EEF2F5",
"0X c #EEF4F8",
"qX c #F2F5F6",
"wX c #F3F6F9",
"eX c #F7FAFC",
"rX c #FCFDFD",
/* pixels */
"                                                                                                    ",
"                                                                                                    ",
"                                                                                                    ",
"                                                                                                    ",
"                                                  q u z I I I H p r -                               ",
"                                              0 H q.j.c.v.H.H.J.c.j.0.j q                           ",
"                                          @ u i.v.|. X.X.X.X.X.XXXXXH.k.8.0 +                       ",
"                                      1 d & u.H..X.X.X.X.X.X.X X|.l.q.I H K / P.N                   ",
"                                    a +...1 f.l.n.c.H.|.b.b.H.z.7.j K U.=X8XeXeX&XN                 ",
"                                  o  .F.C.e d.g.g.g.g.z.z.g.7.p ~ !.7XwXrXrXrXqX:XQ +               ",
"                                % o +.F.V.> 8.k.g.k.g.g.y.j J !.8XwX9X8X6X>XQ.( S ) _ 9 <           ",
"                              ; j e ..D.D.d z g.g.g.g.U m I.5XqX6X2X2X:XI.Z 9 7 ` 2.2.2.` <         ",
"                              r d.y | M.B.O.1 w.h.d.j Q +X4X6X3X1X;XI.3 5 _ 9 5 &.` %.2.&.5         ",
"                            = T g.x s ;.m.m.] y 7.p L.;X2X1X2X<X!.D 8 < 9 9 < 5 ) 4 _ 3.) <         ",
"                            q y.g.d.1 ..m.m.m.d + I.<X;X=X1X=Xr.V 1.).1.F ^.#.o.o.4 7 5 3           ",
"                            q 8.g.e.l 6 =.m.m...2 n R t.R r.M A 4.`.4.D ,X7X^.>.5.1.3               ",
"                              r l y d.y d m.=.' l 6.f.j.j.d.7.E X./.G D qX~.P.D /.}.V               ",
"                                  # e.f.e 6 s x g.l.|..XXX|.v.h.Y X.4./ qXW.. @ _.].G               ",
"                                    x d.i M O d.k.H..X.X.X.XXXv.g.k <.Y.,X,XB F ].].F               ",
"                                  * 0 0 ~ E.p 8.y.c..X.X.X.XXXv.k.0.A `._.'./.`.].[._.F             ",
"                                b K.%X@XL.K.K.I.r.R R |..XXX|.l.g.e.S `.[.[.[.].].[.[.>.            ",
"                                r.4XrXrX6X>XqXeXqX1XL.H n.l.h.g.h.T X.`.].{.'.>.'.{.`.V             ",
"                                ^ =XqXeXrXrXrXrXrXrX6X~ H R R H Y C (.[.[.[.].<.>./.#.;             ",
"                                  L.1X4X0XeXrXeXwXrXrX~.T.>X5X%XN o.4._.[.[.{.'.>.* 8               ",
"                                  N K.~.=X-X~.=X4X9XrXqXeXwXwXrX+XQ / D <.(.<.F 8                   ",
"                                      * t E [ R !.;X3X4X4X1X;X1X<X<XqX>XU.N *                       ",
"                                  b + , 6 ' ] 6 X C Q ( #.#.t Q !.%X@X5X9XE.;                       ",
"                              b K.!.L s =.*.*.' 6 *.] , ..*.d o s g b #.Q ; ; - $                   ",
"                              W <X3X&X^ f { ..> ..m.=.6  .M.N.{ 2 ' @ N ~ ^ = T 9.I R i             ",
"                            = q E.1X3X<XQ./ 3 > :.m.m. .> ..N.S.C.g o Q 9XeXE.i h.v.H.Y =           ",
"                            u x q ~ !.:X<X<XH } m.m.m.m.{ > ..N.D.G.C.B 5X9X<Xm 7.k.k.7.q           ",
"                          0 x 6.z X # K r.Q 2 =.m.m.m.m.m.{ >  .;.B.m.a *X5X<X/ x k.k.y.q           ",
"                          r f.g.w.y z 7.x . d M.M.m.m.m.m.m...f d |  .p :X3X3XK.l g.d.l =           ",
"                          % U f.d.j l 7.z # s ..=.M.M.B.Z.D.G.G.a.g : N &X:X%Xb q j y               ",
"                            - u I w.y # q !.T.L C g | +.C.A.S.S.V.| X   N W n                       ",
"                                = r =   b E.<X<X%XW.P.s.( P P A P L b                               ",
"                                          b N P.!.&X3X5X4X6X7X6X9X*Xn                               ",
"                                    b b   1 2 [ g C b ~ ^ K.P.I.L.b                                 ",
"                            = r # ~ %XE.1 O.B.B.-.h @     @ d  .@.s             0 0 -               ",
"                          $ I f.j K.3X5XQ | V.$.2           6 -.Z.C.1 *     r Y R.x.0.u             ",
"                          # y.k.8.n &X8X%Xt 2                 2 [ C / !.W & i..X$XOXH.U $           ",
"                          % 6.k.g.l J @X%Xn                   M E.-X4X8X/ z |..XXXXXi.0             ",
"                            i g.g.g.T H m - -                 ^ >X;X!.r.i u.c.H.b.0.0               ",
"                            % 6.g.g.c.b.H.n.0.r               ; M K H T d.k.h.f.I %                 ",
"                              0 8.h.H..X.XOX$Xi.0               0 w.g.h.h.d.T r                     ",
"                                0 I f.v.XX.XOXf.q               0 l q.9.k r                         ",
"                                  $ q l 0.i.i.j                     %                               ",
"                                        = r r                                                       ",
"                                                                                                    ",
"                                                                                                    "
};
