/* XPM */
static char *_e3f71d26ef34b8fefe1f95e238974aeGgKqiZeg5RVw9J1d[] = {
/* columns rows colors chars-per-pixel */
"50 50 200 2 ",
"   c None",
".  c #1A151B",
"X  c #17121B",
"o  c #1D0F1C",
"O  c #32121E",
"+  c #201D1F",
"@  c #281927",
"#  c #391826",
"$  c #341C34",
"%  c #2F1D31",
"&  c #242226",
"*  c #2C2528",
"=  c #3A262D",
"-  c #2E2C34",
";  c #322C34",
":  c #392D3E",
">  c #372938",
",  c #38353B",
"<  c #461D2E",
"1  c #48182B",
"2  c #4E1E34",
"3  c #5E1E38",
"4  c #462635",
"5  c #58263A",
"6  c #42353E",
"7  c #44232F",
"8  c #63223B",
"9  c #63293F",
"0  c #3C2C43",
"q  c #3D2A49",
"w  c #392644",
"e  c #3C3243",
"r  c #3B3D41",
"t  c #412B4A",
"y  c #492646",
"u  c #572A45",
"i  c #42324C",
"p  c #4A3644",
"a  c #593445",
"s  c #492F56",
"d  c #452C52",
"f  c #463251",
"g  c #4A3455",
"h  c #4B3B56",
"j  c #4D335B",
"k  c #4B3A56",
"l  c #513A5D",
"z  c #6E2642",
"x  c #6D2A45",
"c  c #6F2F49",
"v  c #762947",
"b  c #7B2B4A",
"n  c #752846",
"m  c #67364D",
"M  c #783753",
"N  c #763551",
"B  c #543C62",
"V  c #5C3B6D",
"C  c #583765",
"Z  c #5F3E70",
"A  c #424245",
"S  c #4C4B4E",
"D  c #44464A",
"F  c #4B4C51",
"G  c #4E4359",
"H  c #51425C",
"J  c #534B5E",
"K  c #4E5154",
"L  c #56565B",
"P  c #674858",
"I  c #63525E",
"U  c #5B446A",
"Y  c #5B5D62",
"T  c #5C5368",
"R  c #60446E",
"E  c #675661",
"W  c #624374",
"Q  c #654278",
"!  c #6A467D",
"~  c #69497B",
"^  c #5F6267",
"/  c #63696C",
"(  c #65666B",
")  c #6B6772",
"_  c #676972",
"`  c #6D7177",
"'  c #72767C",
"]  c #73797D",
"[  c #736A72",
"{  c #812C4D",
"}  c #882F52",
"|  c #833454",
" . c #88375A",
".. c #933459",
"X. c #9B355D",
"o. c #9C3861",
"O. c #A33862",
"+. c #AD3B68",
"@. c #B43D6B",
"#. c #924168",
"$. c #984169",
"%. c #A84674",
"&. c #BD4071",
"*. c #BE4C7E",
"=. c #BC406F",
"-. c #C54375",
";. c #CB4579",
":. c #C6467A",
">. c #D5487F",
",. c #D0477D",
"<. c #6E4682",
"1. c #6E4981",
"2. c #714B85",
"3. c #764C8B",
"4. c #794D8E",
"5. c #78538A",
"6. c #7B4F92",
"7. c #7D5393",
"8. c #7F5A92",
"9. c #797A83",
"0. c #83559B",
"q. c #84599A",
"w. c #8B5BA5",
"e. c #8E5CA8",
"r. c #8857A1",
"t. c #935FAD",
"y. c #955FB0",
"u. c #8D62A3",
"i. c #8F63A9",
"p. c #9460AF",
"a. c #956AAC",
"s. c #9167A7",
"d. c #9562B0",
"f. c #9967B3",
"g. c #9B6AB4",
"h. c #9B6CB4",
"j. c #9C71B3",
"k. c #A475BC",
"l. c #A77ABE",
"z. c #A679BC",
"x. c #D64981",
"c. c #D94B83",
"v. c #DB538D",
"b. c #DA5995",
"n. c #C64B80",
"m. c #E35C9A",
"M. c #DC619E",
"N. c #E3619E",
"B. c #E96BAC",
"V. c #E568A8",
"C. c #EE71B4",
"Z. c #EE74B8",
"A. c #AA7DC2",
"S. c #798185",
"D. c #83848C",
"F. c #838B8E",
"G. c #898B91",
"H. c #8C9195",
"J. c #8E9299",
"K. c #94979C",
"L. c #969CA2",
"P. c #9CA1A5",
"I. c #9CA3A9",
"U. c #9EA8AE",
"Y. c #A4AAAE",
"T. c #A2A4A8",
"R. c #A8AFB3",
"E. c #ACB4BA",
"W. c #B4BABE",
"Q. c #AD81C5",
"!. c #AE83C5",
"~. c #B085C7",
"^. c #B186C8",
"/. c #B289C9",
"(. c #B288C8",
"). c #B188C8",
"_. c #B288C7",
"`. c #B3BCC3",
"'. c #AFBAC1",
"]. c #BCC1C5",
"[. c #B7C2C9",
"{. c #BEC9D0",
"}. c #C3CACD",
"|. c #C2C6CA",
" X c #C3CDD3",
".X c #C8D2D7",
"XX c #D4DADD",
"oX c #CEDBE2",
"OX c #D3DDE4",
"+X c #D8DFE2",
"@X c #DCE5EC",
"#X c #D9E2E7",
"$X c #E2E9EE",
"%X c #E6EDF2",
"&X c #EAEFF2",
"*X c #EDF2F5",
"=X c #F4F6F8",
"-X c #F6F9FB",
";X c #FCFDFD",
":X c #F0F4F6",
/* pixels */
"                                                                                                    ",
"                                                                                                    ",
"                                                                                                    ",
"                                                  i l W 2.5.2.~ B i :                               ",
"                                              i ~ u.k.Q.!.).!.Q.l.h.7.B :                           ",
"                                          & j w.A./././././././././.~.z.7.i &                       ",
"                                        . d t.!././././././././././././.!.s.w .                     ",
"                                      = % 0.p.h.Q.^././././././././.^.~./.~.q.$ =                   ",
"                                      1 C p.t.t.p.j.Q./././././.)././.k.k./.A.! @ 4                 ",
"                                    5 5 3.y.t.t.t.t.f.!././././.).).!.h.d.l.^.a.4 7                 ",
"                                    5 y 0.t.t.t.t.t.p.A././././.).).A.e.e.f./.A.V 1                 ",
"                                    8 y e.t.t.t.y.t.t.k././././.).Q.p.<.r.d.A.Q.~ 2 p               ",
"                                    9 y e.t.t.e.w.t.t.f.!.~.!.Q.k.f.Q Z t.y.d.k.! < 4               ",
"                                    1 > w.d.t.t.<.3.t.t.d.f.f.f.e.V C r.t.t.t.y.V # 7               ",
"                                    $ o 7.y.p.t.r.V C 3.e.t.e.2.s C e.t.t.t.t.t.q o 0               ",
"                                  U Q X V d.t.t.t.e.<.j s j s j 3.t.t.t.t.y.y.3.; t ~               ",
"                                  7.q.r i 7.d.d.p.e.y.e.0.4.7.y.y.e.d.t.t.y.0.k Y U f.U             ",
"                                H u.z.h ] k 7.d.p.d.y.y.d.e.e.y.y.t.y.t.d.7.k F.Y 7.z.~             ",
"                                h u.^.~ ` L.G 1.e.y.y.7.W U U R 6.y.y.e.<.G I.Y.k k.z.W             ",
"                                  <.A.j.k U.E.D q W <.T I.|.{.I.T Q V > - Y.XXJ 5.!.p.h             ",
"                                  h 0.g.6.G S.( K.L.) `.-X;X;X;X}.S ( H.D./ F V p.d.U               ",
"                                    l W B 0 6 .X;X;X&X=X;X;X;X;X-XOX*X;X-X{.T 0.w.W i               ",
"                                      F Y.|.].-X;X;X-X-X;X;X;X;X-X:X;X;X;X*XD.j f                   ",
"                                      H.-X;X-X;X;X;X$X{.%X&X&X&X.XR.$X=X*X#XE.H.D                   ",
"                                    S E.%X%X].}.+X.XJ.P D.W.[.I.E a L.`.T.`.:X*X`                   ",
"                                    A P.XXE.A , I P  .@.X.N m N @.&.M m < L E.I.S                   ",
"                                      A Y F   * # 3 ..+.=.-.:.-.@...b 1 # ;                         ",
"                                              c z n o.} v v v v { X.@.{ b b = ; > ; 0 U :           ",
"                                            c -.8 +.c.x.>.;.;.,.x.c.c.@.8 ;.} + : w 3.a.e           ",
"                                          x -.&.5 ;.c.x.>.x.x.x.x.x.x.;.8 @.c.o.p Y B w.B           ",
"                                        5 n.c.+.8 x.x.x.x.x.x.x.x.x.x.x.v ..x.M.o.( _ W ! ;         ",
"                                      4 %.m.c.} { c.x.x.x.x.x.x.x.x.x.x.X.z ,.v.V.m ' k k           ",
"                                      M C.v.>.z X.c.x.x.x.x.>.x.x.x.>.v.*.# O.x.m.%.S -             ",
"                                  K A  .V.c.@.1 @.x.x.x.x.x.x.x.x.x.v.C.M.7 7 X.:.| +               ",
"                                S W..X) c X.8 O -.x.x.x.c.>.>.>.c.m.C.Z.V.c   4 5 =                 ",
"                                ( &X;X$XW.S., # -.x.x.c.c.>.c.b.B.C.C.B.b.x                         ",
"                                r I.#X@X@X#X/ L P N N ..X.o.O.%.%.$. .P P [ K                       ",
"                                w q ^ L.`.R.L {. XE.I.J.G.9.9.D.H.K.Y.|.#X:X]                       ",
"                                B V j t e G t / U.{..XoXOXoXoX#X@X$X#X+X|.L.K                       ",
"                                g Z 7.6.q d q & , 6 P E E ^ _ _ L I P m =                           ",
"                                , W a.s.3.U >     c -.-.| *     = X.-.:.u                           ",
"                                    h h , t       } c.N.o.      4 %.c.N.c                           ",
"                                                ; a | #.u       * 9 .. .p ,                         ",
"                                                F.].R.T.H.D     K K.T.E.}.'                         ",
"                                              & U.#X@X%X+XL     / +X@X$X$XG.&                       ",
"                                            f V H _ 9.9._ ;   ; , ' 9.9.( H W q                     ",
"                                          q 6.d.r.4.<.<.q.8.; q 6.2.<.<.6.a.!.5.>                   ",
"                                          i e.e.y.e.d.j.!.a.& q e.e.t.t.t.z.!.s.e                   ",
"                                          : f k l B B B l f ; ; s j l B B B l f :                   ",
"                                                                                                    "
};
