/* XPM */
static char *g__1_1675771860[] = {
/* columns rows colors chars-per-pixel */
"50 50 201 2 ",
"   c None",
".  c #0E0C0F",
"X  c #26161E",
"o  c #34201C",
"O  c #361E33",
"+  c #2C1C2A",
"@  c #372B3C",
"#  c #362735",
"$  c #3A323D",
"%  c #373639",
"&  c #332A2E",
"*  c #46241A",
"=  c #551D33",
"-  c #5A1F37",
";  c #491F38",
":  c #472C24",
">  c #492537",
",  c #57263C",
"<  c #46373B",
"1  c #52372E",
"2  c #61243C",
"3  c #76392A",
"4  c #47423D",
"5  c #58473B",
"6  c #71523F",
"7  c #704330",
"8  c #3D2A46",
"9  c #3D3342",
"0  c #3F3548",
"q  c #432746",
"w  c #44354D",
"e  c #483B43",
"r  c #493454",
"t  c #4E345B",
"y  c #4A3954",
"u  c #583B59",
"i  c #583446",
"p  c #6A2642",
"a  c #762948",
"s  c #793554",
"d  c #6F344D",
"f  c #513560",
"g  c #553A64",
"h  c #5C3D6C",
"j  c #613D66",
"k  c #603F71",
"l  c #424445",
"z  c #47464B",
"x  c #595145",
"c  c #4B4853",
"v  c #545659",
"b  c #4F5254",
"n  c #665849",
"m  c #674656",
"M  c #745253",
"N  c #776758",
"B  c #5D436C",
"V  c #5A4966",
"C  c #595463",
"Z  c #5C5964",
"A  c #604269",
"S  c #665A6A",
"D  c #634475",
"F  c #6B4C7C",
"G  c #654677",
"H  c #685577",
"J  c #5D6163",
"K  c #666769",
"L  c #6A6574",
"P  c #6D7278",
"I  c #7A797A",
"U  c #746C6E",
"Y  c #843F2D",
"T  c #844633",
"R  c #924833",
"E  c #965336",
"W  c #A54E36",
"Q  c #B1583A",
"!  c #C26A3F",
"~  c #8B2F54",
"^  c #873254",
"/  c #9A365D",
"(  c #802C4E",
")  c #AB3B67",
"_  c #B43E6B",
"`  c #82735D",
"'  c #947159",
"]  c #986B53",
"[  c #BD6B40",
"{  c #98446B",
"}  c #8E4670",
"|  c #AF4575",
" . c #947D68",
".. c #A77C64",
"X. c #D47B48",
"o. c #C34375",
"O. c #CB467B",
"+. c #D5487F",
"@. c #97846B",
"#. c #A89477",
"$. c #B89676",
"%. c #B48A6B",
"&. c #D88649",
"*. c #E9844E",
"=. c #F09351",
"-. c #C2A27E",
";. c #C99472",
":. c #6F4783",
">. c #744C89",
",. c #734B87",
"<. c #77538A",
"1. c #7A4F91",
"2. c #7D5294",
"3. c #7E5B91",
"4. c #7B7E83",
"5. c #84579B",
"6. c #BF5186",
"7. c #84788B",
"8. c #816D90",
"9. c #8A5AA3",
"0. c #8E5CA9",
"q. c #8857A2",
"w. c #925FAD",
"e. c #9461AE",
"r. c #9469AA",
"t. c #9562B0",
"y. c #9B6CB4",
"u. c #9C6BB6",
"i. c #966EAC",
"p. c #A273BB",
"a. c #A57BBC",
"s. c #A06DB9",
"d. c #D64A81",
"f. c #D94A82",
"g. c #DB548E",
"h. c #D95A95",
"j. c #C3558B",
"k. c #E35D9B",
"l. c #DA629E",
"z. c #E768A9",
"x. c #EC70B4",
"c. c #A97CC1",
"v. c #7D8286",
"b. c #81858B",
"n. c #85868A",
"m. c #888B93",
"M. c #8B9297",
"N. c #91989F",
"B. c #918F91",
"V. c #A69784",
"C. c #BFA483",
"Z. c #959CA2",
"A. c #9999A2",
"S. c #9CA1A7",
"D. c #A5A9AC",
"F. c #A5ADB2",
"G. c #ABB4BA",
"H. c #AEB3B7",
"J. c #B3B6B8",
"K. c #CAB18E",
"L. c #CEAD8B",
"P. c #E5BD96",
"I. c #D9BAA5",
"U. c #DFC39C",
"Y. c #EAC69F",
"T. c #F1C89E",
"R. c #EDCCA4",
"E. c #E1C2AA",
"W. c #F5D4A9",
"Q. c #F8D6AB",
"!. c #FAD8AD",
"~. c #EED0A6",
"^. c #AE83C5",
"/. c #B186C8",
"(. c #B289C9",
"). c #B186C7",
"_. c #BA94CF",
"`. c #B3BCC3",
"'. c #C19FD4",
"]. c #CCADDB",
"[. c #BBC4CB",
"{. c #BBC5CC",
"}. c #BFC8D0",
"|. c #C4CACD",
" X c #C4CED5",
".X c #C9D3DA",
"XX c #D6DBDD",
"oX c #D4DEE5",
"OX c #DADFE2",
"+X c #CFDBE3",
"@X c #D4E0E9",
"#X c #DAE4EB",
"$X c #DAE2E7",
"%X c #E3EAEE",
"&X c #E6E8EA",
"*X c #E9EDF1",
"=X c #ECF1F4",
"-X c #F1F5F6",
";X c #F3F6F8",
":X c #F6F9FB",
">X c #FEFEFE",
/* pixels */
"                                                                                                    ",
"                                                                                                    ",
"                                                                                                    ",
"                                                                                                    ",
"                                                                                                    ",
"                                                                                                    ",
"                                                                                                    ",
"                                                                                                    ",
"                                        $ w w y t r w 9                                             ",
"                                    w D 3.0.y.y.y.y.e.3.G t $                                       ",
"                            > a 2 8 9.a.^.(.(.).(.(.(.^.c.y.<.t                                     ",
"                          i | h.p G s.a.^.(.(.(.(.(.(.(.(.c.c.9.h #                                 ",
"                      % X ) z.h.; 1.w.w.t.s.c.c.a.^.c.y.9.1.G B V e b l                             ",
"                    9 t > O.x.h.; 5.w.w.w.w.t.u.w.2.G V S v.D.{.XX%X@XZ.z                           ",
"                  $ D 1.> O.h.h.- >.t.w.t.w.5.G V L Z. X%X;X>X>X>X>X>X#XK                           ",
"                  g w.2.; d.d.f.a h t.w.2.h V n.[.%X=X*X%X#X#X+X}.F.B.I 5 :                         ",
"                # 5.w.q.q _ f.d._ q >.h C Z. X#X%X@X+X+X}.F.4.M T E R [ &.X.E :                     ",
"                @ ,.0.1.t ~ f.d.d.a # M..XoX@X@X@X+X`. .S 5 * Q ! 7 W *.X.=.=.R <                   ",
"                  w r k >.; o.f.+./ O H b.m.Z.[.Z.U ` ..;.5 o : : : W E Y *.*.T                     ",
"                      k w.f p _ s j ,.5.5.5.,.G e ..P.P.$.N J.D.% 6 ] 1 3 Q 7 <                     ",
"                      f 5.y e # :.w.y.^.).).c.u.3.m L.@.% |.&XJ.I 5 %.n &                           ",
"                  b K C 0 M.v.f 0.t.^.(.(.(.(./.s.>.M -.N =XJ.z 4 @.Y.'                             ",
"                J [.%X&XA.n.4.L G ,.^.(.(.(.(.(.p.w.u -.V.&XD.. x R.W.n                             ",
"                b.#X>X>X-XOX*X*X.XB.C i.(.).).a.u.w.A %.Y.E.P.@.K.!.Y.x                             ",
"                J [.*X;X>X>X>X>X>X;XM.B y.y.y.e.w.q.u L.Q.W.W.W.W.Q.W.#.4                           ",
"                  m..X@X-X:X:X:X>X>X Xc H H G 2.9.g ..T.Q.Q.~.-.W.!.!.#.l                           ",
"                    v n.A.S.|.#X-X>X&XJ.XX$XJ.C m ..T.Q.Q.Q.~.` K.!.K.x                             ",
"                      , ~ ^ S `.@X=X-X:X-X;X>XS.n ] $.T.!.!.Q.K.N ` x                               ",
"                          s + , L N.G.[.{. X%X XJ.J.K ' #.#.@.N 4                                   ",
"                            , a = / s < { M Z. X$X-XXXB.%                                           ",
"                          < ~ - _ f.~ 2 +.o.s m v N. XJ.b                                           ",
"                        % ^ p ~ f.+.- _ +.+.+.) >   J b                                             ",
"                        , | = o.g.j.= o.+.+.f._ #                                                   ",
"                      & / / 2 +.k.j.= O.f.g.l.| #                                                   ",
"                    l e ~ ( 2 +.z.h.= a ) j.x.{ +                                                   ",
"                    P }.m.x 2 +.k.h.i 4.A.S } s r g                                                 ",
"                    Z G.+X{.i _ ) d b.=X>XF.# O f k #                                               ",
"                      l K m.v e U G.#X%XoXL D <.+ t >.@                                             ",
"                    v K % > > 4.@X@X@X XP f w.p.,.t f $                                             ",
"                  l `.oXv.p ) m N.`.S.Z h 0.w.p.r.# &                                               ",
"              9 h w S.#X#Xn.d s % K @ :.0.t.w.1.8                                                   ",
"            % D t.2.y Z.oXXXc . v n.% 8 D :.h #                                                     ",
"              g w.t.5.g S Z D <.3.<.8 r <.8.8.u                                                     ",
"              % g 5.w.w.q.r.(.(._.].p.r 8.'.'.5.9                                                   ",
"                  y >.9.w.p.^./.(.(.c.f A i.0.F 9                                                   ",
"                    9 t h D F :.F F B @ $ y z 9                                                     ",
"                                                                                                    ",
"                                                                                                    ",
"                                                                                                    ",
"                                                                                                    "
};
