/* XPM */
static char *h__1_1675771888[] = {
/* columns rows colors chars-per-pixel */
"50 50 210 2 ",
"   c None",
".  c #1A1517",
"X  c #23181D",
"o  c #31121E",
"O  c #3F1B29",
"+  c #2A1D2F",
"@  c #29272A",
"#  c #352A28",
"$  c #37332A",
"%  c #322A34",
"&  c #3B2B32",
"*  c #352B39",
"=  c #38263A",
"-  c #333434",
";  c #3A3738",
":  c #411E16",
">  c #49271C",
",  c #451A2B",
"<  c #501E34",
"1  c #54342A",
"2  c #472938",
"3  c #5B263C",
"4  c #493734",
"5  c #4D2F27",
"6  c #6B2D31",
"7  c #53473E",
"8  c #7B4634",
"9  c #664836",
"0  c #3B2D43",
"q  c #3A2540",
"w  c #3C3243",
"e  c #3E3846",
"r  c #472846",
"t  c #5D2941",
"y  c #42324B",
"u  c #4E2E54",
"i  c #4A3654",
"p  c #4E3A58",
"a  c #493356",
"s  c #503B5D",
"d  c #552F56",
"f  c #6C2B46",
"g  c #672A43",
"h  c #752847",
"j  c #743450",
"k  c #543B62",
"l  c #5B3C6B",
"z  c #583A66",
"x  c #5F3D71",
"c  c #613F71",
"v  c #633B6B",
"b  c #3F4344",
"n  c #4A4B4D",
"m  c #474749",
"M  c #544648",
"N  c #5D5247",
"B  c #4D5153",
"V  c #565659",
"C  c #4F455B",
"Z  c #63574B",
"A  c #664959",
"S  c #744157",
"D  c #755B56",
"F  c #745E50",
"G  c #6C6358",
"H  c #77695C",
"J  c #5A4668",
"K  c #585962",
"L  c #795C6C",
"P  c #785968",
"I  c #634374",
"U  c #6A467D",
"Y  c #6B4B7C",
"T  c #654577",
"R  c #6B536D",
"E  c #64686B",
"W  c #74636E",
"Q  c #736862",
"!  c #696872",
"~  c #74767B",
"^  c #766E71",
"/  c #8F4932",
"(  c #A35136",
")  c #B45A3B",
"_  c #BA683D",
"`  c #882F51",
"'  c #873456",
"]  c #98355B",
"[  c #852C4D",
"{  c #943C62",
"}  c #8C3A61",
"|  c #A63963",
" . c #B33C6A",
".. c #BA3E6E",
"X. c #8F5D46",
"o. c #84725C",
"O. c #8C6854",
"+. c #A4795D",
"@. c #94436A",
"#. c #8C4B69",
"$. c #B74B7D",
"%. c #8F7862",
"&. c #AD7C60",
"*. c #D37246",
"=. c #C24274",
"-. c #CD477A",
";. c #D3487E",
":. c #D4477E",
">. c #98846B",
",. c #AF9173",
"<. c #D58148",
"1. c #E7894D",
"2. c #F19B53",
"3. c #CC9673",
"4. c #6D4681",
"5. c #6F4B83",
"6. c #724B86",
"7. c #784E8E",
"8. c #774D8C",
"9. c #77538A",
"0. c #7C5491",
"q. c #794E90",
"w. c #7A7D83",
"e. c #787B83",
"r. c #85569D",
"t. c #845A98",
"y. c #B95183",
"u. c #847291",
"i. c #8B5BA5",
"p. c #8B5AA5",
"a. c #925EAD",
"s. c #9464AD",
"d. c #946AAB",
"f. c #9661B1",
"g. c #9966B3",
"h. c #9C6CB5",
"j. c #976AAE",
"k. c #A375BB",
"l. c #A378BA",
"z. c #A06FB9",
"x. c #D64A81",
"c. c #D84A82",
"v. c #C9548B",
"b. c #DC538C",
"n. c #D25087",
"m. c #D85B96",
"M. c #C85992",
"N. c #E25A96",
"B. c #D963A1",
"V. c #E666A6",
"C. c #ED72B5",
"Z. c #EF71B5",
"A. c #AB7DC3",
"S. c #7C8387",
"D. c #87878D",
"F. c #898894",
"G. c #8D939A",
"H. c #8E9297",
"J. c #95989B",
"K. c #A09E9D",
"L. c #BDA686",
"P. c #979EA3",
"I. c #9A80A8",
"U. c #9DA4AB",
"Y. c #9CA3A7",
"T. c #A4A8AB",
"R. c #A5ACB2",
"E. c #ACADB0",
"W. c #AEB6BC",
"Q. c #AAB0B4",
"!. c #B3B7BA",
"~. c #D9B48D",
"^. c #D9B699",
"/. c #D5AE89",
"(. c #E2BA92",
"). c #E5B78F",
"_. c #DEC39C",
"`. c #E4C19C",
"'. c #F1C59B",
"]. c #E7C9A2",
"[. c #F6D5AA",
"{. c #F8D6AB",
"}. c #F8D7AC",
"|. c #AE82C5",
" X c #B086C7",
".X c #B389C9",
"XX c #B186C8",
"oX c #B995CC",
"OX c #B6BEC5",
"+X c #C8AAD8",
"@X c #BCC4C9",
"#X c #C5C7C8",
"$X c #C4CDD5",
"%X c #C9D3D9",
"&X c #D3DADF",
"*X c #D7D9DB",
"=X c #CDDAE2",
"-X c #D3DDE3",
";X c #D4DFE8",
":X c #D9E1E5",
">X c #DBE4EB",
",X c #D6E1E8",
"<X c #E4EBEE",
"1X c #E4E7E9",
"2X c #E4EBF1",
"3X c #EAEFF2",
"4X c #EDF2F5",
"5X c #F3F6F9",
"6X c #FCFDFD",
"7X c #F4F7F9",
/* pixels */
"                                                                                                    ",
"                                                                                                    ",
"                                                                                                    ",
"                                                w i l U 6.9.6.T k y                                 ",
"                                            * s 7.j.l.A.|. X|.A.l.s.5.p                             ",
"                                        & + I h. X.X.X.X.X.X.X.X XA.g.8.y @                         ",
"                                      g ] 2 i.A. X X X X X.X XA.i.U J ! G.W.!.~                     ",
"                                    f m.$.r i.g.g.h.k.A.h.h.i.I J D.#X3X6X6X6X*XK                   ",
"                                  X | Z.v.r p.a.a.a.a.f.p.c J H.*X5X7X7X4X<XOXD.7 1 1               ",
"                                0 q | V.V.t 4.a.a.a.a.8.k e.$X4X3X>X:X%XY.H 8 ( <.1.*./ ;           ",
"                              ; c l ` b.N.] u a.s.p.c K R.<X2X>X-X%XJ.7 / _ 8 _ 1.*.2.*.1           ",
"                              y p.4.g :.x.-.t 4.r.k ~ $X,X,X;X=XY.G 7 o ( 8 > ) / ( 1.) 5           ",
"                              l f.p.r  .x.x. .< w G.=X;X;X;X@X~ F 3.X.# N F 9 X.9 6 ( 5             ",
"                              I f.p.z h x.x.c.| 2 e.F.D.F.G.N +.).`.o.K.:XK.,.3.O.#                 ",
"                              y T l q.u ` c.x.' d T r.r.t.6.J O._.>.7 1X#XJ.Q `.`.N                 ",
"                                  = 4.p.r [ j v a.h.|. XA.A.f.6.H ,.H 1XE.X $ ].`.N                 ",
"                                    l p.i m q p.g.|..X.X.X.X|.s.c +.L.#X*X4 Q [.].N                 ",
"                                    = a w.P.l p.g. X.X.X.X.X|.h.r.A ~.^.`.^.`.[.[./.M               ",
"                                  ! e.K G.G.V R U i.|..X.X Xl.f.p.A ).}.[.}.[.[.[.[.Z               ",
"                                w.;X5X:XT.OX=X%XQ.! Y h.k.g.f.s.8.D (.}.}.].>.].}.~.7               ",
"                                P.4X6X6X6X6X6X6X6X-XR 4.5.Y 6.q.S ,.}.}.}.[.,.>.L.G                 ",
"                                E OX2X4X6X6X6X7X6X6XR.! R.W.F.M ,.3.'.{.}.[.].H $                   ",
"                                  ~ OX%X:X,X&X>X4X6X3X3X7X6X5XD.G H O.,.,.>.Z                       ",
"                                    B V L #.L W.=X2X3X3X>X:X2X$X#X:XJ.B -                           ",
"                                        h ' 3 & R %.u.D.u.Q F.#X$X*X3X&XE                           ",
"                                          2 3 ]  .$.| [ , ] { j #.j E w.n                           ",
"                                        3 | x.N.v.{ h h | ;.c.:.:.| .                               ",
"                                      f =.b.V.y.g h  .:.c.:.c.c.:.=.o +                             ",
"                                    2 =.b.C.v.O ` x.c.x.c.x.x.x.;.-.3 3 $ n V                       ",
"                                  B M ' { @.t .  .c.x.c.;.c.c.;.b.m.f @.t G.:X~ 0 J i               ",
"                                n OX$X!.T.Q.#XD.j :.c.;.;.:.;.b.V.C.' ' f $X6XT.p i.0.* y           ",
"                                B @X,X>X2X7X7XE.3 :.c.c.;.b.V.Z.C.C.@.O ^ >X>XF.+ z l 9.6.%         ",
"                                - K P.U.Y.G.~ p , {  .=.v.m.B.m.M.y.f @ @X,X%XK + x 4.p.k           ",
"                                  a T I I U 0.9.w ~ ^ L L P L W ^ D.T.K W.,XP.i k p.f.p.0           ",
"                                  z f.f.f.g.A.k ! %X=X-X,X,X>X2X3X3X!.m K ! ; y z l 5.p             ",
"                                  * U r.p.r.d.i ; A W ! ~ S.S.^ W A &                               ",
"                                      y y w w e 3 .. .,       , | =.g                               ",
"                                                ' n.$.2       2 $.N.{                               ",
"                                              2  .N.y.;       & | N.$.=                             ",
"                                              % j @.j %       n A D A M                             ",
"                                            n U.W.!.@XJ.;   m W.:X&X:X%Xm                           ",
"                                          * w ! w.Q.&XP.;   % e.R.W.R.e.w J 9.Y s *                 ",
"                                      % l t.d.l.l.R J C *   a 4.J I I U d.|..X+XoXU *               ",
"                                    % I f.A..XoX+X|.i.a.k - l f.f.a.f.f.l.XX.XoX.Xj.y               ",
"                                    % U r.d.z.l.l.j.i.t.a   y 4.6.8.7.7.0.t.0.0.5.z w               ",
"                                      * y i p p p p i y             e                               ",
"                                                                                                    ",
"                                                                                                    ",
"                                                                                                    ",
"                                                                                                    "
};
