/* XPM */
static char *i__1_1675771901[] = {
/* columns rows colors chars-per-pixel */
"50 50 211 2 ",
"   c None",
".  c #1A1A1B",
"X  c #3A271E",
"o  c #1F1820",
"O  c #381D29",
"+  c #301C30",
"@  c #2B252B",
"#  c #2D2629",
"$  c #37282B",
"%  c #2E2633",
"&  c #352836",
"*  c #343436",
"=  c #39333D",
"-  c #3B3838",
";  c #4B1C32",
":  c #432F28",
">  c #54382C",
",  c #482A37",
"<  c #5C233B",
"1  c #532639",
"2  c #453C38",
"3  c #45312C",
"4  c #65253E",
"5  c #6E3726",
"6  c #4C2217",
"7  c #53423A",
"8  c #79402E",
"9  c #664A39",
"0  c #3B2E44",
"q  c #3D2644",
"w  c #3C3642",
"e  c #422B4B",
"r  c #42344B",
"t  c #403047",
"y  c #593A49",
"u  c #463351",
"i  c #493455",
"p  c #4D345B",
"a  c #4F3C5B",
"s  c #52395C",
"d  c #692A44",
"f  c #722745",
"g  c #70344E",
"h  c #553B63",
"j  c #5C3C6C",
"k  c #573765",
"l  c #5F3D70",
"z  c #603E73",
"x  c #663764",
"c  c #454748",
"v  c #584747",
"b  c #56534F",
"n  c #4C4D51",
"m  c #514A5B",
"M  c #54565A",
"N  c #4E5154",
"B  c #675D4F",
"V  c #755749",
"C  c #634658",
"Z  c #7C445C",
"A  c #64585B",
"S  c #745759",
"D  c #6A6258",
"F  c #746353",
"G  c #584466",
"H  c #5E556A",
"J  c #5B5D64",
"K  c #66596B",
"L  c #765B68",
"P  c #644375",
"I  c #684879",
"U  c #6B5179",
"Y  c #5F6467",
"T  c #67686A",
"R  c #676672",
"E  c #77767A",
"W  c #6F6D6E",
"Q  c #8B4A32",
"!  c #985538",
"~  c #84402F",
"^  c #A85037",
"/  c #B6643D",
"(  c #C4603F",
")  c #883456",
"_  c #97355B",
"`  c #882E52",
"'  c #A1375F",
"]  c #983B63",
"[  c #A23C66",
"{  c #AC3C68",
"}  c #B33D6B",
"|  c #B93E6E",
" . c #865341",
".. c #8D6957",
"X. c #A77A5D",
"o. c #894667",
"O. c #BE4071",
"+. c #A94977",
"@. c #867966",
"#. c #957E66",
"$. c #A97E64",
"%. c #D27346",
"&. c #CD467B",
"*. c #C34275",
"=. c #D5497F",
"-. c #A79275",
";. c #BE9776",
":. c #AE8466",
">. c #9B8A73",
",. c #D68347",
"<. c #E5854C",
"1. c #EF9652",
"2. c #C49775",
"3. c #6E4882",
"4. c #724C87",
"5. c #754B8A",
"6. c #794D8E",
"7. c #76548A",
"8. c #7C5193",
"9. c #6F5181",
"0. c #786488",
"q. c #777B82",
"w. c #7F6192",
"e. c #84559C",
"r. c #835A98",
"t. c #846098",
"y. c #8D7F88",
"u. c #8B5AA5",
"i. c #8F5DAA",
"p. c #935FAD",
"a. c #955FB0",
"s. c #8D61A4",
"d. c #9461AE",
"f. c #966AAE",
"g. c #926FA5",
"h. c #9662B0",
"j. c #9B6BB5",
"k. c #9967B3",
"l. c #9E73B5",
"z. c #987BA7",
"x. c #A274BB",
"c. c #A57ABB",
"v. c #D64981",
"b. c #D94A82",
"n. c #D94F88",
"m. c #DC528C",
"M. c #CC5B94",
"N. c #DA5994",
"B. c #C5558D",
"V. c #E15A98",
"C. c #D8629F",
"Z. c #E566A5",
"A. c #EE73B7",
"S. c #F074B9",
"D. c #AA7CC2",
"F. c #A779C0",
"G. c #7E8589",
"H. c #87868B",
"J. c #898E94",
"K. c #8E9299",
"L. c #95979C",
"P. c #908D92",
"I. c #A79E91",
"U. c #BEA685",
"Y. c #999DA2",
"T. c #9E85AB",
"R. c #9DA4A9",
"E. c #A7A8AA",
"W. c #A6ACB3",
"Q. c #AAB2B7",
"!. c #B6B8BA",
"~. c #D2AA85",
"^. c #C8B08D",
"/. c #CFB28E",
"(. c #E6BC95",
"). c #D0BFB2",
"_. c #DCC099",
"`. c #E4C39E",
"'. c #F4C69B",
"]. c #EBCBA4",
"[. c #F0CBA4",
"{. c #F8D6AB",
"}. c #F7D5AA",
"|. c #AF84C6",
" X c #AF82C8",
".X c #B086C7",
"XX c #B289C9",
"oX c #B287C8",
"OX c #B3BCC3",
"+X c #B9BEC2",
"@X c #C8AAD7",
"#X c #BAC4CA",
"$X c #B9C1C6",
"%X c #C8CACD",
"&X c #C6CDD2",
"*X c #CAD4DB",
"=X c #C9D1D6",
"-X c #D5DADC",
";X c #EBDCD8",
":X c #D2DDE5",
">X c #D9DDE0",
",X c #CFDAE2",
"<X c #D6E1E9",
"1X c #DDE6EC",
"2X c #D9E1E5",
"3X c #E5E9EB",
"4X c #EAEFF3",
"5X c #E4ECF2",
"6X c #FCFDFE",
"7X c #F4F7F9",
"8X c #EFF2F2",
/* pixels */
"                                                                                                    ",
"                                                                                                    ",
"                                                                                                    ",
"                                                                                                    ",
"                                                        r i m h h h i r                             ",
"                                              , # 0 j 6.s.f.l.x.l.l.f.s.8.I p w                     ",
"                                        , g [ ` O 8.x.oXoXXXoXXXXXXXXXXX|.D.j.8.h =                 ",
"                                      $ [ Z.Z.f k a.j.c.c.oXoXoX|.XXXXXXXXXX XF.k.4.e               ",
"                                  e + 4 N.A.N.; I a.p.p.a.k.x.c.x.F.D.x.f.r.5.I H P m r N           ",
"                              = i e.q _ m.Z.M.; 3.a.p.a.p.a.a.p.e.4.P G H E J.E.+X=X-X-X&XG.w       ",
"                            = h u.i.& ' b.n.b.< l a.p.a.p.8.I G K G.W.&X1X7X7X6X6X6X6X6X6X:XJ       ",
"                            t u.p.i.e ) b.=.=._ q u.e.P G R K.OX2X4X4X5X1X1X<X:X=X#XQ.I.H.E 7 3     ",
"                            r e.u.e.k 4 =.=.=.&.< 0 H J.OX,X:X<X<X<X<X*X#XR.H.A V Q ! ~ ^ %.<.%.! > ",
"                              i i z e.O } b.b.=._ + q.W.OXOX*X:X=XQ.H.W F ..> 6 ^ X.Q 5 %.<.%.1.1.( ",
"                              c & k 8.j ; *.{ ` x k 3.5.9.9.0.q.A ..:.2.(.X.: 2 2 X 6 ~ ^ 5 ^ 1.<.^ ",
"                          c q.Q.#XW.R q & O e 6.p.k.F.D.D.F.s.5.C ..'.^.#.D !.3XE.c 9 X.9 X Q ! 5 3 ",
"                      c N J =X7X6X6X=XG.L.E K P r.|.XXXXXXXXXXc.p.j #.U.2 E.6XE.I.W 7 ;.:.*         ",
"                r w * K.#XR $X5X6X6X6X6X6X7X3XQ.J w.XXXXXXXXXX|.k.e.y ~.>.%X8Xb . 2 ^.[.-.2         ",
"          0 p j P P % G.G.N R R.Y.!.%X-X8X6X6X6X$Xm c.XXXXXX|.c.h.u.y 2.^.).;XT - I.{.].B           ",
"        * P p.u.j @ n R.#X#XM < _ o.) ) L y.!.3X>Xm U 8.t.f.j.d.a.e.v /.}.'.].`.(.}.{.].F           ",
"        = h z i k + G.<X:X1XH.d m.V.N.m.&.[ ) S H.L.OX!.Y.H 4.i.5.C $.'.{.{.}._.`.{.{.{.U.7         ",
"          o p e.i.3.m #X<X1X2XA ) M.M.N.N.V.b.O.` C !.7X7X!.w s S 2.}.}.{.`.>.b @._.].^.B           ",
"          % 8.k.a.i.l M OX4X6X2XD $ C , d ) { &.b.} d J.5X&XT A F 2.'.{.{.-.    T D B v             ",
"            p 8.h.j.h.3.m H.+XW.M   3 d { [ f f _ *.{ $ Q.:X5X8XR.V :.2.^.W -                       ",
"              u g.l.r.3.I % -     , ` &.v.v.v.| ` 4 f < C H.R.-X8X#XN 7                             ",
"                a G   =         1 { b.v.v.v.v.b.b.&.&.=.*.O.4 K R.L.N                               ",
"                              1 | v.v.v.v.v.v.v.b.b.=.v.b.| :                                       ",
"                          Y M d O.v.v.v.=.v.v.v.=.=.b.v.=.d                                         ",
"                        c #X*XK.v ) | v.m.m.m.N.V.N.Z.Z.] $                                         ",
"                        c R OX:X&XK.K g +.M.Z.S.S.S.S.M.1                                           ",
"                            n q.Q.*X:X%XP.L o.o.+.B.B.g 2                                           ",
"                                c M q.OX-X1X-X!.L.H.L @                 = 0                         ",
"                                    . $ C E R.$X-X%XE # #         i U z.T.r.3.r                     ",
"                                      = < ` _ ) o.y O , E $XE @ h t.g.T.T.l.f.k *                   ",
"                                          1 _ =.V.C.f & q.R.J.+ p j P U G p q *                     ",
"                                            , ) | o.C L.#XE . 0 r.T.@X@X|.h.j &                     ",
"                                              # C K.=X5X<Xq.0 h.|.XXXXXXc.4.0                       ",
"                                              * H.:X=XW.R s e.h.x.|.c.7.a =                         ",
"                                                * m H G 5.i.a.d.e.I p w                             ",
"                                                  & 5.h.a.u.5.k 0                                   ",
"                                                    t P j u 0                                       ",
"                                                                                                    ",
"                                                                                                    ",
"                                                                                                    ",
"                                                                                                    ",
"                                                                                                    ",
"                                                                                                    ",
"                                                                                                    ",
"                                                                                                    ",
"                                                                                                    "
};
