/* XPM */
static char *j__2_1675771914[] = {
/* columns rows colors chars-per-pixel */
"50 50 200 2 ",
"   c None",
".  c #1A0F1A",
"X  c #1A161D",
"o  c #27141F",
"O  c #1E1620",
"+  c #271D2C",
"@  c #321B24",
"#  c #37182A",
"$  c #29252C",
"%  c #2A2829",
"&  c #35272D",
"*  c #2D2632",
"=  c #332239",
"-  c #372B37",
";  c #39343C",
":  c #3A3C3E",
">  c #363639",
",  c #2E3333",
"<  c #4A1A2D",
"1  c #481B2C",
"2  c #421D35",
"3  c #5D1F37",
"4  c #41232E",
"5  c #422A35",
"6  c #4C2836",
"7  c #4C2B3A",
"8  c #452635",
"9  c #5C233B",
"0  c #562739",
"q  c #45333A",
"w  c #61213B",
"e  c #3C2C43",
"r  c #3D3242",
"t  c #3C3840",
"y  c #462849",
"u  c #403146",
"i  c #43344B",
"p  c #4D3D46",
"a  c #583544",
"s  c #482D51",
"d  c #572F55",
"f  c #463950",
"g  c #4B3B54",
"h  c #4E335C",
"j  c #4E3B5A",
"k  c #483553",
"l  c #513C5D",
"z  c #51355F",
"x  c #682A44",
"c  c #762C48",
"v  c #7F2B4C",
"b  c #69324A",
"n  c #793858",
"m  c #4F3360",
"M  c #553664",
"N  c #563B64",
"B  c #583C64",
"V  c #5B3B6B",
"C  c #5F3D70",
"Z  c #623E72",
"A  c #623B6A",
"S  c #45444B",
"D  c #464649",
"F  c #4C4954",
"G  c #534B5C",
"H  c #5F4956",
"J  c #4E5254",
"K  c #54575A",
"L  c #6A4758",
"P  c #79495F",
"I  c #5E436D",
"U  c #574464",
"Y  c #5D5767",
"T  c #615C6A",
"R  c #755364",
"E  c #745A68",
"W  c #775767",
"Q  c #634375",
"!  c #674778",
"~  c #685F75",
"^  c #665A72",
"/  c #5B6164",
"(  c #63656B",
")  c #69676C",
"_  c #78606F",
"`  c #786875",
"'  c #6C7276",
"]  c #79747D",
"[  c #6A6F73",
"{  c #852D4F",
"}  c #872E51",
"|  c #8A2F53",
" . c #89385A",
".. c #93355A",
"X. c #98365C",
"o. c #933F68",
"O. c #A13760",
"+. c #A33863",
"@. c #AD3C69",
"#. c #AC3B67",
"$. c #B43D6C",
"%. c #B93D6D",
"&. c #BF3F71",
"*. c #9F4470",
"=. c #94426B",
"-. c #A84876",
";. c #BD4071",
":. c #C34275",
">. c #CA4579",
",. c #CA4477",
"<. c #D3477D",
"1. c #D4487F",
"2. c #6E4982",
"3. c #754C8A",
"4. c #744C89",
"5. c #76528A",
"6. c #7B4F92",
"7. c #7E5294",
"8. c #777883",
"9. c #83559C",
"0. c #865C9C",
"q. c #895E9F",
"w. c #825B96",
"e. c #B44E80",
"r. c #BA5083",
"t. c #847C85",
"y. c #88659B",
"u. c #8957A1",
"i. c #8B5AA4",
"p. c #8E5CA8",
"a. c #8657A0",
"s. c #935FAD",
"d. c #955FB0",
"f. c #8C64A2",
"g. c #9460AE",
"h. c #9669AE",
"j. c #9662B0",
"k. c #9B6DB4",
"l. c #9C6BB5",
"z. c #9D72B5",
"x. c #9F70B9",
"c. c #A16EBA",
"v. c #A374BB",
"b. c #A77ABE",
"n. c #D64981",
"m. c #D84A82",
"M. c #D7538D",
"N. c #CC5B95",
"B. c #DC5894",
"V. c #D85C98",
"C. c #CD4B82",
"Z. c #E15A96",
"A. c #E464A3",
"S. c #E86CAD",
"D. c #EE73B6",
"F. c #F072B6",
"G. c #AA7DC1",
"H. c #7E848A",
"J. c #85878C",
"K. c #878C93",
"L. c #92959D",
"P. c #90989D",
"I. c #9B9EA2",
"U. c #929AA1",
"Y. c #9AA1A7",
"T. c #9DA5AB",
"R. c #A2A6AB",
"E. c #A6ADB3",
"W. c #A8ADB2",
"Q. c #ABB3B9",
"!. c #B2B8BD",
"~. c #B0B7BC",
"^. c #AD83C5",
"/. c #AF83C8",
"(. c #B085C6",
"). c #B186C8",
"_. c #B289C9",
"`. c #B5BDC1",
"'. c #BCC5CA",
"]. c #BDC5CB",
"[. c #C4C9CC",
"{. c #C1C4C7",
"}. c #C9CED1",
"|. c #C5CED4",
" X c #CAD6DC",
".X c #CDD9DF",
"XX c #C8D1D6",
"oX c #D3DADF",
"OX c #D5DEE3",
"+X c #DDE5E9",
"@X c #D6E0E5",
"#X c #E4EAED",
"$X c #E5E9EA",
"%X c #E6EDF1",
"&X c #ECEFF1",
"*X c #ECF2F5",
"=X c #F1F5F7",
"-X c #F6F9FA",
";X c #FDFEFE",
":X c #F0F6F8",
/* pixels */
"                                                                                                    ",
"                                                                                                    ",
"                                                                                                    ",
"                                                                                                    ",
"                                                                                                    ",
"                                    u f l N l g i t                                                 ",
"                              u B 5.f.z.v.v.v.z.h.7.! j r                                           ",
"                          * N a.b._._._._._._._._._./.z.7.h %                                       ",
"                        O C j.)._._._._._._._._._._._._.(.z.B X %                                   ",
"                      @ h d.j.v.G.)._._._._._._._._._./.(._.v.V o 5                                 ",
"                    6 2 7.d.s.s.j.l.G._._._._._._._._.b.l.G._.k.s #                                 ",
"                    9 d p.s.s.s.s.d.h.^._._._._._._._.z.s.l.(.(.7.# 5                               ",
"                  7 3 V s.s.d.s.s.s.s.G._._._._._.).b.9.9.s.v._.j.y 4                               ",
"                  7 x Z d.s.d.p.s.j.g.l.(.(._._.(.c.q.V 9.s.j.b.l.y 9                               ",
"                  4 < C d.s.s.i.2.a.s.j.l.v.c.l.j.6.h 4.s.s.g.j.p.= < & i                           ",
"                  ; . s s.d.s.s.6.M Z 6.i.s.p.6.M h 7.g.s.s.s.j.6.. # B f.j                         ",
"                U 4.e $ 7.d.s.s.j.i.2.M h M m h 2.s.g.s.s.s.s.p.h $ I C 4.3.r                       ",
"                ! l.N S j a.d.s.d.s.d.p.u.7.9.s.s.s.s.g.s.j.i.V / F a.f.f k -                       ",
"                ! ^.w.G H.j 6.d.j.s.d.s.u.9.9.u.s.s.s.s.s.6.l 8.K.j b.h.^ ' ,                       ",
"                I v.G.U H.E.T N 3.a.i.Q ^ 8.8.~ I 9.i.3.h Y Q.[.F 0.).u.Y ~.D                       ",
"                g 7.z.f.j U.U.S T ~ G L.$X*X=X$XW.g f J F ' I.Y ! v.l.A - Y D                       ",
"                  j 4.3.M * K }.=X$X}.*X;X;X;X;X-X!.[.$X$X[.( M j.a.Z n x %                         ",
"                    t ( R.I.{.;X;X;X;X-X;X;X;X;X-X:X;X;X;X;X!.U N d -.=.5                           ",
"                    J XX;X;X-X;X;X-X+X].#X&X&X%X.XT.@X:X*X#X|.T./ =.e.7                             ",
"                  $ ) +X*X.XI.`.|.`.] L 8.T.E.L.E b ` E.I.K.OX-X!.5 6                               ",
"                e Q S R.Q.( + & a c O.,.@.....O.&.,...x 0 0 ` J.D %                                 ",
"                = U / [ ' f e 2 1 w { } ..O.+.X.| { } x w $.c @                                     ",
"                : H.) P L F a @.3 @.,.&.#.O.X.+.$.:.n.;.< 7                                         ",
"                H.H O.A.N.-.M.@.9 <.<.m.m.m.m.m.<.m.m.1.c                                           ",
"                / b <.B.S.Z.m.{ v m.n.n.n.n.n.n.m.m.m.m.O.-                                         ",
"                , 4 ,.m.n.m.%.< O.m.<.m.n.n.n.n.n.n.1.m.:.6                                         ",
"                  - } :.;...7 @ ;.m.n.n.n.n.n.m.<.n.<.M.B.b                                         ",
"                      a a     0 >.m.n.n.n.n.n.n.n.m.B.S.S...                                        ",
"                              c n.n.m.m.n.n.n.n.M.A.D.D.F.-.&                                       ",
"                            > 7 X.#.%.&.,.,.>.M.A.N.N.r.*.n q                                       ",
"                            ( `.L.t.` ~ W R R R [ =.` t.I.[.E.:                                     ",
"                          > S I.].XX.X X X X X.X@X+X+X#X$X[.J.:                                     ",
"                          g 6.Q I Y ~ 8.8.8.' ] ' [ _ R D D                                         ",
"                        , V u.i.u.9.7.0.y.2.=   & } :.C.}                                           ",
"                          e i j j j j j G t       ..<.B.=.%                                         ",
"                                                > a P R E K                                         ",
"                                                K '.oXoX%X'.t                                       ",
"                                                : Y.Q.Q.T.8.i r                                     ",
"                                              r Q Q I I Q 5.z.f.i                                   ",
"                                              i u.s.s.s.d.l.^.b.I                                   ",
"                                              r g h M N B U U N i                                   ",
"                                                                                                    ",
"                                                                                                    ",
"                                                                                                    ",
"                                                                                                    "
};
