/* XPM */
static char *k__1_1675771932[] = {
/* columns rows colors chars-per-pixel */
"50 50 214 2 ",
"   c None",
".  c #2A211C",
"X  c #301E2B",
"o  c #2B252B",
"O  c #37272B",
"+  c #362B39",
"@  c #37343A",
"#  c #2E2335",
"$  c #1F1117",
"%  c #471B2C",
"&  c #571D35",
"*  c #4B1D35",
"=  c #483128",
"-  c #492537",
";  c #5E213A",
":  c #522639",
">  c #413A39",
",  c #51292B",
"<  c #68392A",
"1  c #753928",
"2  c #62223B",
"3  c #6A243F",
"4  c #52463A",
"5  c #734A35",
"6  c #3A2E41",
"7  c #3E2948",
"8  c #3E3544",
"9  c #442949",
"0  c #43334B",
"q  c #423B47",
"w  c #553645",
"e  c #493555",
"r  c #4C3459",
"t  c #4E3A58",
"y  c #513B5D",
"u  c #53335C",
"i  c #512D4C",
"p  c #652A44",
"a  c #6C2A46",
"s  c #772949",
"d  c #78314F",
"f  c #723651",
"g  c #553663",
"h  c #553C63",
"j  c #5B3D6C",
"k  c #5A3D67",
"l  c #603F71",
"z  c #3E4043",
"x  c #414244",
"c  c #47494B",
"v  c #574D42",
"b  c #5B5345",
"n  c #4B4654",
"m  c #574755",
"M  c #57585A",
"N  c #6B584D",
"B  c #684956",
"V  c #74505A",
"C  c #756A5C",
"Z  c #7F6048",
"A  c #584466",
"S  c #5B5964",
"D  c #62406A",
"F  c #695963",
"G  c #725765",
"H  c #634275",
"J  c #69447C",
"K  c #674679",
"L  c #675475",
"P  c #794F63",
"I  c #5E6266",
"U  c #67676A",
"Y  c #796766",
"T  c #6A6874",
"R  c #786B75",
"E  c #6E7477",
"W  c #73747C",
"Q  c #74797E",
"!  c #78737A",
"~  c #79716A",
"^  c #823E2B",
"/  c #905035",
"(  c #AD5839",
")  c #C4643E",
"_  c #862E51",
"`  c #873456",
"'  c #943359",
"]  c #9B355D",
"[  c #812C4D",
"{  c #A0365F",
"}  c #9D3B63",
"|  c #A33963",
" . c #A83A66",
".. c #B53D6B",
"X. c #8C654D",
"o. c #82735E",
"O. c #8F6C58",
"+. c #BC4271",
"@. c #897964",
"#. c #857C78",
"$. c #9B7862",
"%. c #94436E",
"&. c #D87247",
"*. c #E07A4A",
"=. c #C44375",
"-. c #CC467A",
";. c #C74579",
":. c #D5497F",
">. c #D1477D",
",. c #B5987A",
"<. c #AE8F72",
"1. c #9C866B",
"2. c #EB9150",
"3. c #C49270",
"4. c #6E4A81",
"5. c #714A85",
"6. c #754D8A",
"7. c #784E8E",
"8. c #794E90",
"9. c #7E5395",
"0. c #79568B",
"q. c #7B7A86",
"w. c #7F6291",
"e. c #83559C",
"r. c #85599B",
"t. c #B85083",
"y. c #827F84",
"u. c #89649D",
"i. c #8B5DA3",
"p. c #8F5CA9",
"a. c #935FAD",
"s. c #955FB1",
"d. c #8E62A6",
"f. c #9462AD",
"g. c #9769AF",
"h. c #9662B0",
"j. c #9B6BB4",
"k. c #9C6AB7",
"l. c #9F70B7",
"z. c #9A72AF",
"x. c #A375BC",
"c. c #A67ABD",
"v. c #A06FB9",
"b. c #D64A81",
"n. c #D94A82",
"m. c #DB4F89",
"M. c #C6548A",
"N. c #DC538D",
"B. c #D95894",
"V. c #CA548B",
"C. c #E25894",
"Z. c #DA609D",
"A. c #D862A1",
"S. c #E769A9",
"D. c #EE71B6",
"F. c #AA7EC2",
"G. c #A77BC0",
"H. c #7F8389",
"J. c #8D8B8B",
"K. c #86858B",
"L. c #878991",
"P. c #8D939A",
"I. c #8D9296",
"U. c #93979B",
"Y. c #A09584",
"T. c #B9A383",
"R. c #959BA1",
"E. c #A985BD",
"W. c #9CA2A6",
"Q. c #9EA6AC",
"!. c #A4A6A8",
"~. c #A2ABB1",
"^. c #ABB3B8",
"/. c #B1B4B7",
"(. c #C9A988",
"). c #D7B38D",
"_. c #E7BC95",
"`. c #DABBA2",
"'. c #DDC29C",
"]. c #E2C49E",
"[. c #E8C49C",
"{. c #E9CAA4",
"}. c #F6D5AA",
"|. c #F8D6AB",
" X c #F9D6AA",
".X c #AD82C4",
"XX c #B287C8",
"oX c #B289C9",
"OX c #B085C7",
"+X c #BC97D0",
"@X c #B3BDC4",
"#X c #C7ACD6",
"$X c #BDC4C9",
"%X c #C2CDD3",
"&X c #C8CED2",
"*X c #CBD5DC",
"=X c #CDD6DA",
"-X c #D3D7D9",
";X c #C2C8CC",
":X c #CED9E1",
">X c #D2DDE5",
",X c #D4DFE8",
"<X c #DAE1E6",
"1X c #DCE5EA",
"2X c #D7E2EA",
"3X c #E2E6E9",
"4X c #E5EAEC",
"5X c #E4EBF1",
"6X c #E9EEF1",
"7X c #EEF2F5",
"8X c #EFF4F8",
"9X c #F1F4F6",
"0X c #FCFDFD",
"qX c #F5F8F9",
/* pixels */
"                                                                                                    ",
"                                                                                                    ",
"                                                                                                    ",
"                                              8 e r r r e 8                                         ",
"                                        @ g 4.r.g.j.l.k.j.r.6.A 7                                   ",
"                                    @ r 9.x.F.XXoXoXoXoXOXXXOXx.i.j +                               ",
"                                - - 7 p.F.oXoXoXoXoXoXoXoXF.x.p.5.A q M U z                         ",
"                              p +.` g j.c.c.F.XXOXG..X.Xl.e.A m q.^.-X6X1XU.x                       ",
"                            - M.D.` g s.h.s.s.h.l.k.a.9.g S R.=XqX0X0X0X0X:XM                       ",
"                          . p C.D.} 9 p.a.a.a.a.a.e.j S W.<XqX9X6X6X1X$XJ.F 5 5 < >                 ",
"                        6 r a n.S.V.- 9.a.a.p.p.4.n L.>X9X6X1X,X*XQ.~ 5 1 ) 2.2.2./ @               ",
"                        g 8.& -.N.B.s g a.h.i.g S @X5X5X,X,X*XQ.n 5 ( / 1 *.&.&.2.&.<               ",
"                      6 e.i.9  .n.b...: 5.8.r L.*X,X,X,X>X^.U 4 . 1 / = 1 ( < ( 2.( =               ",
"                      t p.a.j a b.b.n. .+ 8 ~.>X:X>X,X&XH.N <.3.Z N @.N X.X.= 1 / =                 ",
"                      u a.a.8.9  .n.n.n.] - q.y.q.q.P.m X.)._.(.F -X-XJ.<.3.X.=                     ",
"                      @ j H H 5.* ..n.;.a u J e.i.i.8.g X.,.).4 1.qX!.W.Y _._.v                     ",
"                          + r p.l * | a H a.v.F.OXOX.Xj.e.B <.1.J.0X#.$ > {.{.4                     ",
"                            6 i.8.# X r p.j..XoXoXXXXXXXj.e.m (.Y.4X/.. 1.}.{.b                     ",
"                            o e 6   n l e.f..XXXoXXXXXXXx.h.l $.'.'.{.T.'.}.}.T.b                   ",
"                          x E !.W.E I 0.q.T L w..XoXXX.Xj.h.J O.}.}.|.|.{.}.}.|.C                   ",
"                          E 1X0X0X>X;X7X9X6X&Xq.L x.l.f.a.a.j $.}.}.|.'.,.}.|.'.b                   ",
"                          q.*XqX0X0X0X0X0X0X0X3XT H K L H J N _.}.}.|.{.1.,.].@.4                   ",
"                            P.2X3X8X0X0X0XqX0X0X^.Q $X-X/.F X._.'.}.|.|.'.C 4 4                     ",
"                            M W.$X:X*X%X*X1X9X0X9XqX0XqX0X@XM Y C ,.'.,.~ v                         ",
"                                x m G ` R $X*X1X4X5X,X>X3X>X%X4X&XJ.M @                             ",
"                                  : [ [ ; O F ! y.K.! F R @X%X&X<X8X/.x                             ",
"                                    + a d & +.; s ..' & ] d V 9 E L.T                               ",
"                                  > ' ;.2 ] n._ s n.b.a _ :.=.:                                     ",
"                                + ' :.{ 2 -.n. .; -.N.M.; ' +.- @                                   ",
"                                3 >.:.3 ' n.:.>.; ] :.S.V.a % U /.U.@ A y +                         ",
"                              @ w ` a , -.:.:.:.{ ; =.m.S.S.p W.0X8XT K f.u.0.0                     ",
"                            M @X$X^.S s n.:.:.:.:._ 2 +.m.C.p ~.8X2XH.g g.x.l.0                     ",
"                            I :X2XQ.z p ..b.b.b.N.B.%.p { { m =X2X>XQ j s.a.r.0                     ",
"                            z U H.c Q.P.F f ` } t.B.A.t.a O !.2X2X*XS 5.h.f.8.6                     ",
"                              # g 6 ~.>X:X@XR.L.! G F P B x Q ~.^.E # 5.7.J 0                       ",
"                              @ j j y U P.@X$X,X1X1X1X<X4X4XW.@ z     q q                           ",
"                                7 i.p.8.A + w F R ! J.U.U.I.T z                                     ",
"                                  e H k # % ..=._ $ ' | d o                                         ",
"                                    z @ % +.B.B.p + { m.B.w                                         ",
"                                  c U.P.w  .Z.` y.J.3 -.V.a o                                       ",
"                                # S :X5X$XU : U &XU M G Y R Q 8   6 t y 0                           ",
"                              g 9.t q.$X5X6XQ U !.I =X2X2X7X=X@ A u.E.#Xz.l @                       ",
"                            @ 4.h.i.H m q.L.n 0 m 0 Q Q.~.P.S j x.oXoX+XoXh.0                       ",
"                              0 9.h.a.e.5.4.d.x.E.E.4.# e K 8.a.c.XXXXc.u.y 8                       ",
"                                0 8.s.a.a.c.oXXXoX#XoXh j h.h.a.f.r.6.y @                           ",
"                                  6 j e.p.j.c.c.E.c.j.u 9 4.H k t 0                                 ",
"                                      8 t y h A h A t +                                             ",
"                                                                                                    ",
"                                                                                                    ",
"                                                                                                    "
};
