/* XPM */
static char *___1_1675773129[] = {
/* columns rows colors chars-per-pixel */
"50 50 213 2 ",
"   c None",
".  c #390F1F",
"X  c #3C121F",
"o  c #380E20",
"O  c #3C1221",
"+  c #3D1A2A",
"@  c #3B293D",
"#  c #39263C",
"$  c #4F1611",
"%  c #40151F",
"&  c #531713",
"*  c #551914",
"=  c #591B13",
"-  c #551A1C",
";  c #53171A",
":  c #621F16",
">  c #5C2116",
",  c #612217",
"<  c #642319",
"1  c #6E241E",
"2  c #6F2C1C",
"3  c #73241F",
"4  c #762C1E",
"5  c #7A2E1E",
"6  c #7C321E",
"7  c #7E391E",
"8  c #431522",
"9  c #4C1C22",
"0  c #481A29",
"q  c #5B1F23",
"w  c #521C2E",
"e  c #571E24",
"r  c #541D30",
"t  c #5D2126",
"y  c #5D2128",
"u  c #5C292A",
"i  c #452B3C",
"p  c #482C3C",
"a  c #572032",
"s  c #5B2232",
"d  c #5D2D3D",
"f  c #48303F",
"g  c #54313F",
"h  c #4F242C",
"j  c #6F2620",
"k  c #61242C",
"l  c #6D2D2C",
"z  c #612825",
"x  c #732621",
"c  c #752B23",
"v  c #7B2C23",
"b  c #782722",
"n  c #6A352D",
"m  c #7C3422",
"M  c #7E3823",
"N  c #7D3629",
"B  c #7D3D2D",
"V  c #753127",
"C  c #612636",
"Z  c #642938",
"A  c #6A2E3C",
"S  c #672A33",
"D  c #6E3132",
"F  c #6D313E",
"G  c #703231",
"H  c #783E3C",
"J  c #753C37",
"K  c #7C4634",
"L  c #77423A",
"P  c #493241",
"I  c #523847",
"U  c #6E3242",
"Y  c #723542",
"T  c #733A46",
"R  c #763C4A",
"E  c #763C4B",
"W  c #5D4757",
"Q  c #5B4454",
"!  c #744349",
"~  c #744B4B",
"^  c #7B4D4E",
"/  c #794547",
"(  c #604957",
")  c #604650",
"_  c #7D4552",
"`  c #7E4A53",
"'  c #7F5759",
"]  c #7B5355",
"[  c #715253",
"{  c #6B5769",
"}  c #775963",
"|  c #6E6073",
" . c #746779",
".. c #7F707A",
"X. c #76626E",
"o. c #81361F",
"O. c #813A1F",
"+. c #842D26",
"@. c #852E28",
"#. c #833523",
"$. c #8A3625",
"%. c #833B22",
"&. c #8D3C25",
"*. c #8D3B2D",
"=. c #81392C",
"-. c #913F25",
";. c #823C30",
":. c #864123",
">. c #8C4224",
",. c #8D462A",
"<. c #8E482D",
"1. c #8B4829",
"2. c #924225",
"3. c #944529",
"4. c #934A2B",
"5. c #9C4B2A",
"6. c #9A532A",
"7. c #864635",
"8. c #934C33",
"9. c #975133",
"0. c #9C5435",
"q. c #9D5A35",
"w. c #92503C",
"e. c #A04E2E",
"r. c #A2542E",
"t. c #A25C2E",
"y. c #A35333",
"u. c #A25C36",
"i. c #AB5D37",
"p. c #B05E36",
"a. c #B4653B",
"s. c #BA6436",
"d. c #884E48",
"f. c #8D544F",
"g. c #965848",
"h. c #814D56",
"j. c #864D5D",
"k. c #894C5F",
"l. c #85515D",
"z. c #89535E",
"x. c #865A5B",
"c. c #8B625C",
"v. c #BA7241",
"b. c #BD7947",
"n. c #B36C47",
"m. c #8A4E61",
"M. c #874E61",
"N. c #8A5362",
"B. c #8D5A64",
"V. c #855461",
"C. c #905E64",
"Z. c #955D6C",
"A. c #9A5F72",
"S. c #886568",
"D. c #926166",
"F. c #96636C",
"G. c #98616F",
"H. c #98696D",
"J. c #9A6472",
"K. c #9C6B74",
"L. c #996576",
"P. c #9D7175",
"I. c #9F727A",
"U. c #A26976",
"Y. c #A26D7A",
"T. c #A4737C",
"R. c #A9767C",
"E. c #A57A7C",
"W. c #AC7A7D",
"Q. c #A27577",
"!. c #A67463",
"~. c #BE814C",
"^. c #837586",
"/. c #A67381",
"(. c #AA7583",
"). c #A67981",
"_. c #AC7C84",
"`. c #AD7D88",
"'. c #B27E8B",
"]. c #908897",
"[. c #AE8186",
"{. c #AC8189",
"}. c #A68A87",
"|. c #B08386",
" X c #B3838C",
".X c #B58B8C",
"XX c #BA8C8E",
"oX c #B5878B",
"OX c #B6918F",
"+X c #BB938E",
"@X c #B3988F",
"#X c #B58691",
"$X c #B58C91",
"%X c #BC8C93",
"&X c #BA8995",
"*X c #BD9493",
"=X c #BD9993",
"-X c #BC919D",
";X c #A19396",
":X c #9A92A0",
">X c #C0998F",
",X c #C08F93",
"<X c #C09492",
"1X c #C09C94",
"2X c #C3969D",
"3X c #C49B9D",
"4X c #C5A39E",
"5X c #C6A99C",
"6X c #C5A79A",
"7X c #C397A2",
"8X c #C49CA1",
"9X c #C6A4A2",
"0X c #C5A8A2",
/* pixels */
"                                                                                                    ",
"                                                                                                    ",
"8X8X7X,X&X,X-X,X-X,X,X,X<X2X9X9X9X0X9X                    9X9X9X9X8X9X8X8X8X8X7X7X2X7X2X2X7X2X      ",
"(.T.Y.Y.U.U.U.U.U.U.U.Y.Y.Y.T.).).).E._.E.E.E.E.E.E.E.E.E.E.E.Q.E.Q.Q.T.T.T./.T.Y././.T././.#X      ",
"  M.m.k.m.m.m.k.k.m.m.m.N.j.M.N.B.N.z.z.N.N.l.l.z.N.l.l.l.z.l.l.j.j.j.l.j.k.m.k.m.k.k.k.m.          ",
"  A.A.k.m.m.A.A.m.m.C.L.C.N.B.J.J.B.B.D.I.H.c.D.H.Q.H.D.B.P.T.F.F.G.T.Y.Z.Z.U.(.U.A.A.Y.`.          ",
"  -X'.(.(.(.'.'.(.`. X*X'.`.{.*X<X|.oX.X6X=X|..XOX6XOXoXoX=X3X|.oXoX2X-X'. X#X7X#X'.'.,X7X          ",
"  7X7X'.'.'.7X,X'. X&X3XXXoXoX=X3X.X.X.X4X=XOX.X*X4XOX.XoX=X3X.XoXoX3X*X'. X#X7X#X'.'.&X7X          ",
"    &X#X#X#X&X#X#X#X#X*XoX#X$X$X*X$XOXXXOXOX.XOXOX*X.X.X.X$X*X.X#XoX*X#X.X#X#X#X#X#X#X#X-X          ",
"    Z.A.Z.Z.Z.J.Z.A.G.G.A.J.J.J.J.J.J.J.J.J.J.J.F.F.J.J.L.J.J.J.L.L.L.J.J.J.L.L.L.U.L.K.            ",
"    #X#X#X`.(._._._.W.W.R.R.R.R.T.)._._.`.`.{.{.|.{.|.|.{.oX{. X'. X X X X{.oX X#X2X2X-X            ",
"    7X7X3X_.K.` _ _ g.a.8.=.=.;.7.7.7.d.f.g.f.d.` ` h.h.h.h.h.j.' l.l.x.V.V.B.)._.2X3X              ",
"    7X3X2X[.J.Z w 8 <.a.4.M M 6 v m m 6 M M 6 6 2 , = * * * * - * = - - e q U `.oX2X3X              ",
"    3X3X2X|.J.A w . <.a.4.M #.M m 4.4.4.<.3.,.,.:.6 M 2 , > * * & & & & & e T `.oX3X3X              ",
"    8X3X3X XK.A w . 7.b.8.M #.6 5 ,.3.3.3.3.3.3.>.6 %.%.6 ,.%.4 1 , < * $ q E {.XX3X3X              ",
"    8X3X8X XU.A w o K a.9.#.%.M 5 &.&.&.-.2.2.2.%.6 %.O.5 &.2.&.o.5 3 & & q E `.,X3X3X              ",
"    8X3X8XoXP.A r o K v.9.#.%.M 5 -.-.2.2.2.2.2.O.o.%.O.6 -.-.-.-.-.#.* $ q _ {.%X3X3X              ",
"    8X3X3XoXY.F r o K ~.q.%.%.6 6 -.2.2.2.2.2.2.O.6 >.%.o.-.-.-.-.-.$.= & t h.{.*X3X3X              ",
"      3X8XXXY.F r o K b.q.M %.%.5 %.O.&.&.>.>.>.O.O.>.O.6 2.-.-.-.2.%.= & t h. X<X3X8X              ",
"      3X3X%XT.U r o K ~.q.O.%.%.O.:.O.O.:.O.O.:.O.O.>.O.6 O.o.o.6 #.6 * & t j. X3X3X8X              ",
"      3X3X*XT.Y r o J ~.q.O.:.%.:.%.:.:.:.:.>.>.>.>.>.>.>.>.:.:.>.:.M = - k V. X2X3X4X              ",
"      3X3X*XR.Y r o J ~.q.O.%.%.O.3.3.5.6.1.1.>.:.O.:.%.O.%.:.:.O.%.6 = * y C. X3X3X8X              ",
"      9X3X*XT.T h . n ~.u.O.%.M o.5.5.6.6.t.t.r.3.7 :.O.%.r.r.t.t.r.3., & k C..X3X3X3X              ",
"      3X3X%XE.T a X n ~.u.%.%.6 6 -.2.>.>.        :.:.o.6 >.2.2.2.3.&.= & k F.oX,XXX*X              ",
"      %X<XoXR.R a . n ~.u.M %.M 6 >.2.&.            %.7 6 -.2.&.-.-.O.= * k J.oX,X*X                ",
"      ,X,XXXE.E a O n a.t.%.7 6 5 &.>.2.2.          %.7 6 >.-.2.-.-.%.= & S K.XX3X3X                ",
"      ,X,XXX_.E r o z s.r.B 7.M 6 O.&.>.&.>.&.2.#.6 :.7 6 &.&.-.&.-.O.= & S T.*X4X4X                ",
"      <X,X,XR.h.s o y n.0.~ ..^ o.-.2.&.-.-.-.&.o.6 O.6 o.&.2.&.&.&.$.= * S T.*X4X3X                ",
"      <X,X<XW./ s o g ;Xc.~  .^.7.&.&.&.&.-.-.-.#.6 %.6 6 &.&.&.-.$.$.= * A ).<X8X4X                ",
"      *X,XXXW.h.s o I ].S.! { ^ v &.&.-.-.&.&.&.6 6 M 6 #.&.&.&.-.$.$.* * F _.1X4X4X                ",
"      <X<X<X_.h.y O f :XS.~ | / 5 &.&.&.-.&.-.&.M 6 #.6 +.&.&.&.$.&.$.* * U `.1X9X4X                ",
"      4X4X3X Xh.s X h !.g.~ X.L 5 &.&.&.&.&.$.&.m 5 %.5 6 &.&.$.-.%.#.* & T |.3X4X9X                ",
"      4X4X4XXXh.C X 9 p.r.M B v 5 $.&.$.&.$.$.&.6 6 M 5 o.&.$.$.$.$.$.* ; T oX4X4X4X                ",
"      9X4X4XXXh.s X 9 i.y.5 m c 5 $.$.&.$.&.$.$.v 6 m 4 5 $.$.$.$.$.+.* ; ! oX4X4X4X                ",
"      4X4X4XOXx.s X 9 i.r.v m c 4 $.$.$.$.$.$.$.b 4 m 5 +.$.$.$.$.$.$.* ; / .X4X6X9X                ",
"      4X4X4X+Xz.C . 9 i.y.m m v c 5 c v v 5 v 6 5 4 m 4 5 v 5 v v v 5 & - ` .X1X1X1X                ",
"      0X4X5X+Xz.C o 9 u.y.c V m M N N M M V ^ l.' ' x.S.x.^ / M v m v - - h.oX+X*X                  ",
"      9X5X4X+XC.C O 8 y.y.v v c c v c c v l { { |  .^.^...| } V v v v = - l.XX<X*X                  ",
"      0X9X9X=XC.C O 8 u.y.v v c v N N N M N B H J J T L L H H V V V V - - z.OX<X=X                  ",
"      0X5X5X=XD.C O X 0.y.c c 1 b *.*.*.*.*.*.*.v 3 c 3 m *.*.*.*.*.*.* - B.OX>X*X                  ",
"        5X6X>XD.C O O 0.y.c c j x @.@.+.@.@.@.+.x x c j b +.@.@.@.@.v * - D.+X>X1X                  ",
"        5X6X6XD.Z O O 8.y.c c j b @.@.@.@.@.@.+.x x c 1 b @.@.@.+.+.+.* - F.+X>X1X                  ",
"        5X5X=XH.Z O O 8.y.c c j x @.@.+.+.+.+.+.x x c 1 b @.@.@.+.+.v * e K.+X>X<X                  ",
"        5X5X6XH.Z 8 O <.y.c c j x v v v +.b +.b 3 x c j b @.+.v +.+.b & e P.=X>X1X                  ",
"        5X5X5XP.Z O o 7.y.c c x c c c c c c c c x x c x c c c c x x x ; e Q.*X>X=X                  ",
"        5X@X}.S.I 0 + L g.D D D G G D G G G G D l l l l l l l l l l l q u P.+X=X1X                  ",
"        5X( @ i # # @ P P P I ( W W ( ( ( ( I P P I I P f p p p i i i i i I Q S.=X                  ",
"                                                                                                    ",
"                                                                                                    ",
"                                                                                                    "
};
