/* XPM */
static char *___1_1675773146[] = {
/* columns rows colors chars-per-pixel */
"50 50 203 2 ",
"   c None",
".  c #370E1F",
"X  c #3A101F",
"o  c #370F20",
"O  c #390F21",
"+  c #391021",
"@  c #3F1A2B",
"#  c #371020",
"$  c #3D2A3E",
"%  c #3A273B",
"&  c #561915",
"*  c #5A1A15",
"=  c #551A1B",
"-  c #5E1F19",
";  c #651D19",
":  c #5B211F",
">  c #632317",
",  c #6B2419",
"<  c #6A2A1B",
"1  c #71261E",
"2  c #752A1E",
"3  c #792E1D",
"4  c #7C331E",
"5  c #7F381F",
"6  c #411D2D",
"7  c #4D1B2C",
"8  c #531D2E",
"9  c #581E20",
"0  c #571F30",
"q  c #5C2425",
"w  c #5F2929",
"e  c #452C3E",
"r  c #572030",
"t  c #5B2333",
"y  c #592939",
"u  c #5E3033",
"i  c #63242E",
"p  c #622C29",
"a  c #6F2D2C",
"s  c #712520",
"d  c #752A22",
"f  c #7C2B24",
"g  c #732C29",
"h  c #6D352B",
"j  c #68352C",
"k  c #7C3323",
"l  c #7F3821",
"z  c #72322D",
"x  c #7B362C",
"c  c #7B3728",
"v  c #632B32",
"b  c #6B2D3D",
"n  c #662B36",
"m  c #6B353C",
"M  c #763E39",
"N  c #442E41",
"B  c #4B3342",
"V  c #4F3A4A",
"C  c #553E4B",
"Z  c #6E3341",
"A  c #743A46",
"S  c #743947",
"D  c #5C4757",
"F  c #7A424D",
"G  c #744543",
"H  c #7D524D",
"J  c #7D4551",
"K  c #7F4950",
"L  c #6B525D",
"P  c #775559",
"I  c #624D59",
"U  c #6B5463",
"Y  c #765D69",
"T  c #7D656D",
"R  c #796776",
"E  c #82351F",
"W  c #833D1E",
"Q  c #832D26",
"!  c #842E28",
"~  c #843323",
"^  c #8A3726",
"/  c #823A21",
"(  c #8D3C25",
")  c #8B362B",
"_  c #863C2B",
"`  c #8B3D29",
"'  c #903E25",
"]  c #8C3D30",
"[  c #843D30",
"{  c #86411F",
"}  c #864124",
"|  c #8C4225",
" . c #8D422A",
".. c #86432D",
"X. c #924225",
"o. c #924529",
"O. c #934D2C",
"+. c #984A29",
"@. c #8D4932",
"#. c #864A3A",
"$. c #8B5437",
"%. c #855138",
"&. c #8E563B",
"*. c #98523A",
"=. c #975030",
"-. c #AF5F37",
";. c #AF6038",
":. c #B36237",
">. c #B46238",
",. c #BB6637",
"<. c #8D4D42",
"1. c #8D5249",
"2. c #854D5C",
"3. c #884D5F",
"4. c #824B55",
"5. c #87515C",
"6. c #89535E",
"7. c #8C595F",
"8. c #935C5A",
"9. c #A25F42",
"0. c #9B605D",
"q. c #B26948",
"w. c #B97344",
"e. c #B97648",
"r. c #AA6D56",
"t. c #AF7A5E",
"y. c #AA6145",
"u. c #894D60",
"i. c #874C60",
"p. c #8A5361",
"a. c #8D5B64",
"s. c #8F5E69",
"d. c #915D65",
"f. c #945C6B",
"g. c #925569",
"h. c #856266",
"j. c #936167",
"k. c #94646B",
"l. c #99656E",
"z. c #996A6D",
"x. c #9A6472",
"c. c #9D6C75",
"v. c #9E6D78",
"b. c #9F7278",
"n. c #8B6E77",
"m. c #A56C7C",
"M. c #A06B77",
"N. c #A5737C",
"B. c #A67B7E",
"V. c #A97A7E",
"C. c #A77479",
"Z. c #A97963",
"A. c #BE804A",
"S. c #A7817F",
"D. c #B18476",
"F. c #A76F80",
"G. c #A97583",
"H. c #A77E80",
"J. c #AB7B84",
"K. c #A87784",
"L. c #B27D8B",
"P. c #B17F85",
"I. c #8B818F",
"U. c #9E959E",
"Y. c #AB8282",
"T. c #A98684",
"R. c #B28586",
"E. c #B3848B",
"W. c #B58B8B",
"Q. c #BB8C8E",
"!. c #B18885",
"~. c #BC948F",
"^. c #BF988F",
"/. c #B7928E",
"(. c #B58391",
"). c #B98793",
"_. c #B78A93",
"`. c #BB8D94",
"'. c #BE8E99",
"]. c #BD9393",
"[. c #BE9A94",
"{. c #BF9599",
"}. c #BF9999",
"|. c #A1959A",
" X c #C0968F",
".X c #C09496",
"XX c #C19A93",
"oX c #C1949B",
"OX c #C49B9D",
"+X c #C1A195",
"@X c #C5A39D",
"#X c #C6AA9F",
"$X c #CCA99C",
"%X c #C396A1",
"&X c #C49BA1",
"*X c #C7ABA1",
"=X c #C5A7A0",
"-X c #D3B9AE",
";X c #EDE1DC",
":X c #EFE4E0",
">X c white",
",X c #FBF8F7",
"<X c #F8F1ED",
/* pixels */
"                                                                                                    ",
"                                                                                                    ",
"        %X%X%XoX).)..XoXoX.X.X.X.X                                      &X=X&X&X%X&X&X%X%X%X%X      ",
"        (.G.G.G.m.m.m.m.m.m.m.m.N.J.J.R.Y.Y.Y.S.B.Y.Y.Y.J.H.S.B.B.B.B.K.B.K.G.G.G.G.G.G.K.L.        ",
"            u.u.u.u.u.u.u.u.u.p.3.6.p.p.p.6.6.6.p.5.p.p.6.6.6.6.6.2.2.2.2.i.i.i.u.i.u.u.u.          ",
"            f.g.i.u.g.g.3.u.f.f.p.6.f.x.a.6.j.c.a.a.j.b.j.a.d.c.l.a.d.v.x.s.s.v.m.f.g.M.G.          ",
"            L.G.F.F.L.P.G.G.E.E.G.P.W.].Y.J.W.[.T.!.!.+XW.!.E.}.W.E.E.{.`.E.L._.'.L.L.).%X          ",
"            %XL.L.L.%X).E.L.oX].E.E..XXXW.W.~.#X/.W./.#X_.W.W.@X`.E.E..X`.E.(.'.'.L.L.(.%X          ",
"            oX(.).(.oX(.).).{.].`.`.{.}.].~.^.XX/.].].}.[./.].}.].]._.].`._._._.'.)._.).oX          ",
"            v.x.x.x.x.x.x.x.x.x.x.x.x.x.l.l.r.q.&.<.1.8.j.x.n.x.l.x.x.c.x.x.x.x.x.x.x.v.            ",
"              J.L.G.F.G.G.G.G.G.H.K.J.J.J.J.q.>. .4 l / [ <.8.C.R.L.R.E.(.(.(.E.(._.).`.            ",
"              %XOXE.M.a.a.a.a.a.s.s.s.s.j.a.y.>. .~ l k ~ / /  .@.<.8.k.k.k.k.v.J.oXOX&X            ",
"              OXOXE.l.n 0 7 7 7 7 7 7 8 r 8 =.:. .l 4 | | } / / / / / p q 9 n p.E.{.oX              ",
"              OXOXE.M.b 7 O O O # # + + + + @.:.o.~ 4 ( O.+.O. .l 5 l < & & i p.E.{.&X              ",
"              &XOXE.M.b 7 O O O + + + + + + @.:.o.~ 3 E ' X.X.| E / +.} - & i s.E..XOX              ",
"              &XOX.XM.b 7 . O O + + + + X X @.:.o.l 4 ( X.X.X.| E E ( ( , * i k.(.OXOX              ",
"              OXOX`.v.Z 7 O O O + + + + + + O.w.O.5 4 ^ X.X.X.X.W E ' ( 1 * i k.W.OXOX              ",
"              OXOX_.m.Z 7 O O O + + + + + + &.A.O./ 4 W X.X.+.| / E X.' , * i x._.OXOX              ",
"              OXOX`.F.Z 7 O O O + + + + + + &.A.O.l l 5 4 5 W } / W | X.2 * p c._.&X&X              ",
"              OXOX.XF.Z 7 O O O + + + + + + &.A.O.} } | | } { { W 4 4 l > & i c.Q.OXOX              ",
"              =XOX.XC.A 7 O O O o # + + + + $.A.O.5 5 5 W { { { { } } l : & v b.`.OX&X              ",
"              OXOX.XN.A 8 O O O + + + + + + $.A.O.5 5 O.t.+X+Xt.} { { l > & n N.`.@X@X              ",
"              OX=X.XK.A 7 O o o + + + + + + %.A.O.W 3 r.<X>X>X,XD.{ O.+.< * n K.].&XOX              ",
"              &XOX.XN.A 7 o o o + + + + + + %.A.O.l 2 D.>X>X>X>X+XW +.+.3 * m K.`..X{.              ",
"              {..X Xm.S 0 6 o o + + + + + o $.A.O.l 3 @.$X;X;X-X&.E ( ( , * m J.Q.`.'.              ",
"              ]..XE.C.S 7 . . . + + + o + + %.e.O.l 4 E X.*.*.| E E ( ' , & A Y.`.{.OX              ",
"              ]. X).J.F 8 . . = + + + + + + ..,.O.4 4 ^ ' ' ' ( 4 / ' ' < & A T.XX@X=X              ",
"              ]. X XJ.S 8 6 . . + + + + + o } ,.%.H k / ' ( | ( 4 ~ ( ( , * A E.OXOX                ",
"              ]. X`.J.S 0 o + + + + + + + o G t.P R P ] ( ' ( ( 4 ~ ' ( , & F W.@X@X                ",
"              ].Q. XJ.4.8 + + + + + + + O O U U.U U h.#.( ' ' / 4 E ' ^ , & F W.@XOX                ",
"              ]. X`.J.J 0 o + + + + + + + O U I.Y L g / ^ ' ' ^ 4 E ( ( , & 4.W.@X@X                ",
"                ]..XR.J 0 o + + + o + + O O L |.P Y c ~ ' ( ( / 3 Q ( ^ , & 4.`.@X@X                ",
"                .X].R.4.0 O + + + + + + + . M q.<.P d E ( ^ ( / 3 E ^ ^ ; & 5./.@X@X                ",
"                ~..XR.4.0 O + + + + + + + o h ,...k 2 ~ ( ^ ^ ^ f Q ^ ^ , = 5.^.=X@X                ",
"                .X.XR.4.0 + + + + + + + + o h ,.X.d 2 / ( ^ ) ~ 3 Q ^ ~ , = a.].@X=X                ",
"                ~.~.W.5.t + + + + + + + + o h >. .k 1 f f f ~ ~ 2 Q ~ ~ > & a.[.@X@X                ",
"                ].^.W.6.0 O O O + + + + + + h >.` d c c d c z x c d d d - = j.].OXXX                ",
"                XXXXW.6.t X + + + + + + + . h e. .k d c f G T h.n.h.M k - = k./.].XX                ",
"                @X@X].7.t + + + + + + + + . j w. .d d d s m U R n.Y A d * = z.].XX~.                ",
"                #X@XXXa.t + + + + + + + + . j >.` d d _ ..[ [ x z M x c - = c.^.~.XX                ",
"                @X#X[.d.r + + + + + + + + o p >.` s s Q ) ) ) ! 1 ! ] ` > : M. X X].                ",
"                #X@X^.j.t + + + + + + + + o p ;.` d 1 f ! ! ! f 1 f ! Q ; : C. X X                  ",
"                XX^.W.j.v + + + + + + + + o p ;._ 1 s Q ! ! ! f d f Q Q ; q V. X^.                  ",
"                [. X^.j.t + + + + + + + + o w ;._ s s f ! ! ! d s f Q Q ; q S. X^.                  ",
"                @X#X+Xl.v O O O O + + + + . q -._ s s d f Q f d s f ! Q ; q J.XX[.                  ",
"                #X#X@Xc.t O O O O O O . + + q -.` 1 d f d 2 f d s s s s * w Y.XXXX                  ",
"                #X[.T.h.y @ 6 6 @ @ @ e @ @ u 9.#.a z z g z h h a g a a - u S.^.XX                  ",
"                *XT $ $ % % % N $ V D D D D I L D C V C D B e V B N B N e e C L T.                  ",
"                                                                                                    ",
"                                                                                                    "
};
