/* XPM */
static char *___1_1675773155[] = {
/* columns rows colors chars-per-pixel */
"50 50 191 2 ",
"   c None",
".  c #350D1D",
"X  c #3F121F",
"o  c #380F21",
"O  c #391021",
"+  c #371020",
"@  c #2F2035",
"#  c #3F2437",
"$  c #352639",
"%  c #382A3C",
"&  c #43131E",
"*  c #5D211E",
"=  c #64241F",
"-  c #6B261B",
";  c #6B281A",
":  c #712719",
">  c #752B1C",
",  c #7A2E1D",
"<  c #76301F",
"1  c #7D311E",
"2  c #411426",
"3  c #491727",
"4  c #491827",
"5  c #451628",
"6  c #4A1A29",
"7  c #491728",
"8  c #571F31",
"9  c #45202F",
"0  c #5F2428",
"q  c #452738",
"w  c #5C2233",
"e  c #49303E",
"r  c #652520",
"t  c #6C2722",
"y  c #742C23",
"u  c #722D29",
"i  c #782F22",
"p  c #763022",
"a  c #7C3222",
"s  c #783628",
"d  c #612635",
"f  c #652A3A",
"g  c #692E3E",
"h  c #632837",
"j  c #693C3C",
"k  c #78453C",
"l  c #423546",
"z  c #4C3241",
"x  c #463946",
"c  c #4C3C49",
"v  c #523443",
"b  c #4A3F5D",
"n  c #6D3241",
"m  c #603E48",
"M  c #733947",
"N  c #4C415F",
"B  c #544755",
"V  c #5D4D5B",
"C  c #5B4659",
"Z  c #6C4243",
"A  c #7A404E",
"S  c #664A54",
"D  c #614D5C",
"F  c #694A52",
"G  c #7C4351",
"H  c #6E535E",
"J  c #61515E",
"K  c #7A5B5F",
"L  c #765960",
"P  c #7F686C",
"I  c #82351F",
"U  c #823424",
"Y  c #863B23",
"T  c #8B3D24",
"R  c #883C28",
"E  c #8E4124",
"W  c #8D432A",
"Q  c #85452C",
"!  c #914627",
"~  c #994526",
"^  c #934529",
"/  c #964A29",
"(  c #9C4D2A",
")  c #974927",
"_  c #9E522C",
"`  c #9D5B2F",
"'  c #904D31",
"]  c #9D5930",
"[  c #925039",
"{  c #A14E29",
"}  c #A4532C",
"|  c #A9562E",
" . c #A4592E",
".. c #AB5A2F",
"X. c #A45D33",
"o. c #AD5B30",
"O. c #A45A36",
"+. c #B05C31",
"@. c #AD6333",
"#. c #AD6A39",
"$. c #A96239",
"%. c #B36433",
"&. c #B66A35",
"*. c #B96B36",
"=. c #B36D3B",
"-. c #BA6D39",
";. c #B97137",
":. c #B5743D",
">. c #BC7439",
",. c #BE793C",
"<. c #C07D3D",
"1. c #C07539",
"2. c #965940",
"3. c #864E5D",
"4. c #894B5F",
"5. c #814856",
"6. c #87525E",
"7. c #88535F",
"8. c #A15E41",
"9. c #9A654B",
"0. c #986959",
"q. c #B57A42",
"w. c #BB7843",
"e. c #A56A56",
"r. c #AA7455",
"t. c #BC7A5A",
"y. c #894E60",
"u. c #8A5561",
"i. c #8D5B64",
"p. c #915C66",
"a. c #945C6B",
"s. c #95596C",
"d. c #995F70",
"f. c #955F72",
"g. c #956267",
"h. c #96636D",
"j. c #98646F",
"k. c #926D6A",
"l. c #98716D",
"z. c #836B72",
"x. c #9A6371",
"c. c #9C6B72",
"v. c #9A7E7D",
"b. c #88777E",
"n. c #A26E77",
"m. c #A56C7B",
"M. c #A5747C",
"N. c #A57B7D",
"B. c #A5797A",
"V. c #AE8D7A",
"C. c #927D81",
"Z. c #A76F81",
"A. c #A77481",
"S. c #A97582",
"D. c #AB7C84",
"F. c #AE7D89",
"G. c #B27E8B",
"H. c #97858A",
"J. c #9A8992",
"K. c #98919B",
"L. c #AD8284",
"P. c #A98B86",
"I. c #B18387",
"U. c #B28987",
"Y. c #B3838B",
"T. c #B58B8C",
"R. c #BA8B8C",
"E. c #BD938E",
"W. c #B7928F",
"Q. c #B68692",
"!. c #B78C92",
"~. c #BC8C94",
"^. c #BC8D98",
"/. c #A39198",
"(. c #B79291",
"). c #BD9392",
"_. c #BE9995",
"`. c #BA9697",
"'. c #A69EA6",
"]. c #C09392",
"[. c #C19C96",
"{. c #C2939C",
"}. c #C49B9D",
"|. c #C4A39B",
" X c #C6AA9D",
".X c #C6A79B",
"XX c #C496A1",
"oX c #C49DA1",
"OX c #C6ACA0",
"+X c #EDEAEB",
"@X c #FEFEFE",
/* pixels */
"                                                                                                    ",
"                                                                                                    ",
"oXXXXXXX].Q.^.^.].].].].{.}.                                  OXoXoXoXoXoXXXXXXXXXXX{.              ",
"  F.A.A.m.m.m.m.m.n.m.m.n.M.D.N.D.S.V.D.N.D.N.V.N.V.N.N.N.M.M.M.N.M.S.M.S.S.S.S.S.S.Y.              ",
"    4.4.y.4.y.y.y.4.y.4.y.u.u.7.6.u.u.u.u.6.6.7.7.6.3.7.y.6.3.y.4.4.6.4.y.y.y.y.y.y.                ",
"    d.s.4.4.s.s.y.y.s.j.u.4.p.x.i.u.p.c.k.i.i.c.c.p.p.c.c.h.p.j.m.j.a.j.Z.d.d.d.Z.                  ",
"    G.G.Z.Z.G.G.M.S.I.~.G.D.G.`.U.L.Y._.(.U.U._._.L.U.(.`.Y.Y.!.}.G.G.Q.XXG.G.G.{.                  ",
"    XX^.G.G.^.{.Y.G.~.}.R.Y.T.OX(.T.T.|._.T.T.[.[.T.T._.}.U.Y.!.}.Y.G.G.XXQ.G.G.{.                  ",
"    XX^.Q.Q.Q.^.Q.!.!.{.!.(.!.`.`.(.(._.`.(.(.`._.W.(.`.`.T.!.!.`.!.!.Q.^.Q.Q.Q.^.                  ",
"      f.d.j.x.d.d.x.d.d.j.j.x.x.x.j.j.h.h.j.j.j.h.h.j.j.h.x.x.x.j.j.j.j.x.x.x.x.                    ",
"      Q.G.G.S.D.D.S.D.D.D.F.F.F.F.F.I.F.F.L.F.F.F.Y.F.Y.Y.Y.Y.Y.Y.Q.Y.Y.Q.Q.^.~.    =.&.-.%.^ y     ",
"      XXXX`.M.i.3.6.7.7.6.6.6.u.u.u.u.u.u.i.i.i.i.i.i.i.i.i.p.p.p.p.p.g.g.e.t.w.-.-.%.%.+.%.R y     ",
"      }.}.~.D.M 8 4 7 7 7 4 7 7 4 7 7 7 6 6 6 6 6 6 6 6 6 9 6 6 6 0 u p a E *.%.@.$.#.$.} &.R y     ",
"      }.XX).D.M 8 O O o o o o o + + O O O o o o O O O o + + O O . * , > : T %.;.w.w.w. .| &.R y     ",
"      oX}.].D.A w o O O O O O O O O O O O O O O O O O O O O O O O * > p p Y %.1.>.>.;. .| %.U t     ",
"      oXXX{.D.A 8 O O O O O O O O O O O O O O O O O O O O O O O O * a 1 1 T %.-.1.>.-. .o.%.a t     ",
"      oX}.}.D.G w O O O O O O O O O O O O O O O O O O O O O O O O * 1 , a T &.>.>.1.1. .o.%.a t     ",
"      }.}.].D.G w O O O O O O O O O O O O O O O O O O O O O O O O * 1 , , ! *.<.<.<.,. .%.@.i r     ",
"      oX}.}.F.5.8 O O O O O O O O O O O O O O O O O O O O O O O O = 1 1 U ) -.<.,.>.*._ %.o.> =     ",
"      }.}.}.I.5.8 2 O o O O O O O O O O O O O O O O O O O O O O . = 1 , 1 ) *.@.` ` ` X.&.o.- =     ",
"      oX}.}.I.5.d o o o O O O O O O O O O O O O O O + + O O O O O = ; ; ; ] >.;.:.,.;.>.-.X.- =     ",
"      OX|.}.I.3.8 2 o o O O o O O O O O O O O O O o + + O O O O O = < > R -.1.>.;.*.&.@.*.} ; t     ",
"        }.}.I.3.d o 2 o O O O O O O O O O O + O O O + + O O O O O = 1 < R @.>.:.:.q.q. .&._ - t     ",
"        }.}.Y.4.d 2 o o O O O O O O O O O O 9       + O + + O O X = > < Q $.-.w.q.,.&.} &.( -       ",
"        ).].I.7.d O o O O O O O o + O O o S @X@X@X@X/.o . O O O X - a , ^  .-.>.1.>.&.{ *./ ;       ",
"        ~.~.I.7.w 2 O O O O O O O O O O . S +X@X@X@XK.+ O O O O O t i , )  .-.1.1.>.@.} *.! ;       ",
"        ].].I.p.d O O o O O O O O O O O + o S H./.z.6 O O O O O O - , , ( } -.1.>.>.@.} &.! <       ",
"        ].].I.p.h O O o O O O o O O o o o + . . . . + + O O O O O - , , (  .*.*.*.>.%.2.r.W 1       ",
"        ].R.Y.p.d 2 o o O O O O O O O O O O O O O O O O O O O O X - , 1 } } &.;.>.,.r.V.C.Q s       ",
"        ].].R.a.h O o o O O O O O O O O O O O O O O O O O O O O O ; , 1 } } &.,.>.,.V.H.L F C       ",
"        ].].R.g.h 2 O O O O O O O o O O O O + O O O O O + + O O X ; , I  .} *.,.>.>.] l.L D b       ",
"        ].].R.j.f O O o O O O O O O O O O O o O O O O O o + O O & - > I  .} &.>.;.:.O.k.z.D N       ",
"        ).].R.h.h 2 O O O O O O O O O o O O O O O O O O O + + O O - , I ..{ *.;.;.;. .0.0.Z Z       ",
"        ].].E.c.h 2 O O O O O O O O O O O O O O O o O O O O o O 2 - > T ..} &.;.;.;.{ ....1 s       ",
"        E.].E.c.h 2 X O O O O O O O O O O O O O O O O O O O O O X : > T ..{ &.;.;.;._ |  .a s       ",
"        ).E.E.n.f 2 O O O O O O O O O O O O O O O O O O O O O O X : > ! ..{ &.;.;.;._ ..} a s       ",
"        ).].E.c.g 2 O O O O O O O O o O O o O O O O O O O O O O X - : I ( { ..` ` _ ) ..( i         ",
"        [.[._.n.g O O O O O O O O O O O O O O O O O O O O O O O X - - Q 8.r.r.9.X.@.....( i         ",
"        .X|.|.M.g O O O O O O O O O O O O O O O O O O O O O o O X : : [ H.'.K.b.O.o.+.+.^ y         ",
"         X X|.N.n 4 O O O O O O O O O O O O O O o O O O O O O O & - : ^ 0.0.0.9.] X.} ..^ i         ",
"        |.|.|.N.n O O O O O O O O O O O O O O O O O O O O O O O & : i O.o.{ %.=.:.#.( | T y         ",
"        E.E.E.B.n 5 + O O O O O O O O O O O O O O O O O O O O O & - > | { { o.+.o.| ~ | R y         ",
"        .X[.}.N.n 2 O O O O O O O O O O O O O O O O O O O O O O & : , { { { o.o.+.| ~ | R y         ",
"         X.X|.V.M 5 O O O O O O O O O O O o O O O O O O O O O O & - I | ( { o.+.o.{ ~ | U u         ",
"         X X XP.M 5 + O O O O O O O O O O O O . O O O O + + O O & - , { ~ }  .} } ( ~ | U u         ",
"         X XOXP.M 5 O O O O + + O O O O O O O X O O . O . O O O & : , } _ | } _ _ _ { | U u         ",
"        OX`.P H v q # # # q z z z z v v z z e e x e z z z z z z v j k [ 8.$.....o.O.o.} s u         ",
"          P.$ @ $ $ % % % l C V V V J J J c x x B l l l l l l x l x x x S                           ",
"                                                                                                    ",
"                                                                                                    "
};
