/* XPM */
static char *___1_1675773165[] = {
/* columns rows colors chars-per-pixel */
"50 50 186 2 ",
"   c None",
".  c #3C111F",
"X  c #390F20",
"o  c #371020",
"O  c #391021",
"+  c #2B1D31",
"@  c #382639",
"#  c #531C1E",
"$  c #5B1E1B",
"%  c #5C1C17",
"&  c #611F19",
"*  c #5F201C",
"=  c #67261E",
"-  c #6A261D",
";  c #6B261A",
":  c #71271A",
">  c #742A1B",
",  c #7A2D1D",
"<  c #7E311E",
"1  c #77311F",
"2  c #431525",
"3  c #471728",
"4  c #49182A",
"5  c #531C25",
"6  c #432639",
"7  c #4B2F3F",
"8  c #5F2434",
"9  c #682421",
"0  c #742C23",
"q  c #792F25",
"w  c #773122",
"e  c #7B3323",
"r  c #7D3824",
"t  c #622639",
"y  c #64293C",
"u  c #692E3E",
"i  c #633B3F",
"p  c #77453F",
"a  c #3C2D40",
"s  c #4A2F42",
"d  c #433645",
"f  c #4D3342",
"g  c #4A3C49",
"h  c #523645",
"j  c #5D3E4B",
"k  c #6D3343",
"l  c #733947",
"z  c #763C49",
"x  c #703646",
"c  c #4E414E",
"v  c #50404D",
"b  c #53425C",
"n  c #5C4D5A",
"m  c #504151",
"M  c #7B424E",
"N  c #604350",
"B  c #7B4651",
"V  c #7D4A55",
"C  c #7F4E58",
"Z  c #60505E",
"A  c #79575A",
"S  c #745D63",
"D  c #7E6367",
"F  c #7E696C",
"G  c #81331F",
"H  c #823522",
"J  c #843A23",
"K  c #893D24",
"L  c #8C4126",
"P  c #914225",
"I  c #9A4626",
"U  c #9C4927",
"Y  c #944628",
"T  c #954829",
"R  c #9C4C29",
"E  c #9B4728",
"W  c #9E532D",
"Q  c #9E582F",
"!  c #994F33",
"~  c #9C5433",
"^  c #9D5932",
"/  c #9E5B3A",
"(  c #935431",
")  c #A14E2A",
"_  c #A4542D",
"`  c #A9552E",
"'  c #A6592F",
"]  c #AA5A2F",
"[  c #A25731",
"{  c #A55C32",
"}  c #AC5C31",
"|  c #A15D3C",
" . c #B05D31",
".. c #A76234",
"X. c #AE6132",
"o. c #AD6C3B",
"O. c #AB6539",
"+. c #B36433",
"@. c #B66A35",
"#. c #B96C36",
"$. c #B36D39",
"%. c #BB6E38",
"&. c #B77137",
"*. c #B97137",
"=. c #B3733D",
"-. c #BC7339",
";. c #BE793B",
":. c #C0793D",
">. c #C0763A",
",. c #975C45",
"<. c #804C55",
"1. c #854E5C",
"2. c #894D5F",
"3. c #84525C",
"4. c #89525E",
"5. c #895C5B",
"6. c #9E6443",
"7. c #996955",
"8. c #A46343",
"9. c #AD6A44",
"0. c #A8674B",
"q. c #B57A41",
"w. c #BE7C41",
"e. c #B97247",
"r. c #8A4F61",
"t. c #8B5362",
"y. c #8F5865",
"u. c #915D66",
"i. c #955E6D",
"p. c #92576A",
"a. c #886B69",
"s. c #96636D",
"d. c #99626D",
"f. c #986D69",
"g. c #8F726E",
"h. c #9B6472",
"j. c #9B6B74",
"k. c #9C6B78",
"l. c #8C787F",
"z. c #9A7877",
"x. c #A57A69",
"c. c #B3796D",
"v. c #A26E79",
"b. c #A06E75",
"n. c #A27277",
"m. c #A6747A",
"M. c #A6787D",
"N. c #AA7A7E",
"B. c #BE8065",
"V. c #957B80",
"C. c #AB7785",
"Z. c #AC7C85",
"A. c #AF7888",
"S. c #B37E8C",
"D. c #B07B86",
"F. c #8F8489",
"G. c #9A8788",
"H. c #928692",
"J. c #AF8088",
"K. c #A98583",
"L. c #B28385",
"P. c #B3838C",
"I. c #B48B8D",
"U. c #BC8C8E",
"Y. c #B7918D",
"T. c #BB918F",
"R. c #B68591",
"E. c #BB8692",
"W. c #B78A91",
"Q. c #BC8C93",
"!. c #BE8D99",
"~. c #A3979A",
"^. c #BD9392",
"/. c #BD9A94",
"(. c #BF919A",
"). c #AEA3A5",
"_. c #C09593",
"`. c #C19D96",
"'. c #C2949C",
"]. c #C49B9D",
"[. c #C4A49D",
"{. c #C6AA9E",
"}. c #C0A197",
"|. c #C39CA0",
" X c #C4A4A0",
".X c #C7ADA1",
/* pixels */
"                                                                                                    ",
"                                                                                                    ",
"  '.|.'.S._.E.!._._._._.|. X X X[.{. X X{. X X X X].[. X|.|.|.'.'.'.'.'.|.                          ",
"  Z.h.h.h.i.h.h.i.d.d.h.k.v.b.n.j.j.j.j.g.j.j.j.j.j.h.h.h.h.k.h.h.v.h.v.                            ",
"    r.r.r.r.r.r.2.2.t.2.4.y.4.4.5.t.3.3.4.4.4.t.y.3.2.r.t.1.r.t.r.2.r.                              ",
"      i.r.r.h.p.t.i.h.u.u.k.s.u.j.z.s.f.M.j.s.j.M.d.h.N.v.d.v.C.h.v.C.                              ",
"      S.A.S.E.S.D.R.!.D.L./.I.I.^.}.I.I.}.T.I.^.`.P.P.'.Q.S.E.'.S.S.!.                              ",
"      '.S.S.'.S.P.Q.'.I.I.].Y.I.^.}.Y.Y.[.T.Y.Y.`.P.I._.Q.P.P.'.R.S.!.                              ",
"      E.P.R.R.R.P.R.W.R.R.W.I.I.Y.W.I.I.Y.I.I.W.W.I.P.W.J.P.P.R.P.P.R.                              ",
"      i.i.i.i.i.i.i.i.s.h.s.h.h.s.s.h.s.s.h.h.h.h.h.h.k.k.h.h.k.h.k.k.                  { q         ",
"      !.W.P.C.Z.C.Z.Z.Z.Z.Z.Z.Z.Z.J.S.S.J.J.J.J.P.P.P.P.P.P.P.R.'.'.          $.#.+.+.+.[ q         ",
"      |.].P.s.B B B B V V V V V C C C C C A 1.<.<.3.<.3.3.3.5.s.c.B.e.#.#.@.@.X.+.{ [  ._ q         ",
"      ].].R.u.8 2 O 2 2 2 2 2 2 O 2 2 2 2 3 2 2 3 3 3 2 5 9 , e ' @.+.#.X.O.o.q.q.=.W  .[ 0         ",
"      |.].W.i.t O O O O . o o o o o o o o o o o o X X X 5 > > > ^ o.' #.O.w.;.-.%. .U +.R 0         ",
"      |.|.Q.i.t 2 O O O o O O O O O O O X O O O o o o o # > w r o.#._ %.+.%.%.%.%.] R +.T 9         ",
"      |.].Q.s.t O O O O o o O O O O O O O O O X X X o o # > 1 H +.+.` #.+.-.-.%.-.+.) @.T 0         ",
"      ].].^.d.t O O O O O O O O O O O O O O O O O O O O # > > J @.+._ #.+.;.-.-.-.] _ +.Y 0         ",
"      ].].Q.j.t 3 O O O O O O O O O O O O O O O O O O o # > , K #.+.} %.@.:.-.-.#.' _ +.L 9         ",
"      |.].^.j.t O O O O O O O O O O O O O O O O O O O O # > , K %.+.] %.....' Q Q Q ] @.L =         ",
"        |.^.j.y 2 O O O O O O O O O O O O O O O O O O o # > ; r Q Q X.>.@.o.$.=.#.-.#.+.K =         ",
"        ].'.j.y O O O O O O O O O O O O O O O O O O o o # > - L =.*.;.>.;.-.#.@.X.X.] @.J =         ",
"        ].(.j.u 3 O O O O O O O O O O O O O O O O O O o # , > T @.@.@.*.$.=.=.=.q...' +.< =         ",
"        ].`.h.k O O O O O O O O O O O O O O O O O O o o * > w ( q.o.X.%.&.w.>.;.-._ _ +.< =         ",
"        ]._.k.k 3 O O O O O O O O O O O O O O O O O o o # > w { ;.} X.#.#.-.%.>.-._ ] +.r           ",
"        ^.U.n.u O O O O O O O O O X O O O O O O O O O O 5 > e _ >.]  .#.#.*.>.*.#._ ] X.w           ",
"        Q.U.n.k 2 o O O O O O O O O O O O O O O O O O o $ > , } *.`  .#.#.*.*.*.-._ ] X.e           ",
"        _.U.m.k 2 o O X O O O O O O O O O O O O O O O O $ > < } *.`  .@.#.>.*.>.-.W 0.0.J           ",
"        Q.U.m.k 2 O O O O O O O O O O O O O O X O O O O $ > H } *._  .@.#.*.>.;.&.| G.f.r           ",
"        _.U.N.k 2 o o O O O O O O O O O O O O O O O O O # > G +.#._  .+.&.;.;.;.&.x.H.A N           ",
"        T._.N.k 2 o X X O O O O O O O O O O O O O O X O $ > H +.#._ +.+.&.;.;.&.&./ l.A b           ",
"        U._.N.l 2 o O O O O X O O O O O O O O O O O X X $ > J +.@.) X.+.&.;.;.;.$.~ l.a.b           ",
"        _._.N.l 3 O O O O O O O O O O O O O O O O O X X $ > K +.@._ } X.&.&.&.&.@.T z.5.N           ",
"        _._.N.l O O O O O O O O O O O O O O O O O O O O $ > K +.@.)  . .*.*.*.*.} U X.W 1           ",
"        T._.B.z 4 O O O O o O O O O X O O O O O O O O X $ : P +.+.)  . .*.#.#.@.} U X.U 1           ",
"        _._.L.z 3 o o O O O O O O O O O O O O O O O O O $ > L +.+.)  .} @.@.@.@.] U X.T e           ",
"        _._.L.z 3 o o O O O O O O O O O O O O O O O O O $ > L } ] U ] ' _ _ _ _ R U } P w           ",
"        ^._.L.M 3 O O O O O O O O O O O O O O O O O O O % ; L Q ^ ..9.8.6./ { { { {  .K w           ",
"        `.`.I.z 3 o O O O O O O O O O O O O O O O O O O % > T 9.G.~.).~.F.7. .+. .+.} K 0           ",
"        [.{.Y.M 3 o O O O O O O O O O O O O O O O O O O = : T 8.a.z.z.g.a.,.] ] } ` } K w           ",
"        [.[.Y.<.3 o O O O O O O O X O O O O O O O O O O $ > ^ O.O.~ { { o.o.o.o.{ ) { J 0           ",
"        }.`.T.M 3 o O O O O O O O O O O O O O O X X X 2 $ , { +.` ) ` ` +.+. .+.R ) ` H             ",
"        {.{.T.V 3 X O O X O O O O O O O O O O O X X X X % , `  .` I ` _  . . . .U ) ` H             ",
"        {.[./.V 4 X O O O O O O O O O O O O O X X X X X $ , `  ._ I ` _  . . . .U ) _ q             ",
"        {.{./.V 4 o O O O O O O O O O O O O O O O O X X & , ` } _ I ` _  . .}  .E ) _ q             ",
"        .X.X/.C 4 X O X O X O O O O O O O O X o O O O O % > T R I I ` E U ) ) R Y ) ) q             ",
"        .X.X}.C 4 o O X O X O X X . O O O X O o X X X 2 & < _ _ ) ` ` _ [ [ [ W _ ` ) q             ",
"        .XK.S j 6 @ @ 6 s s h h h h h 7 f f f 7 f f f h i p ,.0.} } } ` } ` [ } ` } ! q             ",
"          F + @ @ @ a a m n n Z Z Z g d g c d d d a d d d d g D                                     ",
"                                                                                                    ",
"                                                                                                    "
};
