/* XPM */
static char *__removebg_preview__1_1675773117[] = {
/* columns rows colors chars-per-pixel */
"50 50 174 2 ",
"   c None",
".  c #52170F",
"X  c #4F1617",
"o  c #4F1B1D",
"O  c #511613",
"+  c #551912",
"@  c #5C1D14",
"#  c #521719",
"$  c #531A1E",
"%  c #5D1E1C",
"&  c #611D15",
"*  c #5F2015",
"=  c #642316",
"-  c #642219",
";  c #6C251C",
":  c #69281A",
">  c #692417",
",  c #71251E",
"<  c #752B1D",
"1  c #792E1D",
"2  c #7C331D",
"3  c #74301C",
"4  c #4B1E26",
"5  c #551D22",
"6  c #5A1F23",
"7  c #601F24",
"8  c #4A202E",
"9  c #5C2126",
"0  c #5C222B",
"q  c #5F2B2E",
"w  c #482132",
"e  c #4B2D3D",
"r  c #442636",
"t  c #51273A",
"y  c #52313D",
"u  c #612126",
"i  c #6C2521",
"p  c #62242D",
"a  c #742722",
"s  c #782721",
"d  c #752C23",
"f  c #7C2D22",
"g  c #762F28",
"h  c #782E28",
"j  c #7C3322",
"k  c #7F3A22",
"l  c #74372D",
"z  c #74382E",
"x  c #7B372B",
"c  c #632631",
"v  c #652934",
"b  c #682B37",
"n  c #672C39",
"m  c #6B2E3B",
"M  c #6C323E",
"N  c #6C3E3E",
"B  c #643639",
"V  c #7A3F38",
"C  c #783D34",
"Z  c #7C453D",
"A  c #4E3249",
"S  c #563440",
"D  c #533B50",
"F  c #6F3442",
"G  c #613E46",
"H  c #623F49",
"J  c #713643",
"K  c #733A45",
"L  c #753B49",
"P  c #783E4C",
"I  c #5C4359",
"U  c #5A4351",
"Y  c #624047",
"T  c #65424C",
"R  c #6C464B",
"E  c #6A484F",
"W  c #7A424D",
"Q  c #724B4F",
"!  c #7B504F",
"~  c #6A4750",
"^  c #7E4552",
"/  c #764F53",
"(  c #645059",
")  c #785156",
"_  c #7A606A",
"`  c #736474",
"'  c #7B6D7E",
"]  c #82351F",
"[  c #81381F",
"{  c #842E27",
"}  c #852E28",
"|  c #853325",
" . c #8B3725",
".. c #843C21",
"X. c #8D3B25",
"o. c #863228",
"O. c #8C3E2E",
"+. c #913E25",
"@. c #864123",
"#. c #8A4323",
"$. c #8E412F",
"%. c #934225",
"&. c #9C492C",
"*. c #A24F2D",
"=. c #A2542D",
"-. c #A45C2E",
";. c #824B44",
":. c #814A55",
">. c #844D5C",
",. c #884B5F",
"<. c #86525D",
"1. c #89545E",
"2. c #8A4E61",
"3. c #875660",
"4. c #8A5361",
"5. c #8D5A64",
"6. c #915E65",
"7. c #935E6B",
"8. c #975E71",
"9. c #995E70",
"0. c #926067",
"q. c #95626C",
"w. c #98636F",
"e. c #9A6A6F",
"r. c #976070",
"t. c #9B6372",
"y. c #9C6C73",
"u. c #9F6B79",
"i. c #9D7174",
"p. c #947779",
"a. c #A06A78",
"s. c #A86F7F",
"d. c #A17277",
"f. c #A3747B",
"g. c #A67B7C",
"h. c #98827E",
"j. c #86798A",
"k. c #827587",
"l. c #AB7582",
"z. c #A67981",
"x. c #AC7C85",
"c. c #A97985",
"v. c #B07E87",
"b. c #B27E8A",
"n. c #A68480",
"m. c #AE8185",
"M. c #AE828A",
"N. c #B28486",
"B. c #B18887",
"V. c #B3838B",
"C. c #B58A8B",
"Z. c #B98D8E",
"A. c #B6918D",
"S. c #BC938E",
"D. c #B68692",
"F. c #BA8693",
"G. c #B68B92",
"H. c #BB8C93",
"J. c #BE8E99",
"K. c #B79292",
"L. c #BE9393",
"P. c #BD9994",
"I. c #BF959B",
"U. c #C08F99",
"Y. c #C19594",
"T. c #C19B93",
"R. c #C2959D",
"E. c #C49C9D",
"W. c #C4A39D",
"Q. c #C6AA9D",
"!. c #C496A0",
"~. c #C399A1",
"^. c #C5A5A1",
"/. c #C7AAA0",
/* pixels */
"                                                                                                    ",
"                                                                                                    ",
"      R.R.!.U.F.U.U.U.F.U.U.U.Y.Y.W.^.^.^.^.^.^./.^.Q./.W./.^.W.^.^.~.W.E.E.E.~.~.~.~.~.R.!.R.R.~.  ",
"      c.a.a.a.t.t.9.9.a.w.w.w.t.t.f.a.f.f.f.f.i.i.i.i.i.i.i.i.i.i.i.i.y.y.y.y.y.u.u.a.a.u.u.u.s.    ",
"        2.2.2.2.2.2.2.2.,.2.2.2.4.2.4.4.4.4.1.1.<.<.1.1.3.1.<.<.1.<.>.>.>.2.>.2.4.2.2.,.,.2.2.      ",
"          8.2.2.2.9.9.2.2.7.t.7.4.5.t.y.5.6.q.d.e.6.0.i.f.0.0.e.g.y.q.q.f.z.r.8.t.c.a.9.9.s.b.      ",
"          F.l.l.l.V.F.l.x.b.R.v.v.N.L.L.b.B.C.W.A.B.C.P.W.C.C.C.E.Z.V.N.I.R.V.b.D.!.F.b.b.U.!.      ",
"          !.b.b.b.U.J.b.V.F.E.C.V.V.R.T.V.C.K.Q.A.A.C.P.W.C.C.C.W.H.V.N.L.R.V.M.V.!.F.b.b.F.!.      ",
"          U.F.D.D.F.F.G.G.G.I.G.G.K.K.I.K.K.K.P.A.K.K.P.P.K.K.K.P.G.K.G.K.L.G.G.D.J.D.D.D.D.R.      ",
"          t.9.9.8.w.r.r.r.9.9.w.r.r.t.t.t.t.r.q.q.q.q.w.q.r.q.q.r.t.r.t.y.t.t.t.8.t.t.y.y.u.        ",
"            b.V.x.c.c.x.x.x.x.x.v.v.x.x.v.v.v.v.N.N.N.b.b.M.M.V.V.M.V.V.b.M.D.M.V.D.F.J.J.          ",
"            E.E.V.a.5.3.3.3.3.1.5.3.3.3.5.5.5.5.5.5.5.5.7.5.7.5.5.7.0.0.7.7.0.7.7.z.v.R.~.          ",
"            E.R.C.f.m 5 6 5 9 5 5 9 5 9 9 6 9 9 9 9 9 9 9 9 9 9 0 9 9 0 9 9 9 0 M z.M.E.R.          ",
"            E.E.D.z.F o + # + + + + + + + + + + + + + + + + + + # + + + + O + % M z.D.T.E.          ",
"            ~.~.V.l.F 5 + + + + + + + + + + + + + + + + + + + + + + + + + + + 6 J c.V.E.E.          ",
"            ~.E.H.f.J 5 + + + + * - - = = > > + + + + + + = = = & = = @ X + + 6 J x.H.E.~.          ",
"            W.~.H.z.J 5 + + . . % & & & = = & . . @ . . . * & & & @ & @ . . + 6 L v.G.E.E.          ",
"            E.~.H.z.J 5 + + + + - > > > : : > & = > > = > 3 3 3 < 1 < < = > @ % P m.L.E.E.          ",
"            E.E.L.z.L 6 + * 3 1 X.X.%.%.%.%.%.2 [ #.#.2 ] %.%.%.%.+.%.X.1 ] @ 9 W M.L.E.E.          ",
"            ~.E.L.z.L 6 . = 3 2 %.%.%.%.%.%.%.[ ..#.#.2 ] %.%.%.+.+.#. .1 j * 9 ^ M.I.E.E.          ",
"            E.E.I.c.W 6 + = 2 2 2 ..[ ..[ ..[ [ #.#.#.[ ] [ [ [ ..k j j 2 j * u :.V.R.E.W.          ",
"            ~.W.R.g.P 6 + @ k @.@.@.#.#.#.#.#.#.#.#.#.#.#.#.#.#.@.@.@.@...k * 9 >.C.R.^.E.          ",
"            E.E.I.x.W 6 + * ......@.@.@.#.@.@.@.#.#.#...[ #.[ #.@.k ..[ j k % 9 3.V.I.~.^.          ",
"            W.W.I.x.^ 9 + * j ..&.=.-.-.-.=.*.[ ..#.#.2 %.*.=.-.-.=.*.&.2 j * u 4.V.P.T.L.          ",
"            R.Y.Y.s.:.6 + - 2 2 %.%.%.%.%.&.%.2 ..#.#.2 [ %.%.%.%.%.%.X.1 | @ p 6.b.Y.Y.            ",
"            Y.Y.Y.g.:.7 + = 2 1 %.%.%.%.%.%.%.2 ..#.#.[ [ %.%.%.%.+.+.+.1 2 = p 7.N.Y.R.            ",
"            H.Y.Z.v.:.9 + - j 2 %.%.%.%.%.%.%.2 ....#.2 ] %.%.%.+.+.+.] 1 k * p q.C.W.~.            ",
"            Z.U.Z.N.>.0 + & j 2 #.%.%.%.%.%.X.2 [ #...2 ] %.%.%.+.+.+.X.< 2 % p e.H.W.~.            ",
"            L.L.Y.v.>.9 + = 2 2 +.%.+.+.%.%.X.2 [ #.[ 2 ] +.+.+.+.X.+.] 1 j * c y.L.W.W.            ",
"            L.H.Y.N.<.9 o q l 1 [ %.+.+.+.%.X.2 [ [ ..2 ] X.X.+.+.X.X. .< j % b d.L.W.E.            ",
"            L.Y.H.N.4.0 t I N < X.+.+.+.%.X.X.1 [ [ [ 1 ] +.X.+.+.X.X.] < j % b f.Y.W.W.            ",
"            L.Z.Y.N.5.0 w A b 1 X.X.+.+.X.X.X.1 ..[ ] 1 ] X.X.X.X.X.X. .< j & m g.R.^.^.            ",
"            P.Y.S.V.6.p 4 D N 1  .X.X.X.+.X. .1 | ....< | X.X.X.X.X. .| < f % m g.E.^.W.            ",
"              S.Y.C.6.p 8 I N <  .X.X.X.X. .+.< j j ..d 1 X.X. .X. .X.| < j % M m.E.W.^.            ",
"              S.Y.C.6.p 5 B l <  .X. . . . . .s j j j < 1 X. . . . . .| < h & M N.W.W.W.            ",
"              Y.Y.C.0.p X > 1 1  . . . . .+. .f j k j < {  . . . . . .| , j % K N.W.W.^.            ",
"              L.L.Z.q.c # - f < j f j j 1 1 1 < d j 2 < 1 1 1 ] f { f s < d % L C.T.E.W.            ",
"              Y.P.C.e.c X > j j j k j j C Z Z Z Z ;.;.;.! $.Z x j j x j j d & W B.S.L.P.            ",
"              E.W.L.e.c # : g j j d 2 2 :.` ` ` ' k.k.j.k.` ` V j j h j h < % W B.L.L.              ",
"              /.W.W.y.v # - d d j d d < Z R R R E / ) ) E R R x d 3 f d d d 6 :.C.S.L.              ",
"              E.Q.T.e.v X i d d O.$.$.$.$.$.$.d d f h < | $.$.O.$.O.O.O.d < * :.Z.S.S.              ",
"              W.T.P.i.n X : d ; o.o.o.o.o.o.| , d f d , s o.o.o.o.} } { ; d 9 <.Z.T.Y.              ",
"              Q.Q.W.i.n X i d , { { } } o.{ { , < d d , s | { o.o.o.{ f ; a u 1.S.T.S.              ",
"              Q.Q.W.i.M # ; a , { } } } | } { , d d h ; s } { { } { { { i i u 1.S.T.T.              ",
"              Q.Q.Q.d.b # i i i { { { { { { { ; a d d i s } { { { { { s i h 9 0.S.Y.T.              ",
"              Q.Q.Q.g.M # i a i a a a a a a a ; i d a a , , a a s a s a i i u q.S.T.T.              ",
"              Q.Q.Q.g.M $ i d g h g h h h h h h h s d d h h h h h h h h g i q i.T.T.T.              ",
"              Q.h.( D A r e e S S H T T ~ T E E E Y G D T T H Y H H H ~ T T Y 5.i.h.P.              ",
"                                                                                                    ",
"                                                                                                    "
};
