/* XPM */
static char *_1428d6a89c94462ba80e5141931e3b90JFkjkasGgCZ9LTR[] = {
/* columns rows colors chars-per-pixel */
"50 50 97 2 ",
"   c #2C1B2E",
".  c #3B333B",
"X  c #462F49",
"o  c #4B394D",
"O  c #4E3251",
"+  c #543457",
"@  c #564758",
"#  c #5D5A5E",
"$  c #76497B",
"%  c #786E7A",
"&  c #7E5382",
"*  c #835987",
"=  c #835688",
"-  c #89548F",
";  c #8D5693",
":  c #8F5B9D",
">  c #905696",
",  c #915D96",
"<  c #965C9D",
"1  c #985D9E",
"2  c #99719D",
"3  c #955FA2",
"4  c #9A5EA0",
"5  c #8C63A6",
"6  c #8C67AB",
"7  c #8D6AAE",
"8  c #9462A4",
"9  c #9D62A3",
"0  c #9165A8",
"q  c #9F67A9",
"w  c #926BAE",
"e  c #9C6BAD",
"r  c #8B6DB3",
"t  c #936DB2",
"y  c #8C71B5",
"u  c #8776BE",
"i  c #8A75BC",
"p  c #9071B6",
"a  c #9474B9",
"s  c #A065A6",
"d  c #A267A8",
"f  c #A56AAB",
"g  c #AA6DAE",
"h  c #A577AA",
"j  c #A26EB1",
"k  c #AA6EB0",
"l  c #A371B3",
"z  c #AE71B3",
"x  c #B274B5",
"c  c #B376B9",
"v  c #B679BC",
"b  c #B97BBE",
"n  c #867AC2",
"m  c #887BC4",
"M  c #8A7BC4",
"N  c #897CC4",
"B  c #887CC5",
"V  c #887CC6",
"C  c #897EC6",
"Z  c #8A7EC6",
"A  c #8D7EC6",
"S  c #8B7EC8",
"D  c #8C7FC8",
"F  c #917FC5",
"G  c #927FC7",
"H  c #BA7CC0",
"J  c #BB7DC1",
"K  c #BD7EC2",
"L  c #AE89B1",
"P  c #8B80C6",
"I  c #8C80C8",
"U  c #8D81C9",
"Y  c #8C80CA",
"T  c #8F83CB",
"R  c #8D81CD",
"E  c #8F82CE",
"W  c #9582C7",
"Q  c #9182CA",
"!  c #9083CB",
"~  c #9083CC",
"^  c #9083CF",
"/  c #9084CC",
"(  c #9084CD",
")  c #9284CD",
"_  c #9C85CB",
"`  c #A481C4",
"'  c #A087CB",
"]  c #A589CD",
"[  c #AC8BCF",
"{  c #B28CCE",
"}  c #A78CD1",
"|  c #AD8DD1",
" . c #B58FD0",
".. c #B390D2",
"X. c #C180C2",
"o. c #C382C3",
"O. c #C69ACA",
/* pixels */
"m m n n n n n n n n n n n n n n n n n n n n n n n n C C C n n n n n n n n n n n n n n n n n n n n n ",
"n n n n n n n n n n n n n n n n n n n n n n n n n n C R n n n n n n n n n n n n n n n n n n n n n n ",
"n n n u n n n n n n n n n n u n n n & T n n n n n n n ^ n n n n u n n n n n n n n u u n n n n n n n ",
"n n n n u n n n u n n n n n n n n V R R n n n n n n n & n n n n n n n n n n n u n n n n n n n n n n ",
"n n n n n n n n n n n n m m n n n n n n V n n n n n V V n n n n n C n n u m m m n n n n n n n n n n ",
"S S V n u n n V C n n n u V P n n n V V V n n n n V I V n n n n C P C n m m V V n n n n n V P n n u ",
"E ( P n n n V ^ E C n n P P E P n n n R R I C n n V R R n n n n I T P n n n P E R V n n V E T P n n ",
"( ( P n n n P E I n n m P T E P n n n V R R n n C V R V n n n n T T P n n n P E I n n n n R E n n n ",
"I I V n n n n I P n n n n P P n n n n V C C n n n C C C C n n n C S V n n n P P P n n n V P P n n n ",
"n n n n n i n n n n n n n n n n n n n n n n n n n n n n n n n n n n n n n n n n n n n n m n n n n n ",
"n n n n n n n n n n n n n n n n n n n n n n n n n n n n n n n n n n n n n n n u n n n n m u n n n n ",
"n n n n n n n n n n n n n n n n n n n n n n n n n n n n n n n n n n n n n n n n n n n n n m n n & n ",
"n n n n n n n n n n n n n n n n n n n n C n n n n n n C n n n n n n n n n n n n n n n n n n n n ^ R ",
"V n n n n n n V n n n n n P m m n n n n C C n n n n C P n n n n C C n n n n n P n n n n M M m n C R ",
"I ) P n n n A ^ I n n n n I I P n n n V R P R R n C R P n n n n I T P m n n P I P n n n V ) ) n C n ",
"( ( P m n n D ( T n n n P I ^ I n n P I R R P R & n I I V n n n I T P n n n I T T n n n V ( I P n n ",
") P V n n n P A P n n n V P P V n n n V D D m 7 f x j t n n n n P E C n n m P I I n n n M P P M n n ",
"n M M n n n m m V n n n m V M n n n n P m m t z b X.v f 3 r n n m C n n n n u P C n n n m V V V n m ",
"M m m n n n m m M m n n m m m n n n n n m p g { X.b K v k e u m m u n n n m n m m n n n M n n n n n ",
"P V m m V V m m M M M n n A P M n P V n t f b H b v c b K x t m m M V A V m n V m m m V V m n D P n ",
"I ( A V I ( I m P T P V M P ( V V P T I p c K c v k 9 k H b g t V M P ) D m A ( P C A ) P V P I E I ",
"( ( A m I ( I V P T P P V ^ ) P V P T V l b H H c x d 4 k H x 0 M M T T D m I ( I n V ^ P V V P T P ",
"P V V V V P V n V S I n m V A m V P P u c o.K K H H k 4 d x H s r n V P V M V A S C n S I m m A I V ",
"M n m m n M M n n n C n n m n m n n n y b L b x v H k 4 4 k H k 0 m V n n n n n n n n m V m n n m n ",
"M n n n n V n m n n n m n n V m m m m j o.H c s j x d 1 4 d c x 9 u n m m n M m n M M M n n m m m m ",
"I P A m V I A m C I I m m D P V n A A l X.H k 4 4 s 1 < 1 4 c c 8 u V P V m D I V m M P A m n P P V ",
"( ! D m P ! I V I T T m m ^ ! V n A ! l X.H f 4 4 1 < 1 4 4 c v 8 u E ) P m D ( P P V ) I V V ) ( P ",
"^ ! D m A ^ P V P T I P m ^ ! V V P E l X.b g 4 < 1 4 1 4 4 v c 3 u P ^ A m V ( V C V ! ) V m E ) P ",
"V m M M m V V M m V m u n M V M V m m l X.o.2 - < < 1 1 < $ = k 8 u n V m n m P V n n V m m n m V m ",
"M n n n n m n n m m m m m M m n m m m l X.O.% + > 1 1 1 h @ X s < u n n n n n M M n m m m m m n n n ",
"m m V n V V M n M M m m n m A V M V m f o.h .   - 1 < 1 L # X 4 : u P M m n M m m m m m m m m V V m ",
"T T V n A I P M V T P m m E P V n I A l H f O . ; 1 1 < * o = s < m V P V M V E P M V T D V V I E A ",
"( ) P n D ^ P V P ^ I V V ( ( P m P T a l b q ; , < < 1 ; , g < 6 m I ( P M P ( ) n A ) P V M ( T P ",
"I ( A V D D A V A P A m M P I m m P T i 3 z b v s 9 1 9 g v g 8 i n I I V M S I V V V P P V V I P P ",
"m n C n m m m n m m m n n m V V m m u m 6 9 z v c g f x v x 8 y n n A m n n n M V n n m m n n m u P ",
"m n n n n n m n n n n m n m m m m m m m i 6 < f c K v z g 1 0 m n n m n n n M m m m n n m n n n P u ",
"V I V n m A A m C A P m m V A m m V P V V 7 4 4 4 f f 1 > > t A m n m D m m V A V m P V A m n V M M ",
"! ^ A m D ( D m V ^ P m m ! ) V m T T P M w g g > > > > < 1 t ! S m ! ( D m D ( P V V T E m M ) ( P ",
"! ( A m I ( P m V ) ) M V I ! m V I T P M y x x d f 4 4 1 s t ^ V m A ( D m D ( P A P T P M M ! P I ",
"V I V m V V P m V P V M V D A m u P I M M r z x x c s s 4 d w m V m V I m m m D V n m P I M M M P V ",
"n m n n n n n n m n n n n n M n n n n n n r z x z c s s 1 q r n n n n m n n n m M m n n n n n V n n ",
"m m n n m m n n n M n m n n n n m m m n n r k z x k d 4 4 8 i M n n n m n n n m M n n n n n n M M A ",
"P I V M m P I m n P P V M V P m M P I V n n e f b d d > ; 5 A P m n I ^ m m M W V n m P A V C V W _ ",
"( ( A m A ^ A V V ) I V M ) ) V M ( ( D n A t q b d d : 5 i T ) m m I T A m V W W n V T ( V V ( _ [ ",
"^ I I I I ( P A A ^ I A P ( ) V m I ^ D V I I a s t 3 t P V ( ) A V P ( I V I ) I P P I E D I _ ' [ ",
"A A P E P V D ^ P D D I P V P P ! P A D ^ I A A a W u V I P A V I E I V I ( ) A P ! P P V I W ] {  .",
"m m A ( I V P T ^ V V ! ( V V ) ^ A A P ( P V P ! ^ m A ) ) P V ^ ! I V I ( P n A ! I P m ^ _ |  . .",
"D D D ( I V D ) I A A ^ P A I P ! I V P ^ I V A ! I V P ( I V A P ( A A I ^ I P P I P M G _ }  ...{ ",
"^ ! A V I ( I D D ! I A V I ) A m E ( I V I I I A V ) P V P P T A V ) ) P V A E I P P W _ ] | ..{ ` ",
"( ! A m I ( P V D ( ( V V ( ) P m P T A V I ( ) V A ) T M V ) ) V m P ( V A P E I n V W ' | ....{ ` "
};
