/* XPM */
static char *bfc7fbfcda3b439afa4466320a6b4b8cP0Aa4qF9h2V1YGUj[] = {
/* columns rows colors chars-per-pixel */
"50 50 105 2 ",
"   c #070407",
".  c #150A16",
"X  c #1D161D",
"o  c #2A192C",
"O  c #3E3D3E",
"+  c #342B44",
"@  c #543757",
"#  c #573559",
"$  c #63426A",
"%  c #6D4671",
"&  c #7A487E",
"*  c #7A5B7E",
"=  c #824E88",
"-  c #894C8F",
";  c #845589",
":  c #89538E",
">  c #86588B",
",  c #8D5295",
"<  c #8D5D93",
"1  c #8D5A9D",
"2  c #915596",
"3  c #925698",
"4  c #965A9C",
"5  c #995D9E",
"6  c #8D5EA2",
"7  c #925EA0",
"8  c #9B5FA1",
"9  c #8D62A6",
"0  c #8D66AA",
"q  c #8C69AF",
"w  c #9462A5",
"e  c #9D62A3",
"r  c #9665A9",
"t  c #9A66A9",
"y  c #936AAD",
"u  c #9E69AB",
"i  c #8767B0",
"p  c #876DB4",
"a  c #8B6CB2",
"s  c #906CB2",
"d  c #8C70B7",
"f  c #8675BB",
"g  c #8A74BB",
"h  c #8B78BF",
"j  c #9371B6",
"k  c #A064A6",
"l  c #A367A9",
"z  c #A56AAC",
"x  c #A96CAE",
"c  c #B06FAF",
"v  c #A970AF",
"b  c #AA6EB1",
"n  c #A771B2",
"m  c #AD72B4",
"M  c #B273B5",
"N  c #B276B9",
"B  c #B679BC",
"V  c #BA7BBE",
"C  c #C07EBF",
"Z  c #8777C0",
"A  c #867AC2",
"S  c #897CC5",
"D  c #887CC6",
"F  c #897DC6",
"G  c #8D7FC7",
"H  c #8B7EC8",
"J  c #8B7FC8",
"K  c #8C7FC8",
"L  c #927FC6",
"P  c #907DCA",
"I  c #B87BC0",
"U  c #B97CC0",
"Y  c #C17FC0",
"T  c #B7A3B9",
"R  c #8C81C6",
"E  c #8C80C8",
"W  c #8D80C8",
"Q  c #8D80C9",
"!  c #8E83CB",
"~  c #8D81CD",
"^  c #8F83CC",
"/  c #8F82CE",
"(  c #9582C7",
")  c #9083CB",
"_  c #9083CF",
"`  c #9084CC",
"'  c #9084CD",
"]  c #9284CD",
"[  c #9C85CB",
"{  c #A481C4",
"}  c #A589CD",
"|  c #AC8BCF",
" . c #BF80C3",
".. c #BC84C2",
"X. c #BE83C4",
"o. c #B28CCE",
"O. c #A78CD1",
"+. c #AD8DD1",
"@. c #B58FD0",
"#. c #B390D2",
"$. c #C180C0",
"%. c #C382C3",
"&. c #C282C4",
"*. c #C685C6",
"=. c #C9A5CD",
/* pixels */
"S S A A Z A A A A A A A f S A A A A A A A A A A A A A A A A A A A A A A A A A A A A A A A A A A A A ",
"A A A A A A A A A A A A A A A A A A A A A A A A A A A A A A A A A A A A A A D f A A A A A A A A A A ",
"A Z A A A A A Z A A A A A A A A A f f A A A A A A A A A A A f A A A S A A A A A A A A f A A A A A A ",
"A A A Z A Z A A A A A A A A A A A A A A A A A A A A A A A A A A A A A A A A A A A A A A A A A A A A ",
"A A A A A A A A A A A A A A A A A A A A A A A A A A A D A A A A A A A A A A A A A A A A A A A S A A ",
"J J A A A A A S E A A A A S E A A A A J J D A A A D R R A A A A S E A A A A S A A A A A A A S S f A ",
"~ ' E A A A D ~ E S A A S ^ ^ S A A A E ~ R A A A D ! ~ A A f A ^ ^ E A A A E ^ D A A A D E ' S A A ",
"' ' E A S A E ~ ^ A A A S ' ^ A A A A S ~ ~ A A A R ~ ~ A A A A ^ ^ E A A A R ~ ~ A A D J ~ ' S A A ",
"R E S A A A E E A A A A S R R S A A A R E A A A A A R R A A A A R E A A A A R R R A A A A R R S A A ",
"A A A A f A A A A A A A A A A A A A A A A A A A A A A A A A A A A S A A A A A A A A A A A A A A A A ",
"A A A A A A A A A A A A A A A A A A A A A A A A A A A A A A A A A A A A A A A A A A A A A A A A A A ",
"A A A A A A A A A A A A A A A A A A A A A A A A A A A A A A A A f A A A A A A A A A A A A A S f A A ",
"A A A A A A A A A S A A A A S A A A A A A A A A A A A A A A A A S A A A A A A A A A A A A A A A A A ",
"S A A S A A S S A A A A A S S A A A A A R A A A A A A S A A A A S S S A A S A A A A A A S S S S A A ",
"E ' S S A A S E ) A S A A E ! A A A A R ~ R D A A R ! ! R A A A E E A A A A R ' R A A A S K E S A A ",
"' ' E S A A E ' E S A A R ! ! R A A S E ~ R A A f R ~ ! A A A A ` ~ G A A S E ' ~ S A A G ' _ S A A ",
"K K J A S A K K R S A A S K E S A A A R E E A A A S ~ E A A A A K E S A A S G ' K A A A S K K S A A ",
"S S A A A A D S S A A A A S G A A A A A S S A A A S S S A A A A S A S A A A A S S A A A A S S S A A ",
"S A A A A A S Z f A S A A A S S A A A A A A S A A S A A A A A A A A A S A A A A A A A A A A A A A A ",
"K S S A S S S A A E S A S S S S A A E A A S S S A A E A A A G E S S S K S A S S S S A S S A S G E A ",
"_ ) G S E ' E A E ' E S S K ' S E J _ S S E ' E f a d S S S ) ) S S K _ G S G ' K S S ' ) S S _ ^ E ",
"_ ' G S E ' E K S ' ' S S ' ' S A ~ _ S S R j t z l x z 0 g ) ' S S K ' K S K ~ K S S ' K S S K ^ E ",
"K K S A K E S A S K S S S S S S A E E D A j x M Y %.&.V z u s d S A S K S A S G K S S K K S S S E S ",
"S A A A A A A A A A A S A A S A A A A g s N %.%.V V B U V B n l a A A S A A A A A A A A S A A A A A ",
"S A D D A S A S S S S A A A S A A S d u B ..U N B z l m N I I V z a A S A A S S S D S S A Z Z S A A ",
"J G S Z S S S S S K G A S K K S S h z B Y U B m B m e e k b N V V t g K S S S G S S S E J S S E E E ",
"' _ K S K ' K S K _ ^ S S _ ' S A y N %.I I B V V N e 4 5 5 e m I m t h K S J _ G S S ' ~ S S _ ^ E ",
"' ' G S G ' K S S ' E S S P ' S q x Y X.V N x B I m 8 4 5 5 8 z V V k a J S J ' J S S ' E S S S ^ E ",
"S S S A S S S A S S S A S S S A 9 c *.V N z 8 x m e 5 5 5 5 5 8 m I N t g A S S S A S S S D A D S A ",
"S A A A A A A A A A A S A A A d e B  .V ..e 5 8 8 8 5 5 5 5 5 5 z N N e q Z A D S A Z S S A A D A A ",
"S S S A S S S A S S S S A S S a n *.U  .=.* & 5 5 5 5 4 5 5 8 5 % @ < l , f S S S A A S S A D S E A ",
"P ) S S S _ S S G E E S S E ' a c *.U ..T O o = 5 5 5 5 5 5 4 w +   & l , p S ' K S S K J S S ^ ~ J ",
"' ' K S K _ K S S ' ' S S ' _ a x *.V V * X . & 5 5 5 5 8 4 4 1 + o ; r 6 f K ' K S S ' ' S S ' ~ E ",
"K ' S S K S K S S K S S S K ~ a u m N V b % # : 5 4 4 5 8 8 e , $ > e 1 g S J ~ S S S K K S S K E R ",
"S S S A A S D D S S A A A S S A p 0 t m V B m b e 8 e e 8 l N I N z 5 q f A A S S A A S S A Z A R A ",
"A A A A A S A Z A S A S A S A A D f 0 e x N N N N N N m m b N M l 8 1 f A S A S S A A A A A S A f R ",
"S G S S S J S S S G J S S K K S A S a e 3 5 5 5 z x b b l 8 4 3 5 t 5 0 D A S K S A S S S S S S R g ",
"' ' S S K ' K S S _ K S S E ' S S L w M M 8 3 e e 3 s 6 3 8 8 - 3 z l 4 Z A G _ K S S ' / S A ( ( R ",
"' ' G S K ' K S S _ K S S ) ' S S g b C V l M B n w J P r N z , 2 z l 1 Z S G ' E G S ' K S S ~ ' E ",
"S H S Z S S S S S G S S S K S S S y M %.N k C V t d J J 0 l z 3 5 b e 7 Z S S G S S S G G S S S S S ",
"A A A A A S A A A A A A A A A A A d n N x 5 C M 9 f S S q 8 x 2 , 4 6 d A A A A A A A A A A A A S A ",
"S A A A A A A A A S S A A A A A A S f t 3 3 V V 1 f f S i 8 z 2 1 9 d S A A A S S A A A A A A S S S ",
"E E S S S K S S S E E S A G K S S S P f a a z x 4 f E E i 2 w w f A K K S S L P G S S K K S A K ( [ ",
"' ' S S P ' K S S ~ E G S ' ) S G E ' K S G P y 1 S ~ K g 1 y ) K A E _ G A K ( G S S ' K S S ' [ } ",
"' ' E G E ' E S G ' ' S S E ' E S E ' E G E E G h R E ' G S L ) E S E ' E S E ) E S E E _ K K [ } | ",
"S S K ' E G E ' E S K K K K S ) E E E ) ' E S K E ' S R ) ' S S E ' K S E ' E K E ! R G K K ' O.o.@.",
"S S K ' E S P ' ' S G ' ' S S ' ' P S ) ' K G R ' ' S S ' ' S G ' ' E S E ' E S R ' ) S G L [ +.@.@.",
"S G K ' E S G ' K S G ' K S K K K K S K ' K S E ' E S E E E S G E K K G ) E E R E E K S L [ } o.o.o.",
"' ' G S K ' P S E ' E G S ) ) S S ) ' K G K ) E G S ' K G S E ' S S K ' E S K ' E E R ( [ O.+.#.o.{ ",
"' ' K S K ' E S E ' ' S S ' ' S S K ' E A K ' E S E ' ' S S ' ' S S ' ' E G K ' ~ A h ( [ +.#.#.o.{ "
};
