/* XPM */
static char *c73322177320431ccca94356f67cdbc5C1N57QXawl3RikXi[] = {
/* columns rows colors chars-per-pixel */
"50 50 81 1 ",
"  c #141014",
". c #1E1828",
"X c #221C2E",
"o c #2A1B2B",
"O c #3B243E",
"+ c #363336",
"@ c #4D2E50",
"# c #4E3351",
"$ c #69456E",
"% c #6D4871",
"& c #78557B",
"* c #7D5182",
"= c #88528D",
"- c #8B4F91",
"; c #8B5497",
": c #825C93",
"> c #8D5B9D",
", c #925798",
"< c #965B9C",
"1 c #985D9E",
"2 c #9A609F",
"3 c #8D5EA1",
"4 c #935EA0",
"5 c #9A5EA0",
"6 c #8D62A5",
"7 c #8A67AB",
"8 c #8B69AD",
"9 c #9263A4",
"0 c #9D62A3",
"q c #9E68A4",
"w c #9265AA",
"e c #9D67AA",
"r c #926AAE",
"t c #9C6AAD",
"y c #8B6DB2",
"u c #936DB2",
"i c #9C6EB2",
"p c #8770B7",
"a c #8D71B7",
"s c #8A79B7",
"d c #8776BE",
"f c #8B74BB",
"g c #867BBF",
"h c #9A70B3",
"j c #9273B9",
"k c #A165A7",
"l c #A266A9",
"z c #A46AAC",
"x c #AA6DAF",
"c c #A66FB1",
"v c #AB6FB1",
"b c #AE72B4",
"n c #B274B6",
"m c #B376B9",
"M c #B679BC",
"N c #BC7CBD",
"B c #C07FBF",
"V c #8B77C4",
"C c #867AC2",
"Z c #897DC5",
"A c #8C7FC8",
"S c #917FC5",
"D c #BC7EC1",
"F c #C07FC0",
"G c #B09DB3",
"H c #8C80C7",
"J c #8E81CA",
"K c #9582C7",
"L c #9183CC",
"P c #9C85CB",
"I c #9082D1",
"U c #A481C4",
"Y c #A087CB",
"T c #A589CD",
"R c #AC8BCF",
"E c #BD83C3",
"W c #B28CCE",
"Q c #A78CD1",
"! c #B58FD0",
"~ c #B390D2",
"^ c #C281C3",
/* pixels */
"ZCCCCCCCCCCCCCCCCCCCCCCCCCCCCCCCCCCCCCCCCCCCCCCCCC",
"CCCCCCCCCCCCCCCCCCCCCCCCCCCCCCCCCdCCCCCCCCCCCCCCCC",
"CCCdCCCCCCCCCCgCIICCCCCCCCCCCgCCCCCCCCCdCCCCCdCCCC",
"CCCCdCCCCCCCCCCCC*CCCCCCCCCCCCCCCCCCCCCCCCCCCCCCCC",
"CCCCCdCCCCCCCCCCCCCCCCCCCCCCCCCCZCCCCCCCCCCCCCCCCC",
"AAZCCdCZHCCCCZHCCCCZZZCCCCHZCCCCZHZCCCZHCCCCCZHCCC",
"IJZCCCAIJCCCZJIHCCCZIHCCCZIHCCCCJJHCCCJJZCCCZJIHCC",
"JIJCCCHJHHCCCIJHCCCIIHCCCZIZCCCCHIJCCCHJACCCZIJZCC",
"HHHCCCCHHCCCCHHCCCCZHZCCCZHZZCCCHHZCCCCHHCCCZHZZCC",
"ZCCCCCCCCCCCCCCCCCCgCCCCCCCCCCCCCCCCCCCCCCCCCCCCCC",
"CCCCCCCCCCCCCCCCCCCCCCCCCCCCCCCCCCCCCCCCCCCCCCCCCC",
"CCCCCCCCCCCCCCCCCCCCCCCCCCCCCCCCCCCCCCCCCCCCCCCCCC",
"CCCCCCCCCCCCCCCCCCCCCCCCCCCCCCCCCCCCCCCCCCCCCCCCCC",
"CCCCCCZZCCCCCCCCgCCCZCCCCCZCCCCCZACCCCZZCCCCCZZCCC",
"HJHCCCHJHCCCCJJHCCCHJHCCCZJJZCCCHJZCCCHJHZCCZJJZCg",
"ILHZCCHIJHCCHJJHZCCJIJCCCHIJZCCCJIHCCCHJHCCCZLLZCg",
"JJACCCAJHCCCZJAZCCCHJJCCCZJJCCCZAJZCCCAJAZCCZJJZCC",
"ZZCCCCCZZCCCCZZCCCCCZCCCCCZZCCCCCZZCCCCZZCCCCZZCCC",
"CCCCCCCCCCCCCCCCCCCCCCCCCCCCCCCCCCCZCCCCCCCCCCCCCC",
"AAZCCZACCAACCZACCZHZCZHZCCHZZCZZZCZZZCZZZCCZZCCAZZ",
"JLAZALJCZLJZZJLZCIIHCHLJZZLJZCJJZZALAZALAZZLJZZJLZ",
"LIACJJJCZLJZZJLACHIHCHIJy8aJZZJLZZJLACALACAJJZZJLA",
"AAZCAAZCAHHZCAAZCZHZCAjuzxxi8yfACCZAZCZAACZAAZCAAZ",
"ZCCCCCCCCCCCCCCCCCCC*SMmNENnzcl9fCZCCCCZZCCCCCCCCZ",
"CCCCCCCZCZCCCCCCCCfiMDENvk0kbbnbtyZCCZCCCCCZCCCZCC",
"AAACAAZZZAAZZAAZCZiNDDbmMl1110enmeaAZCAAAZZAAZCAJZ",
"LLACJLAZALJZZILAftNEnbMDNb51<15lmn4fAZALAZZLJZZJLA",
"LLAZALACALAZZALZyv^Ml0xnb0111115nm5yZZZLAZAIAZZJLA",
"ZZZCZZZCZZZCCZZZtGFD0<20011111<5bMc,yCZZZCCZZZCZZC",
"ZCCCCCCCCCCCCZCyn^D^&=1<<1<1<111$%l<7CCCCCCCCCCCZC",
"ZZCCZZCCCZZCVZV4DDEG+@<11<111126Xo0,7CZZZCCZZCCCZC",
"AAZCAJAZZJJCZJA9FDD& O0l41111lx:.#l;yZAJAZZJAZZIJA",
"ILAZALJZZLJZZLLjcbDz%*mMvcvvvDD;$qkwCCALAZALLZZLLJ",
"LLZZAAAZZAAZCAJZy<cMMnMnnnnnnnbmbl9VACALACCLACZAJH",
"CZCCCZZCCZZCCZZCCy11551k5<445<55<>fCZCCZCCCZCCCCCC",
"CCCCCCCCCCCCCCCCCC315--nn3s9l<3>,<pCCCCCCCCCCZCCgg",
"AZCCZZZCZAZZZAZZCfxMc><Nm4Awx56rl53CZVZZACCAZZCZHg",
"LLAZAIAZZIAZZALZpl^ni8xBv8Auzv4;<z<aACJLJCZLLZZALH",
"LLACALJZAJAZZJLZplBef7vBrVIArx,3yl0wfZALJCALLCZLLH",
"AAZCZAZCZAZZZAZZghlwd7vFwVAArv,3Vwz,yZZZACCAHVCZZZ",
"ZCCCCCCCCCCCCCCCCCyCCyznrCZCyl<7Cyw8dCCCCCCCCCCCCC",
"CCCCCZCCCCZCCCCCCCCCCCywfgCCV67CCCCCCCVZCCCZCCCZZZ",
"JJZCZJZCZJJCCAAZCAJZCAAAgCJACCJJCCAJACZAACZJACCAKP",
"LLACALJZZJJZZLJZZJLZCALACZLJCZLJAZLLACALKCZJIZZLPT",
"JJAZJJJZHLJAZJJAZJLJZHJJZAJJHHJJAAAJJZHJJHHJJAAKTR",
"AAJJJZAJJZAJJJZJJAZJJJZJLJAHJJHAHJAAJJJAHHHHAJLQW!",
"ZZJLJCALJZZLLZZJLJCJLJZZLJCZJJAZJLACJJJCHJJHVLP!!!",
"ZAJJJZAJJAAJJZAJJJZJJJZALJAAJJAHJJAAJJJHHHHCKPY!WW",
"LJJZJLAZHJJZHJJJZJLAZHJJZZLJZZJJAZJJJZHJJHHKPQ~~WU",
"ILZZJLJZZLJZZLLZZJLACHIJZHLLZZLLZZJLHCJIHZCKPQ~~WU"
};
