/* XPM */
static char *___1_1676488735[] = {
/* columns rows colors chars-per-pixel */
"50 50 84 1 ",
"  c #0E090F",
". c #180F1A",
"X c #201322",
"o c #292729",
"O c #422A45",
"+ c #432E4A",
"@ c #533156",
"# c #4C3F64",
"$ c #5C3D60",
"% c #655D66",
"& c #7B517F",
"* c #88548E",
"= c #8D5394",
"- c #8D5698",
"; c #8C5A9C",
": c #905496",
"> c #915897",
", c #925799",
"< c #965C9D",
"1 c #985D9E",
"2 c #956799",
"3 c #947297",
"4 c #8F5EA1",
"5 c #975FA2",
"6 c #9A5FA0",
"7 c #8C62A6",
"8 c #8C66A9",
"9 c #8D69AC",
"0 c #9161A4",
"q c #9D63A4",
"w c #9266A9",
"e c #9D66A9",
"r c #946AAD",
"t c #9C69AB",
"y c #876DB4",
"u c #8B6DB3",
"i c #886FB9",
"p c #926CB2",
"a c #9C6FB2",
"s c #8C71B6",
"d c #8775BC",
"f c #8A73BB",
"g c #8679BD",
"h c #8E79BD",
"j c #9371B6",
"k c #9279B3",
"l c #A164A6",
"z c #A366A9",
"x c #A56AAB",
"c c #A96CAE",
"v c #AB6EB1",
"b c #AB71B2",
"n c #B375B7",
"m c #B376B9",
"M c #B877B9",
"N c #B679BD",
"B c #BA7BBD",
"V c #8776C0",
"C c #8875C0",
"Z c #867AC2",
"A c #897DC5",
"S c #8C7FC8",
"D c #917FC5",
"F c #907ECB",
"G c #BA7DC0",
"H c #C07FC1",
"J c #8C81C7",
"K c #8E81CA",
"L c #9582C7",
"P c #9184CC",
"I c #9C85CB",
"U c #A481C4",
"Y c #A087CB",
"T c #A589CD",
"R c #AC8BCF",
"E c #BF80C2",
"W c #BF8BC5",
"Q c #B28CCE",
"! c #A78CD1",
"~ c #AD8DD1",
"^ c #B58FD0",
"/ c #B390D2",
"( c #C381C2",
") c #CCADCF",
/* pixels */
"AZZZVZZZZZZZZZZZZZZZZZZZZZZZZZZZZZZZZZZZZZZZZZZZZZ",
"ZZZZZZZZZZZZZZZZZZZZZZZZZZZZZZZZZZZZZZZZZZZZZZZZZZ",
"ZZZZVZZZZZZZZZZZZZZZZZZZZZZZZZZZZZZZZZZZZZdVZZZZZZ",
"ZZVZZZZVZZZZZZZZZVZZZZZZZZZZZZZZZZZZZZZZZZZVZZZZZZ",
"ZZZZZZZZZZZZZZZZZZZZZZZZZZAZZZZZZZZZZZZZZZZZZZAZZZ",
"SSAZZZAAJZZZZAJZZVZZAAZZZZSAZZZZSJAZZZSSZZZZZAAZZZ",
"KKSZZZAKKAZZAKKJZZZAPSZZZAKKZZZZKKAAZZJKJZZZAKPAZZ",
"PPSZZAJKKZZZAPKJZZZZPKZZZSKAZZZZKKSZZZJKJZZZAPPAZZ",
"KJAZZZAJAAZZZJJZZZZJAAZZZZSSZZZZJSAZZZAJJZZZAJAAZZ",
"AZZZZZZZZZZZZZZZZZZZZZZZZZZZZZZZZZZZZZZZZZZZZZZZZZ",
"ZZZZZZZZZZZZZZZZZZZZZZZZZZZZZZZZZZZZZZZZZZZZZZZZZZ",
"ZZZZZZZZZZZZZZZZZZZZZZZZZZZZZZZZZZZZZZZZZZZZZZZZZZ",
"ZZZZZZZZZZZZZZZZZZZZZZZZZZZZZZZZZZZZZZZZZZZZZZZZZZ",
"AAZZZZZSZZZZZZAZZZZZAAZZZZZAZZZZASZZZZZSZZZZZAAZZZ",
"JKKAZZSKJAZZZKKJZZZJKJZZZJKKAZZZJKSZZAJKJAZZAKKAZZ",
"KKKZZZSKKZZZJKKJZZZJPKZZZJPKAZZZKKSZZZJKJZZZAKPSZZ",
"KSSZZZSKJAZZZKKAZZZJKSZZZAJJAZZZSKSZZZSKSZZZAKKAZZ",
"AAZZZZZZAZZZZZAZZZZZAZZZZAAAZZZZZZZZZZZAAZZZZAZZZA",
"ZAZZZZZZZZZZZZZZZZZZZZZZZZZZZZZZZZZZZZZZZZZZZZZZZZ",
"SAAZZSSZZASZZSSZZASZZASSZZSAZZASAZSSAZASAZZASZZSSA",
"KPSASPKZSPKAZKPSAKPAAKPKASPKAAKKAAKKSASPKASKKAZKKJ",
"PPSZJKSAAKKASKKSZKPKZSPKdshAAAPKAAKPSZSPKZAPKAAKKJ",
"SSAZSSSZSJJAASSAZSSAZVVdpleaffZSAZSSAZASSAZSSZASSS",
"AZZZZZZZZZZZZZZZZZZZVyxcM((neeewyZZZZZVAZZZZAZZZZZ",
"AZZZZAZZZAZVZZZZZAZfbnBEncxxbnmctiCZAZAZZZZZZZZZZZ",
"SSAZSSAAASSAASSZAAjb((Nnmz11qlznmzpSSZASSZSKSSZSSS",
"PPSASPSASPPAAKPSgjmGGmNNGmq111<qnmeuSASPKZSKKASKPS",
"PPAASPSAAPSAAKPSfz(GvqvNBv11<111xGz4AZAPKASKFAZSKS",
"AAAZAAAZAAAZAAAArn(Bz1qzz6<<1111xGb27ZZSZZZSSZZSSA",
"ZZZZZZZZZZZZZZZdaHEW2=1<<111<1<1<;xe;ZZZZZZZZZZZZZ",
"AAAZAAZZZAAZZAZ0NEE)%@><<1<1<11q$.&q4VAAZZZSAZZZAZ",
"FFAAAFSAAKKAAFJ7BEB3oX*q1<11<6qt# &5;VSKKZAKFAAFPS",
"PPSASPKZSPKAAPPunNGq+Oenxqqq6vNq+$xq7ZSPPZAPPAAKKJ",
"KKSASKSASSSAZSSArqmNbxNBNnNNmGGmxcq7CAAPAAAKKZASJJ",
"AZZZAZZZZZAZZAAZZ86cccxczzllllxccq7dZZZAZZZAAZZAJZ",
"ZZZZZZZZZZZZZAZZZd7>>>=lv,8r16:-::yZAZZAZZZZZZZZgZ",
"SSZZSSSZASAZZSSAZArxc-=c(5fklz;y1l;dAAAAAAAAAAAAAh",
"KKSASKSAAPKAASFAgpnBbweBBqDiqv54<z<9AAKPKAAPKAZFPJ",
"PPSZSKSZSKKAAKPSfqHbpsl(cpFFrvq=;ql5CASPKAAPPAAPPA",
"SSAZSSSZZSSZAASAdtMeisl(tVSSixl-iuz67dAAAZAAAZZAAA",
"ZZZZZZZZZZZZZZZZZfw9Vyl(tdAZixl=dyq58VAZZZZZZZZZAZ",
"AZZZZZZZZZZZZZZZZZZZZVrcrgZZVw19ZVffZZVZZZZAZZZZZA",
"SSSZSSSZSJSZZSSAZAKAZSSidZKJZffKAZSKAZAFAZAKSAASLI",
"PPJZSPKZSKKSAPKAAKPSZKPSAAPKZAKPAZKPSZDPLZAPKAAFYT",
"PKSSSKKSSKKSSKKSAKPKAKKKAAPKJSKKSAKKJSSPKJJKKSSPTR",
"SSSKSSSKKSSKKSSKKSAKKKAKKKJJKKJAKKJSKKSSAKJJSKP!Q^",
"AZKPSASPKAAKKSZKPJZKPKAAPKAAKKSAKPSZKPJAJKKAALY~^^",
"SSKKJSSKJSSKKSSKKKAKKKASPKSAKKSKKKSSKKJJJKJADIT^^Q",
"KPSSSPKSSKKASKKSSKKKAJKKSSKKSSKKSAKKKAJKJJJLI!//QU",
"PPSZSPKZSPKAAKPJZKPSAJPKZSKPAAKKAAKPKZKPKAZLI!//RU"
};
